<?xml version="1.0" encoding="UTF-8" standalone="no"?>
<!DOCTYPE svg PUBLIC "-//W3C//DTD SVG 1.1//EN"
 "http://www.w3.org/Graphics/SVG/1.1/DTD/svg11.dtd">
<!-- Generated by graphviz version 2.43.0 (0)
 -->
<!-- Title: DataFlow Pages: 1 -->
<svg width="1096pt" height="593pt"
 viewBox="0.00 0.00 1096.44 593.00" xmlns="http://www.w3.org/2000/svg" xmlns:xlink="http://www.w3.org/1999/xlink">
<g id="graph0" class="graph" transform="scale(1 1) rotate(0) translate(4 589)">
<title>DataFlow</title>
<polygon fill="white" stroke="transparent" points="-4,4 -4,-589 1092.44,-589 1092.44,4 -4,4"/>
<text text-anchor="middle" x="544.22" y="-569.8" font-family="Helvetica,sans-Serif" font-size="14.00">PathfinderLM — Request / Data Flow</text>
<!-- U -->
<g id="node1" class="node">
<title>U</title>
<ellipse fill="#cfd8dc" stroke="black" cx="763.44" cy="-544" rx="29.5" ry="18"/>
<text text-anchor="middle" x="763.44" y="-540.3" font-family="Helvetica,sans-Serif" font-size="14.00">User</text>
</g>
<!-- UI -->
<g id="node2" class="node">
<title>UI</title>
<path fill="#ffffff" stroke="black" d="M723.94,-475C723.94,-475 646.94,-475 646.94,-475 640.94,-475 634.94,-469 634.94,-463 634.94,-463 634.94,-451 634.94,-451 634.94,-445 640.94,-439 646.94,-439 646.94,-439 723.94,-439 723.94,-439 729.94,-439 735.94,-445 735.94,-451 735.94,-451 735.94,-463 735.94,-463 735.94,-469 729.94,-475 723.94,-475"/>
<text text-anchor="middle" x="685.44" y="-453.3" font-family="Helvetica,sans-Serif" font-size="14.00">User Interface</text>
</g>
<!-- U&#45;&gt;UI -->
<g id="edge1" class="edge">
<title>U&#45;&gt;UI</title>
<path fill="none" stroke="black" d="M734.67,-540.71C694.27,-536.82 623.94,-527.39 608.44,-508 598.11,-495.08 608.81,-484.42 625.19,-476.31"/>
<polygon fill="black" stroke="black" points="627.04,-479.31 634.77,-472.06 624.21,-472.91 627.04,-479.31"/>
<text text-anchor="middle" x="674.94" y="-496.8" font-family="Helvetica,sans-Serif" font-size="14.00">1. Submit query / goal</text>
</g>
<!-- App -->
<g id="node5" class="node">
<title>App</title>
<path fill="#ffffff" stroke="black" d="M601.94,-212C601.94,-212 506.94,-212 506.94,-212 500.94,-212 494.94,-206 494.94,-200 494.94,-200 494.94,-188 494.94,-188 494.94,-182 500.94,-176 506.94,-176 506.94,-176 601.94,-176 601.94,-176 607.94,-176 613.94,-182 613.94,-188 613.94,-188 613.94,-200 613.94,-200 613.94,-206 607.94,-212 601.94,-212"/>
<text text-anchor="middle" x="554.44" y="-190.3" font-family="Helvetica,sans-Serif" font-size="14.00">Flask Application</text>
</g>
<!-- U&#45;&gt;App -->
<g id="edge18" class="edge">
<title>U&#45;&gt;App</title>
<path fill="none" stroke="#1565c0" d="M792.36,-541.08C818.43,-537.95 856.41,-529.69 881.44,-508 899.92,-491.98 904.44,-482.46 904.44,-458 904.44,-458 904.44,-458 904.44,-281 904.44,-223.91 726.6,-204.51 624.45,-198.08"/>
<polygon fill="#1565c0" stroke="#1565c0" points="624.4,-194.57 614.21,-197.46 623.98,-201.56 624.4,-194.57"/>
<text text-anchor="middle" x="996.44" y="-366.3" font-family="Helvetica,sans-Serif" font-size="14.00">14. Feedback &#45;&gt; update profile</text>
</g>
<!-- UI&#45;&gt;U -->
<g id="edge17" class="edge">
<title>UI&#45;&gt;U</title>
<path fill="none" stroke="black" stroke-dasharray="5,2" d="M719.94,-475.05C727.72,-480.05 735.44,-486.06 741.44,-493 747.26,-499.73 751.77,-508.24 755.15,-516.33"/>
<polygon fill="black" stroke="black" points="751.93,-517.7 758.72,-525.83 758.48,-515.24 751.93,-517.7"/>
<text text-anchor="middle" x="814.44" y="-496.8" font-family="Helvetica,sans-Serif" font-size="14.00">13. Display guidance</text>
</g>
<!-- Auth -->
<g id="node3" class="node">
<title>Auth</title>
<path fill="#ffffff" stroke="black" d="M564.44,-388C564.44,-388 486.44,-388 486.44,-388 480.44,-388 474.44,-382 474.44,-376 474.44,-376 474.44,-364 474.44,-364 474.44,-358 480.44,-352 486.44,-352 486.44,-352 564.44,-352 564.44,-352 570.44,-352 576.44,-358 576.44,-364 576.44,-364 576.44,-376 576.44,-376 576.44,-382 570.44,-388 564.44,-388"/>
<text text-anchor="middle" x="525.44" y="-366.3" font-family="Helvetica,sans-Serif" font-size="14.00">Authentication</text>
</g>
<!-- UI&#45;&gt;Auth -->
<g id="edge2" class="edge">
<title>UI&#45;&gt;Auth</title>
<path fill="none" stroke="black" d="M653.06,-438.8C628.15,-425.56 593.55,-407.18 566.66,-392.9"/>
<polygon fill="black" stroke="black" points="567.97,-389.63 557.5,-388.03 564.68,-395.81 567.97,-389.63"/>
<text text-anchor="middle" x="660.94" y="-409.8" font-family="Helvetica,sans-Serif" font-size="14.00">2. Authenticate</text>
</g>
<!-- Sec -->
<g id="node4" class="node">
<title>Sec</title>
<path fill="#ffe0b2" stroke="black" d="M413.44,-301C413.44,-301 309.44,-301 309.44,-301 303.44,-301 297.44,-295 297.44,-289 297.44,-289 297.44,-275 297.44,-275 297.44,-269 303.44,-263 309.44,-263 309.44,-263 413.44,-263 413.44,-263 419.44,-263 425.44,-269 425.44,-275 425.44,-275 425.44,-289 425.44,-289 425.44,-295 419.44,-301 413.44,-301"/>
<text text-anchor="middle" x="361.44" y="-285.8" font-family="Helvetica,sans-Serif" font-size="14.00">Security Layer</text>
<text text-anchor="middle" x="361.44" y="-270.8" font-family="Helvetica,sans-Serif" font-size="14.00">(Biometric / Voice)</text>
</g>
<!-- Auth&#45;&gt;Sec -->
<g id="edge3" class="edge">
<title>Auth&#45;&gt;Sec</title>
<path fill="none" stroke="black" d="M474.22,-367.98C417.68,-365.64 331.92,-358.1 311.44,-334 303.77,-324.98 308.78,-315.59 318.07,-307.37"/>
<polygon fill="black" stroke="black" points="320.49,-309.92 326.28,-301.05 316.22,-304.37 320.49,-309.92"/>
<text text-anchor="middle" x="359.94" y="-322.8" font-family="Helvetica,sans-Serif" font-size="14.00">3. Verify identity</text>
</g>
<!-- Auth&#45;&gt;App -->
<g id="edge6" class="edge">
<title>Auth&#45;&gt;App</title>
<path fill="none" stroke="black" d="M525.83,-351.97C526.56,-330.91 528.62,-294.04 534.44,-263 537.03,-249.2 541.28,-234.2 545.2,-221.81"/>
<polygon fill="black" stroke="black" points="548.59,-222.69 548.37,-212.09 541.94,-220.51 548.59,-222.69"/>
<text text-anchor="middle" x="606.94" y="-278.3" font-family="Helvetica,sans-Serif" font-size="14.00">5. Forward (on success)</text>
</g>
<!-- Deny -->
<g id="node10" class="node">
<title>Deny</title>
<path fill="#ffcdd2" stroke="black" d="M783.94,-300C783.94,-300 700.94,-300 700.94,-300 694.94,-300 688.94,-294 688.94,-288 688.94,-288 688.94,-276 688.94,-276 688.94,-270 694.94,-264 700.94,-264 700.94,-264 783.94,-264 783.94,-264 789.94,-264 795.94,-270 795.94,-276 795.94,-276 795.94,-288 795.94,-288 795.94,-294 789.94,-300 783.94,-300"/>
<text text-anchor="middle" x="742.44" y="-278.3" font-family="Helvetica,sans-Serif" font-size="14.00">Access Denied</text>
</g>
<!-- Auth&#45;&gt;Deny -->
<g id="edge5" class="edge">
<title>Auth&#45;&gt;Deny</title>
<path fill="none" stroke="#c62828" d="M568.57,-351.91C603.4,-338.1 652.57,-318.62 689.73,-303.89"/>
<polygon fill="#c62828" stroke="#c62828" points="691.38,-307 699.39,-300.06 688.8,-300.49 691.38,-307"/>
<text text-anchor="middle" x="675.44" y="-322.8" font-family="Helvetica,sans-Serif" font-size="14.00">on failure</text>
</g>
<!-- Sec&#45;&gt;Auth -->
<g id="edge4" class="edge">
<title>Sec&#45;&gt;Auth</title>
<path fill="none" stroke="black" stroke-dasharray="5,2" d="M384.78,-301.06C401.24,-313.59 421.97,-328.91 431.44,-334 441.86,-339.6 453.38,-344.7 464.67,-349.16"/>
<polygon fill="black" stroke="black" points="463.49,-352.45 474.08,-352.75 465.99,-345.91 463.49,-352.45"/>
<text text-anchor="middle" x="471.44" y="-322.8" font-family="Helvetica,sans-Serif" font-size="14.00">4. Auth result</text>
</g>
<!-- Sec&#45;&gt;App -->
<g id="edge15" class="edge">
<title>Sec&#45;&gt;App</title>
<path fill="none" stroke="black" stroke-dasharray="5,2" d="M362.89,-262.86C364.76,-251.76 368.97,-238.17 378.44,-230 413.29,-199.93 435.32,-221.16 480.44,-212 481.89,-211.71 483.36,-211.4 484.84,-211.1"/>
<polygon fill="black" stroke="black" points="485.67,-214.5 494.72,-208.99 484.21,-207.65 485.67,-214.5"/>
<text text-anchor="middle" x="444.94" y="-233.8" font-family="Helvetica,sans-Serif" font-size="14.00">11. Secured response</text>
</g>
<!-- App&#45;&gt;UI -->
<g id="edge16" class="edge">
<title>App&#45;&gt;UI</title>
<path fill="none" stroke="black" d="M614.03,-202.85C680.4,-212.96 781.43,-232.89 804.44,-263 848.5,-320.65 767.41,-395.35 718.55,-432.65"/>
<polygon fill="black" stroke="black" points="716.33,-429.94 710.43,-438.74 720.53,-435.54 716.33,-429.94"/>
<text text-anchor="middle" x="846.94" y="-322.8" font-family="Helvetica,sans-Serif" font-size="14.00">12. Deliver</text>
</g>
<!-- RAG -->
<g id="node6" class="node">
<title>RAG</title>
<path fill="#2196f3" stroke="black" d="M396.44,-125C396.44,-125 324.44,-125 324.44,-125 318.44,-125 312.44,-119 312.44,-113 312.44,-113 312.44,-101 312.44,-101 312.44,-95 318.44,-89 324.44,-89 324.44,-89 396.44,-89 396.44,-89 402.44,-89 408.44,-95 408.44,-101 408.44,-101 408.44,-113 408.44,-113 408.44,-119 402.44,-125 396.44,-125"/>
<text text-anchor="middle" x="360.44" y="-103.3" font-family="Helvetica,sans-Serif" font-size="14.00" fill="white">RAG System</text>
</g>
<!-- App&#45;&gt;RAG -->
<g id="edge7" class="edge">
<title>App&#45;&gt;RAG</title>
<path fill="none" stroke="black" d="M515.18,-175.8C484.44,-162.33 441.55,-143.54 408.72,-129.15"/>
<polygon fill="black" stroke="black" points="409.87,-125.84 399.31,-125.03 407.06,-132.25 409.87,-125.84"/>
<text text-anchor="middle" x="520.44" y="-146.8" font-family="Helvetica,sans-Serif" font-size="14.00">6. Process query</text>
</g>
<!-- RAG&#45;&gt;Sec -->
<g id="edge14" class="edge">
<title>RAG&#45;&gt;Sec</title>
<path fill="none" stroke="black" d="M358.2,-125.01C356.51,-138.74 354.33,-158.58 353.44,-176 352.62,-191.98 352.52,-196.03 353.44,-212 354.21,-225.41 355.83,-240.21 357.41,-252.65"/>
<polygon fill="black" stroke="black" points="353.98,-253.44 358.76,-262.89 360.92,-252.52 353.98,-253.44"/>
<text text-anchor="middle" x="419.44" y="-190.3" font-family="Helvetica,sans-Serif" font-size="14.00">10. Validate + encrypt</text>
</g>
<!-- DB -->
<g id="node7" class="node">
<title>DB</title>
<path fill="#ffffff" stroke="black" d="M186.94,-33.73C186.94,-35.53 160.72,-37 128.44,-37 96.16,-37 69.94,-35.53 69.94,-33.73 69.94,-33.73 69.94,-4.27 69.94,-4.27 69.94,-2.47 96.16,-1 128.44,-1 160.72,-1 186.94,-2.47 186.94,-4.27 186.94,-4.27 186.94,-33.73 186.94,-33.73"/>
<path fill="none" stroke="black" d="M186.94,-33.73C186.94,-31.92 160.72,-30.45 128.44,-30.45 96.16,-30.45 69.94,-31.92 69.94,-33.73"/>
<text text-anchor="middle" x="128.44" y="-15.3" font-family="Helvetica,sans-Serif" font-size="14.00">Vector Database</text>
</g>
<!-- RAG&#45;&gt;DB -->
<g id="edge8" class="edge">
<title>RAG&#45;&gt;DB</title>
<path fill="none" stroke="black" d="M312.1,-104.75C219.97,-101.87 26.58,-93.23 6.44,-71 -14.57,-47.81 21.39,-34.85 59.6,-27.81"/>
<polygon fill="black" stroke="black" points="60.59,-31.19 69.86,-26.06 59.41,-24.29 60.59,-31.19"/>
<text text-anchor="middle" x="81.94" y="-59.8" font-family="Helvetica,sans-Serif" font-size="14.00">7a. Retrieve embeddings</text>
</g>
<!-- KB -->
<g id="node8" class="node">
<title>KB</title>
<path fill="#ffffff" stroke="black" d="M395.44,-33.73C395.44,-35.53 368.99,-37 336.44,-37 303.88,-37 277.44,-35.53 277.44,-33.73 277.44,-33.73 277.44,-4.27 277.44,-4.27 277.44,-2.47 303.88,-1 336.44,-1 368.99,-1 395.44,-2.47 395.44,-4.27 395.44,-4.27 395.44,-33.73 395.44,-33.73"/>
<path fill="none" stroke="black" d="M395.44,-33.73C395.44,-31.92 368.99,-30.45 336.44,-30.45 303.88,-30.45 277.44,-31.92 277.44,-33.73"/>
<text text-anchor="middle" x="336.44" y="-15.3" font-family="Helvetica,sans-Serif" font-size="14.00">Knowledge Base</text>
</g>
<!-- RAG&#45;&gt;KB -->
<g id="edge9" class="edge">
<title>RAG&#45;&gt;KB</title>
<path fill="none" stroke="black" d="M312.23,-92.74C302.03,-87.63 292.52,-80.61 286.44,-71 280.1,-61 285.45,-51.36 294.64,-43.21"/>
<polygon fill="black" stroke="black" points="296.9,-45.89 302.69,-37.01 292.63,-40.34 296.9,-45.89"/>
<text text-anchor="middle" x="349.94" y="-59.8" font-family="Helvetica,sans-Serif" font-size="14.00">7b. Fetch documents</text>
</g>
<!-- LM -->
<g id="node9" class="node">
<title>LM</title>
<path fill="#4caf50" stroke="black" d="M688.44,-38C688.44,-38 576.44,-38 576.44,-38 570.44,-38 564.44,-32 564.44,-26 564.44,-26 564.44,-12 564.44,-12 564.44,-6 570.44,0 576.44,0 576.44,0 688.44,0 688.44,0 694.44,0 700.44,-6 700.44,-12 700.44,-12 700.44,-26 700.44,-26 700.44,-32 694.44,-38 688.44,-38"/>
<text text-anchor="middle" x="632.44" y="-22.8" font-family="Helvetica,sans-Serif" font-size="14.00" fill="white">Ollama / OpenClaw</text>
<text text-anchor="middle" x="632.44" y="-7.8" font-family="Helvetica,sans-Serif" font-size="14.00" fill="white">deepseek&#45;r1:14b</text>
</g>
<!-- RAG&#45;&gt;LM -->
<g id="edge12" class="edge">
<title>RAG&#45;&gt;LM</title>
<path fill="none" stroke="black" d="M408.58,-97.43C439.26,-91.39 479.64,-82.37 514.44,-71 528,-66.57 557.43,-53.85 583.5,-42.23"/>
<polygon fill="black" stroke="black" points="585.22,-45.29 592.92,-38.01 582.36,-38.9 585.22,-45.29"/>
<text text-anchor="middle" x="620.94" y="-59.8" font-family="Helvetica,sans-Serif" font-size="14.00">8. Generate w/ context</text>
</g>
<!-- DB&#45;&gt;RAG -->
<g id="edge10" class="edge">
<title>DB&#45;&gt;RAG</title>
<path fill="none" stroke="black" stroke-dasharray="5,2" d="M146.96,-37.13C160.12,-48.38 178.7,-62.54 197.44,-71 230.53,-85.94 270.32,-94.64 302.3,-99.63"/>
<polygon fill="black" stroke="black" points="301.99,-103.12 312.4,-101.12 303.02,-96.2 301.99,-103.12"/>
<text text-anchor="middle" x="238.94" y="-59.8" font-family="Helvetica,sans-Serif" font-size="14.00">Top&#45;K vectors</text>
</g>
<!-- KB&#45;&gt;RAG -->
<g id="edge11" class="edge">
<title>KB&#45;&gt;RAG</title>
<path fill="none" stroke="black" stroke-dasharray="5,2" d="M390.92,-35.81C399.86,-40.83 407.97,-47.41 413.44,-56 419.65,-65.76 414.66,-74.92 405.69,-82.67"/>
<polygon fill="black" stroke="black" points="403.33,-80.06 397.37,-88.83 407.49,-85.69 403.33,-80.06"/>
<text text-anchor="middle" x="463.44" y="-59.8" font-family="Helvetica,sans-Serif" font-size="14.00">Related context</text>
</g>
<!-- LM&#45;&gt;RAG -->
<g id="edge13" class="edge">
<title>LM&#45;&gt;RAG</title>
<path fill="none" stroke="black" stroke-dasharray="5,2" d="M674.05,-38.23C689.52,-47.48 701.02,-59.24 690.44,-71 672.63,-90.8 508.44,-100.25 418.58,-103.98"/>
<polygon fill="black" stroke="black" points="418.38,-100.49 408.53,-104.39 418.67,-107.48 418.38,-100.49"/>
<text text-anchor="middle" x="733.44" y="-59.8" font-family="Helvetica,sans-Serif" font-size="14.00">9. Response</text>
</g>
</g>
</svg>
