<?xml version="1.0" encoding="UTF-8" standalone="no"?>
<!DOCTYPE svg PUBLIC "-//W3C//DTD SVG 1.1//EN"
 "http://www.w3.org/Graphics/SVG/1.1/DTD/svg11.dtd">
<!-- Generated by graphviz version 2.43.0 (0)
 -->
<!-- Title: DataFlow Pages: 1 -->
<svg width="1096pt" height="591pt"
 viewBox="0.00 0.00 1096.41 591.00" xmlns="http://www.w3.org/2000/svg" xmlns:xlink="http://www.w3.org/1999/xlink">
<g id="graph0" class="graph" transform="scale(1 1) rotate(0) translate(4 587)">
<title>DataFlow</title>
<polygon fill="white" stroke="transparent" points="-4,4 -4,-587 1092.41,-587 1092.41,4 -4,4"/>
<text text-anchor="middle" x="544.2" y="-567.8" font-family="Helvetica,sans-Serif" font-size="14.00">PathfinderLM — Request / Data Flow</text>
<!-- U -->
<g id="node1" class="node">
<title>U</title>
<ellipse fill="#cfd8dc" stroke="black" cx="763.41" cy="-542" rx="29.5" ry="18"/>
<text text-anchor="middle" x="763.41" y="-538.3" font-family="Helvetica,sans-Serif" font-size="14.00">User</text>
</g>
<!-- UI -->
<g id="node2" class="node">
<title>UI</title>
<path fill="#ffffff" stroke="black" d="M723.91,-473C723.91,-473 646.91,-473 646.91,-473 640.91,-473 634.91,-467 634.91,-461 634.91,-461 634.91,-449 634.91,-449 634.91,-443 640.91,-437 646.91,-437 646.91,-437 723.91,-437 723.91,-437 729.91,-437 735.91,-443 735.91,-449 735.91,-449 735.91,-461 735.91,-461 735.91,-467 729.91,-473 723.91,-473"/>
<text text-anchor="middle" x="685.41" y="-451.3" font-family="Helvetica,sans-Serif" font-size="14.00">User Interface</text>
</g>
<!-- U&#45;&gt;UI -->
<g id="edge1" class="edge">
<title>U&#45;&gt;UI</title>
<path fill="none" stroke="black" d="M734.64,-538.71C694.24,-534.82 623.91,-525.39 608.41,-506 598.08,-493.08 608.78,-482.42 625.16,-474.31"/>
<polygon fill="black" stroke="black" points="627.01,-477.31 634.74,-470.06 624.18,-470.91 627.01,-477.31"/>
<text text-anchor="middle" x="674.91" y="-494.8" font-family="Helvetica,sans-Serif" font-size="14.00">1. Submit query / goal</text>
</g>
<!-- App -->
<g id="node5" class="node">
<title>App</title>
<path fill="#ffffff" stroke="black" d="M601.91,-210C601.91,-210 506.91,-210 506.91,-210 500.91,-210 494.91,-204 494.91,-198 494.91,-198 494.91,-186 494.91,-186 494.91,-180 500.91,-174 506.91,-174 506.91,-174 601.91,-174 601.91,-174 607.91,-174 613.91,-180 613.91,-186 613.91,-186 613.91,-198 613.91,-198 613.91,-204 607.91,-210 601.91,-210"/>
<text text-anchor="middle" x="554.41" y="-188.3" font-family="Helvetica,sans-Serif" font-size="14.00">Flask Application</text>
</g>
<!-- U&#45;&gt;App -->
<g id="edge18" class="edge">
<title>U&#45;&gt;App</title>
<path fill="none" stroke="#1565c0" d="M792.33,-539.08C818.4,-535.95 856.38,-527.69 881.41,-506 899.89,-489.98 904.41,-480.46 904.41,-456 904.41,-456 904.41,-456 904.41,-279 904.41,-221.91 726.57,-202.51 624.42,-196.08"/>
<polygon fill="#1565c0" stroke="#1565c0" points="624.37,-192.57 614.18,-195.46 623.95,-199.56 624.37,-192.57"/>
<text text-anchor="middle" x="996.41" y="-364.3" font-family="Helvetica,sans-Serif" font-size="14.00">14. Feedback &#45;&gt; update profile</text>
</g>
<!-- UI&#45;&gt;U -->
<g id="edge17" class="edge">
<title>UI&#45;&gt;U</title>
<path fill="none" stroke="black" stroke-dasharray="5,2" d="M719.91,-473.05C727.69,-478.05 735.41,-484.06 741.41,-491 747.23,-497.73 751.74,-506.24 755.12,-514.33"/>
<polygon fill="black" stroke="black" points="751.9,-515.7 758.69,-523.83 758.45,-513.24 751.9,-515.7"/>
<text text-anchor="middle" x="814.41" y="-494.8" font-family="Helvetica,sans-Serif" font-size="14.00">13. Display guidance</text>
</g>
<!-- Auth -->
<g id="node3" class="node">
<title>Auth</title>
<path fill="#ffffff" stroke="black" d="M564.41,-386C564.41,-386 486.41,-386 486.41,-386 480.41,-386 474.41,-380 474.41,-374 474.41,-374 474.41,-362 474.41,-362 474.41,-356 480.41,-350 486.41,-350 486.41,-350 564.41,-350 564.41,-350 570.41,-350 576.41,-356 576.41,-362 576.41,-362 576.41,-374 576.41,-374 576.41,-380 570.41,-386 564.41,-386"/>
<text text-anchor="middle" x="525.41" y="-364.3" font-family="Helvetica,sans-Serif" font-size="14.00">Authentication</text>
</g>
<!-- UI&#45;&gt;Auth -->
<g id="edge2" class="edge">
<title>UI&#45;&gt;Auth</title>
<path fill="none" stroke="black" d="M653.03,-436.8C628.12,-423.56 593.52,-405.18 566.63,-390.9"/>
<polygon fill="black" stroke="black" points="567.94,-387.63 557.46,-386.03 564.65,-393.81 567.94,-387.63"/>
<text text-anchor="middle" x="660.91" y="-407.8" font-family="Helvetica,sans-Serif" font-size="14.00">2. Authenticate</text>
</g>
<!-- Sec -->
<g id="node4" class="node">
<title>Sec</title>
<path fill="#ffe0b2" stroke="black" d="M413.41,-299C413.41,-299 309.41,-299 309.41,-299 303.41,-299 297.41,-293 297.41,-287 297.41,-287 297.41,-273 297.41,-273 297.41,-267 303.41,-261 309.41,-261 309.41,-261 413.41,-261 413.41,-261 419.41,-261 425.41,-267 425.41,-273 425.41,-273 425.41,-287 425.41,-287 425.41,-293 419.41,-299 413.41,-299"/>
<text text-anchor="middle" x="361.41" y="-283.8" font-family="Helvetica,sans-Serif" font-size="14.00">Security Layer</text>
<text text-anchor="middle" x="361.41" y="-268.8" font-family="Helvetica,sans-Serif" font-size="14.00">(Biometric / Voice)</text>
</g>
<!-- Auth&#45;&gt;Sec -->
<g id="edge3" class="edge">
<title>Auth&#45;&gt;Sec</title>
<path fill="none" stroke="black" d="M474.19,-365.98C417.65,-363.64 331.89,-356.1 311.41,-332 303.74,-322.98 308.75,-313.59 318.04,-305.37"/>
<polygon fill="black" stroke="black" points="320.46,-307.92 326.25,-299.05 316.19,-302.37 320.46,-307.92"/>
<text text-anchor="middle" x="359.91" y="-320.8" font-family="Helvetica,sans-Serif" font-size="14.00">3. Verify identity</text>
</g>
<!-- Auth&#45;&gt;App -->
<g id="edge6" class="edge">
<title>Auth&#45;&gt;App</title>
<path fill="none" stroke="black" d="M525.8,-349.97C526.53,-328.91 528.59,-292.04 534.41,-261 537,-247.2 541.25,-232.2 545.17,-219.81"/>
<polygon fill="black" stroke="black" points="548.56,-220.69 548.34,-210.09 541.91,-218.51 548.56,-220.69"/>
<text text-anchor="middle" x="606.91" y="-276.3" font-family="Helvetica,sans-Serif" font-size="14.00">5. Forward (on success)</text>
</g>
<!-- Deny -->
<g id="node10" class="node">
<title>Deny</title>
<path fill="#ffcdd2" stroke="black" d="M783.91,-298C783.91,-298 700.91,-298 700.91,-298 694.91,-298 688.91,-292 688.91,-286 688.91,-286 688.91,-274 688.91,-274 688.91,-268 694.91,-262 700.91,-262 700.91,-262 783.91,-262 783.91,-262 789.91,-262 795.91,-268 795.91,-274 795.91,-274 795.91,-286 795.91,-286 795.91,-292 789.91,-298 783.91,-298"/>
<text text-anchor="middle" x="742.41" y="-276.3" font-family="Helvetica,sans-Serif" font-size="14.00">Access Denied</text>
</g>
<!-- Auth&#45;&gt;Deny -->
<g id="edge5" class="edge">
<title>Auth&#45;&gt;Deny</title>
<path fill="none" stroke="#c62828" d="M568.54,-349.91C603.37,-336.1 652.54,-316.62 689.7,-301.89"/>
<polygon fill="#c62828" stroke="#c62828" points="691.35,-305 699.36,-298.06 688.77,-298.49 691.35,-305"/>
<text text-anchor="middle" x="675.41" y="-320.8" font-family="Helvetica,sans-Serif" font-size="14.00">on failure</text>
</g>
<!-- Sec&#45;&gt;Auth -->
<g id="edge4" class="edge">
<title>Sec&#45;&gt;Auth</title>
<path fill="none" stroke="black" stroke-dasharray="5,2" d="M384.75,-299.06C401.21,-311.59 421.94,-326.91 431.41,-332 441.83,-337.6 453.35,-342.7 464.64,-347.16"/>
<polygon fill="black" stroke="black" points="463.46,-350.45 474.05,-350.75 465.96,-343.91 463.46,-350.45"/>
<text text-anchor="middle" x="471.41" y="-320.8" font-family="Helvetica,sans-Serif" font-size="14.00">4. Auth result</text>
</g>
<!-- Sec&#45;&gt;App -->
<g id="edge15" class="edge">
<title>Sec&#45;&gt;App</title>
<path fill="none" stroke="black" stroke-dasharray="5,2" d="M362.86,-260.86C364.73,-249.76 368.94,-236.17 378.41,-228 413.26,-197.93 435.29,-219.16 480.41,-210 481.86,-209.71 483.33,-209.4 484.81,-209.1"/>
<polygon fill="black" stroke="black" points="485.64,-212.5 494.69,-206.99 484.18,-205.65 485.64,-212.5"/>
<text text-anchor="middle" x="444.91" y="-231.8" font-family="Helvetica,sans-Serif" font-size="14.00">11. Secured response</text>
</g>
<!-- App&#45;&gt;UI -->
<g id="edge16" class="edge">
<title>App&#45;&gt;UI</title>
<path fill="none" stroke="black" d="M614,-200.85C680.37,-210.96 781.4,-230.89 804.41,-261 848.47,-318.65 767.38,-393.35 718.52,-430.65"/>
<polygon fill="black" stroke="black" points="716.3,-427.94 710.4,-436.74 720.5,-433.54 716.3,-427.94"/>
<text text-anchor="middle" x="846.91" y="-320.8" font-family="Helvetica,sans-Serif" font-size="14.00">12. Deliver</text>
</g>
<!-- RAG -->
<g id="node6" class="node">
<title>RAG</title>
<path fill="#2196f3" stroke="black" d="M396.41,-123C396.41,-123 324.41,-123 324.41,-123 318.41,-123 312.41,-117 312.41,-111 312.41,-111 312.41,-99 312.41,-99 312.41,-93 318.41,-87 324.41,-87 324.41,-87 396.41,-87 396.41,-87 402.41,-87 408.41,-93 408.41,-99 408.41,-99 408.41,-111 408.41,-111 408.41,-117 402.41,-123 396.41,-123"/>
<text text-anchor="middle" x="360.41" y="-101.3" font-family="Helvetica,sans-Serif" font-size="14.00" fill="white">RAG System</text>
</g>
<!-- App&#45;&gt;RAG -->
<g id="edge7" class="edge">
<title>App&#45;&gt;RAG</title>
<path fill="none" stroke="black" d="M515.15,-173.8C484.41,-160.33 441.52,-141.54 408.69,-127.15"/>
<polygon fill="black" stroke="black" points="409.84,-123.84 399.28,-123.03 407.03,-130.25 409.84,-123.84"/>
<text text-anchor="middle" x="520.41" y="-144.8" font-family="Helvetica,sans-Serif" font-size="14.00">6. Process query</text>
</g>
<!-- RAG&#45;&gt;Sec -->
<g id="edge14" class="edge">
<title>RAG&#45;&gt;Sec</title>
<path fill="none" stroke="black" d="M358.17,-123.01C356.48,-136.74 354.3,-156.58 353.41,-174 352.59,-189.98 352.49,-194.03 353.41,-210 354.18,-223.41 355.8,-238.21 357.38,-250.65"/>
<polygon fill="black" stroke="black" points="353.95,-251.44 358.73,-260.89 360.89,-250.52 353.95,-251.44"/>
<text text-anchor="middle" x="419.41" y="-188.3" font-family="Helvetica,sans-Serif" font-size="14.00">10. Validate + encrypt</text>
</g>
<!-- DB -->
<g id="node7" class="node">
<title>DB</title>
<path fill="#ffffff" stroke="black" d="M186.91,-32.73C186.91,-34.53 160.69,-36 128.41,-36 96.13,-36 69.91,-34.53 69.91,-32.73 69.91,-32.73 69.91,-3.27 69.91,-3.27 69.91,-1.47 96.13,0 128.41,0 160.69,0 186.91,-1.47 186.91,-3.27 186.91,-3.27 186.91,-32.73 186.91,-32.73"/>
<path fill="none" stroke="black" d="M186.91,-32.73C186.91,-30.92 160.69,-29.45 128.41,-29.45 96.13,-29.45 69.91,-30.92 69.91,-32.73"/>
<text text-anchor="middle" x="128.41" y="-14.3" font-family="Helvetica,sans-Serif" font-size="14.00">Vector Database</text>
</g>
<!-- RAG&#45;&gt;DB -->
<g id="edge8" class="edge">
<title>RAG&#45;&gt;DB</title>
<path fill="none" stroke="black" d="M312.07,-102.75C219.94,-99.87 26.54,-91.23 6.41,-69 -14.54,-45.88 21.41,-33.2 59.61,-26.4"/>
<polygon fill="black" stroke="black" points="60.56,-29.79 69.86,-24.72 59.43,-22.89 60.56,-29.79"/>
<text text-anchor="middle" x="81.91" y="-57.8" font-family="Helvetica,sans-Serif" font-size="14.00">7a. Retrieve embeddings</text>
</g>
<!-- KB -->
<g id="node8" class="node">
<title>KB</title>
<path fill="#ffffff" stroke="black" d="M395.41,-32.73C395.41,-34.53 368.96,-36 336.41,-36 303.85,-36 277.41,-34.53 277.41,-32.73 277.41,-32.73 277.41,-3.27 277.41,-3.27 277.41,-1.47 303.85,0 336.41,0 368.96,0 395.41,-1.47 395.41,-3.27 395.41,-3.27 395.41,-32.73 395.41,-32.73"/>
<path fill="none" stroke="black" d="M395.41,-32.73C395.41,-30.92 368.96,-29.45 336.41,-29.45 303.85,-29.45 277.41,-30.92 277.41,-32.73"/>
<text text-anchor="middle" x="336.41" y="-14.3" font-family="Helvetica,sans-Serif" font-size="14.00">Knowledge Base</text>
</g>
<!-- RAG&#45;&gt;KB -->
<g id="edge9" class="edge">
<title>RAG&#45;&gt;KB</title>
<path fill="none" stroke="black" d="M312.2,-90.74C302,-85.63 292.49,-78.61 286.41,-69 280.3,-59.36 285.23,-50.12 293.97,-42.28"/>
<polygon fill="black" stroke="black" points="296.29,-44.91 302.06,-36.03 292.01,-39.37 296.29,-44.91"/>
<text text-anchor="middle" x="349.91" y="-57.8" font-family="Helvetica,sans-Serif" font-size="14.00">7b. Fetch documents</text>
</g>
<!-- LM -->
<g id="node9" class="node">
<title>LM</title>
<path fill="#4caf50" stroke="black" d="M679.41,-36C679.41,-36 585.41,-36 585.41,-36 579.41,-36 573.41,-30 573.41,-24 573.41,-24 573.41,-12 573.41,-12 573.41,-6 579.41,0 585.41,0 585.41,0 679.41,0 679.41,0 685.41,0 691.41,-6 691.41,-12 691.41,-12 691.41,-24 691.41,-24 691.41,-30 685.41,-36 679.41,-36"/>
<text text-anchor="middle" x="632.41" y="-14.3" font-family="Helvetica,sans-Serif" font-size="14.00" fill="white">Language Model</text>
</g>
<!-- RAG&#45;&gt;LM -->
<g id="edge12" class="edge">
<title>RAG&#45;&gt;LM</title>
<path fill="none" stroke="black" d="M408.52,-95.35C439.19,-89.28 479.57,-80.24 514.41,-69 528.13,-64.57 558.19,-51.82 584.54,-40.3"/>
<polygon fill="black" stroke="black" points="586.29,-43.35 594.04,-36.13 583.48,-36.94 586.29,-43.35"/>
<text text-anchor="middle" x="620.91" y="-57.8" font-family="Helvetica,sans-Serif" font-size="14.00">8. Generate w/ context</text>
</g>
<!-- DB&#45;&gt;RAG -->
<g id="edge10" class="edge">
<title>DB&#45;&gt;RAG</title>
<path fill="none" stroke="black" stroke-dasharray="5,2" d="M147.28,-36.02C160.44,-47.01 178.9,-60.75 197.41,-69 230.45,-83.73 270.07,-92.42 301.98,-97.45"/>
<polygon fill="black" stroke="black" points="301.65,-100.94 312.05,-98.96 302.68,-94.02 301.65,-100.94"/>
<text text-anchor="middle" x="238.91" y="-57.8" font-family="Helvetica,sans-Serif" font-size="14.00">Top&#45;K vectors</text>
</g>
<!-- KB&#45;&gt;RAG -->
<g id="edge11" class="edge">
<title>KB&#45;&gt;RAG</title>
<path fill="none" stroke="black" stroke-dasharray="5,2" d="M392.02,-34.75C400.5,-39.58 408.16,-45.85 413.41,-54 419.73,-63.82 414.6,-73.06 405.46,-80.86"/>
<polygon fill="black" stroke="black" points="403.38,-78.04 397.4,-86.79 407.53,-83.68 403.38,-78.04"/>
<text text-anchor="middle" x="463.41" y="-57.8" font-family="Helvetica,sans-Serif" font-size="14.00">Related context</text>
</g>
<!-- LM&#45;&gt;RAG -->
<g id="edge13" class="edge">
<title>LM&#45;&gt;RAG</title>
<path fill="none" stroke="black" stroke-dasharray="5,2" d="M672.76,-36.07C688.8,-45.22 701.17,-57.04 690.41,-69 672.6,-88.8 508.41,-98.25 418.55,-101.98"/>
<polygon fill="black" stroke="black" points="418.35,-98.49 408.5,-102.39 418.64,-105.48 418.35,-98.49"/>
<text text-anchor="middle" x="733.41" y="-57.8" font-family="Helvetica,sans-Serif" font-size="14.00">9. Response</text>
</g>
</g>
</svg>
