<?xml version="1.0" encoding="UTF-8" standalone="no"?>
<!DOCTYPE svg PUBLIC "-//W3C//DTD SVG 1.1//EN"
 "http://www.w3.org/Graphics/SVG/1.1/DTD/svg11.dtd">
<!-- Generated by graphviz version 2.43.0 (0)
 -->
<!-- Title: DeploymentArchitecture Pages: 1 -->
<svg width="1295pt" height="549pt"
 viewBox="0.00 0.00 1295.00 549.00" xmlns="http://www.w3.org/2000/svg" xmlns:xlink="http://www.w3.org/1999/xlink">
<g id="graph0" class="graph" transform="scale(1 1) rotate(0) translate(4 545)">
<title>DeploymentArchitecture</title>
<polygon fill="white" stroke="transparent" points="-4,4 -4,-545 1291,-545 1291,4 -4,4"/>
<text text-anchor="middle" x="643.5" y="-525.8" font-family="Helvetica,sans-Serif" font-size="14.00">PathfinderLM — Deployment Architecture (Ubuntu 22.04 Bare&#45;Metal)</text>
<g id="clust1" class="cluster">
<title>cluster_server</title>
<polygon fill="#eceff1" stroke="#eceff1" points="8,-8 8,-474 1279,-474 1279,-8 8,-8"/>
<text text-anchor="middle" x="643.5" y="-458.8" font-family="Helvetica,sans-Serif" font-size="14.00">Ubuntu 22.04 Bare&#45;Metal Server</text>
</g>
<g id="clust2" class="cluster">
<title>cluster_docker</title>
<polygon fill="#e0f2f1" stroke="#e0f2f1" points="574,-16 574,-288 1271,-288 1271,-16 574,-16"/>
<text text-anchor="middle" x="922.5" y="-272.8" font-family="Helvetica,sans-Serif" font-size="14.00">Docker Environment</text>
</g>
<g id="clust3" class="cluster">
<title>cluster_appc</title>
<polygon fill="#e8f5e9" stroke="#e8f5e9" points="763,-180 763,-257 1110,-257 1110,-180 763,-180"/>
<text text-anchor="middle" x="936.5" y="-241.8" font-family="Helvetica,sans-Serif" font-size="14.00">Application Container</text>
</g>
<g id="clust4" class="cluster">
<title>cluster_dbc</title>
<polygon fill="#e3f2fd" stroke="#e3f2fd" points="763,-97 763,-172 1095,-172 1095,-97 763,-97"/>
<text text-anchor="middle" x="929" y="-156.8" font-family="Helvetica,sans-Serif" font-size="14.00">Database Container</text>
</g>
<g id="clust5" class="cluster">
<title>cluster_aimlc</title>
<polygon fill="#fff3e0" stroke="#fff3e0" points="582,-24 582,-257 755,-257 755,-24 582,-24"/>
<text text-anchor="middle" x="668.5" y="-241.8" font-family="Helvetica,sans-Serif" font-size="14.00">Ollama Container (0.22.1)</text>
</g>
<g id="clust6" class="cluster">
<title>cluster_monc</title>
<polygon fill="#f3e5f5" stroke="#f3e5f5" points="1103,-24 1103,-172 1263,-172 1263,-24 1103,-24"/>
<text text-anchor="middle" x="1183" y="-156.8" font-family="Helvetica,sans-Serif" font-size="14.00">Monitoring Container</text>
</g>
<g id="clust7" class="cluster">
<title>cluster_sys</title>
<polygon fill="#fffde7" stroke="#fffde7" points="272,-296 272,-443 555,-443 555,-296 272,-296"/>
<text text-anchor="middle" x="413.5" y="-427.8" font-family="Helvetica,sans-Serif" font-size="14.00">System Layer</text>
</g>
<g id="clust8" class="cluster">
<title>cluster_hw</title>
<polygon fill="#cfd8dc" stroke="#cfd8dc" points="16,-180 16,-257 566,-257 566,-180 16,-180"/>
<text text-anchor="middle" x="291" y="-241.8" font-family="Helvetica,sans-Serif" font-size="14.00">Hardware</text>
</g>
<!-- Internet -->
<g id="node1" class="node">
<title>Internet</title>
<ellipse fill="#cfd8dc" stroke="black" cx="341" cy="-500" rx="40.09" ry="18"/>
<text text-anchor="middle" x="341" y="-496.3" font-family="Helvetica,sans-Serif" font-size="14.00">Internet</text>
</g>
<!-- Firewall -->
<g id="node15" class="node">
<title>Firewall</title>
<path fill="#ffffff" stroke="black" d="M504,-412C504,-412 430,-412 430,-412 424,-412 418,-406 418,-400 418,-400 418,-388 418,-388 418,-382 424,-376 430,-376 430,-376 504,-376 504,-376 510,-376 516,-382 516,-388 516,-388 516,-400 516,-400 516,-406 510,-412 504,-412"/>
<text text-anchor="middle" x="467" y="-390.3" font-family="Helvetica,sans-Serif" font-size="14.00">UFW Firewall</text>
</g>
<!-- Internet&#45;&gt;Firewall -->
<g id="edge1" class="edge">
<title>Internet&#45;&gt;Firewall</title>
<path fill="none" stroke="black" d="M370.47,-487.54C378.46,-483.8 386.86,-479.23 394,-474 414.65,-458.86 434.12,-437.28 447.75,-420.5"/>
<polygon fill="black" stroke="black" points="450.84,-422.23 454.32,-412.22 445.36,-417.87 450.84,-422.23"/>
</g>
<!-- Admin -->
<g id="node2" class="node">
<title>Admin</title>
<ellipse fill="#cfd8dc" stroke="black" cx="468" cy="-500" rx="68.49" ry="18"/>
<text text-anchor="middle" x="468" y="-496.3" font-family="Helvetica,sans-Serif" font-size="14.00">System Admin</text>
</g>
<!-- SSH -->
<g id="node16" class="node">
<title>SSH</title>
<path fill="#ffffff" stroke="black" d="M373,-412C373,-412 309,-412 309,-412 303,-412 297,-406 297,-400 297,-400 297,-388 297,-388 297,-382 303,-376 309,-376 309,-376 373,-376 373,-376 379,-376 385,-382 385,-388 385,-388 385,-400 385,-400 385,-406 379,-412 373,-412"/>
<text text-anchor="middle" x="341" y="-390.3" font-family="Helvetica,sans-Serif" font-size="14.00">SSH Server</text>
</g>
<!-- Admin&#45;&gt;SSH -->
<g id="edge15" class="edge">
<title>Admin&#45;&gt;SSH</title>
<path fill="none" stroke="black" d="M428.54,-485.28C421.73,-482.09 414.93,-478.33 409,-474 388.83,-459.28 370.66,-437.49 358.18,-420.51"/>
<polygon fill="black" stroke="black" points="360.86,-418.24 352.19,-412.14 355.16,-422.31 360.86,-418.24"/>
</g>
<!-- Flask -->
<g id="node3" class="node">
<title>Flask</title>
<path fill="#ffffff" stroke="black" d="M1089.5,-226C1089.5,-226 1036.5,-226 1036.5,-226 1030.5,-226 1024.5,-220 1024.5,-214 1024.5,-214 1024.5,-200 1024.5,-200 1024.5,-194 1030.5,-188 1036.5,-188 1036.5,-188 1089.5,-188 1089.5,-188 1095.5,-188 1101.5,-194 1101.5,-200 1101.5,-200 1101.5,-214 1101.5,-214 1101.5,-220 1095.5,-226 1089.5,-226"/>
<text text-anchor="middle" x="1063" y="-210.8" font-family="Helvetica,sans-Serif" font-size="14.00">Flask App</text>
<text text-anchor="middle" x="1063" y="-195.8" font-family="Helvetica,sans-Serif" font-size="14.00">Port 5000</text>
</g>
<!-- VectorDB -->
<g id="node6" class="node">
<title>VectorDB</title>
<path fill="#ffffff" stroke="black" d="M1087,-137.73C1087,-139.53 1056.97,-141 1020,-141 983.03,-141 953,-139.53 953,-137.73 953,-137.73 953,-108.27 953,-108.27 953,-106.47 983.03,-105 1020,-105 1056.97,-105 1087,-106.47 1087,-108.27 1087,-108.27 1087,-137.73 1087,-137.73"/>
<path fill="none" stroke="black" d="M1087,-137.73C1087,-135.92 1056.97,-134.45 1020,-134.45 983.03,-134.45 953,-135.92 953,-137.73"/>
<text text-anchor="middle" x="1020" y="-119.3" font-family="Helvetica,sans-Serif" font-size="14.00">FAISS Vector Store</text>
</g>
<!-- Flask&#45;&gt;VectorDB -->
<g id="edge4" class="edge">
<title>Flask&#45;&gt;VectorDB</title>
<path fill="none" stroke="black" d="M1053.46,-187.8C1047.62,-176.67 1040.06,-162.26 1033.6,-149.94"/>
<polygon fill="black" stroke="black" points="1036.67,-148.26 1028.93,-141.03 1030.47,-151.51 1036.67,-148.26"/>
</g>
<!-- UserDB -->
<g id="node7" class="node">
<title>UserDB</title>
<path fill="#ffffff" stroke="black" d="M935,-137.73C935,-139.53 898.25,-141 853,-141 807.75,-141 771,-139.53 771,-137.73 771,-137.73 771,-108.27 771,-108.27 771,-106.47 807.75,-105 853,-105 898.25,-105 935,-106.47 935,-108.27 935,-108.27 935,-137.73 935,-137.73"/>
<path fill="none" stroke="black" d="M935,-137.73C935,-135.92 898.25,-134.45 853,-134.45 807.75,-134.45 771,-135.92 771,-137.73"/>
<text text-anchor="middle" x="853" y="-119.3" font-family="Helvetica,sans-Serif" font-size="14.00">User Data (PostgreSQL)</text>
</g>
<!-- Flask&#45;&gt;UserDB -->
<g id="edge5" class="edge">
<title>Flask&#45;&gt;UserDB</title>
<path fill="none" stroke="black" d="M1033.83,-187.92C1027.79,-184.83 1021.33,-181.99 1015,-180 984.7,-170.48 974.35,-181.35 944,-172 924.41,-165.97 904.1,-155.7 887.65,-146.2"/>
<polygon fill="black" stroke="black" points="889.32,-143.13 878.94,-141.04 885.76,-149.15 889.32,-143.13"/>
</g>
<!-- OllamaRT -->
<g id="node9" class="node">
<title>OllamaRT</title>
<path fill="#ffffff" stroke="black" d="M727,-142C727,-142 633,-142 633,-142 627,-142 621,-136 621,-130 621,-130 621,-116 621,-116 621,-110 627,-104 633,-104 633,-104 727,-104 727,-104 733,-104 739,-110 739,-116 739,-116 739,-130 739,-130 739,-136 733,-142 727,-142"/>
<text text-anchor="middle" x="680" y="-126.8" font-family="Helvetica,sans-Serif" font-size="14.00">Ollama Runtime</text>
<text text-anchor="middle" x="680" y="-111.8" font-family="Helvetica,sans-Serif" font-size="14.00">deepseek&#45;r1:14b</text>
</g>
<!-- Flask&#45;&gt;OllamaRT -->
<g id="edge6" class="edge">
<title>Flask&#45;&gt;OllamaRT</title>
<path fill="none" stroke="black" d="M1034.72,-187.9C1028.45,-184.69 1021.68,-181.8 1015,-180 960.05,-165.16 813.56,-188.2 759,-172 741.93,-166.93 724.81,-157.24 710.9,-147.88"/>
<polygon fill="black" stroke="black" points="712.88,-145 702.68,-142.14 708.88,-150.74 712.88,-145"/>
</g>
<!-- Prometheus -->
<g id="node11" class="node">
<title>Prometheus</title>
<path fill="#ffffff" stroke="black" d="M1238,-141C1238,-141 1124,-141 1124,-141 1118,-141 1112,-135 1112,-129 1112,-129 1112,-117 1112,-117 1112,-111 1118,-105 1124,-105 1124,-105 1238,-105 1238,-105 1244,-105 1250,-111 1250,-117 1250,-117 1250,-129 1250,-129 1250,-135 1244,-141 1238,-141"/>
<text text-anchor="middle" x="1181" y="-119.3" font-family="Helvetica,sans-Serif" font-size="14.00">Prometheus Metrics</text>
</g>
<!-- Flask&#45;&gt;Prometheus -->
<g id="edge9" class="edge">
<title>Flask&#45;&gt;Prometheus</title>
<path fill="none" stroke="black" d="M1089.19,-187.8C1106.62,-175.69 1129.65,-159.69 1148.28,-146.74"/>
<polygon fill="black" stroke="black" points="1150.28,-149.61 1156.5,-141.03 1146.29,-143.86 1150.28,-149.61"/>
</g>
<!-- Routes -->
<g id="node4" class="node">
<title>Routes</title>
<path fill="#ffffff" stroke="black" d="M994,-225C994,-225 908,-225 908,-225 902,-225 896,-219 896,-213 896,-213 896,-201 896,-201 896,-195 902,-189 908,-189 908,-189 994,-189 994,-189 1000,-189 1006,-195 1006,-201 1006,-201 1006,-213 1006,-213 1006,-219 1000,-225 994,-225"/>
<text text-anchor="middle" x="951" y="-203.3" font-family="Helvetica,sans-Serif" font-size="14.00">Route Handlers</text>
</g>
<!-- Models -->
<g id="node5" class="node">
<title>Models</title>
<path fill="#ffffff" stroke="black" d="M865.5,-225C865.5,-225 782.5,-225 782.5,-225 776.5,-225 770.5,-219 770.5,-213 770.5,-213 770.5,-201 770.5,-201 770.5,-195 776.5,-189 782.5,-189 782.5,-189 865.5,-189 865.5,-189 871.5,-189 877.5,-195 877.5,-201 877.5,-201 877.5,-213 877.5,-213 877.5,-219 871.5,-225 865.5,-225"/>
<text text-anchor="middle" x="824" y="-203.3" font-family="Helvetica,sans-Serif" font-size="14.00">Model Loaders</text>
</g>
<!-- GPU -->
<g id="node8" class="node">
<title>GPU</title>
<path fill="#ffffff" stroke="black" d="M735.5,-68C735.5,-68 610.5,-68 610.5,-68 604.5,-68 598.5,-62 598.5,-56 598.5,-56 598.5,-44 598.5,-44 598.5,-38 604.5,-32 610.5,-32 610.5,-32 735.5,-32 735.5,-32 741.5,-32 747.5,-38 747.5,-44 747.5,-44 747.5,-56 747.5,-56 747.5,-62 741.5,-68 735.5,-68"/>
<text text-anchor="middle" x="673" y="-46.3" font-family="Helvetica,sans-Serif" font-size="14.00">GPU Support (CUDA)</text>
</g>
<!-- OllamaRT&#45;&gt;GPU -->
<g id="edge7" class="edge">
<title>OllamaRT&#45;&gt;GPU</title>
<path fill="none" stroke="black" d="M678.2,-103.72C677.43,-95.89 676.51,-86.59 675.66,-77.99"/>
<polygon fill="black" stroke="black" points="679.14,-77.61 674.68,-68 672.17,-78.3 679.14,-77.61"/>
</g>
<!-- OpenClaw -->
<g id="node10" class="node">
<title>OpenClaw</title>
<path fill="#ffffff" stroke="black" d="M712.5,-226C712.5,-226 647.5,-226 647.5,-226 641.5,-226 635.5,-220 635.5,-214 635.5,-214 635.5,-200 635.5,-200 635.5,-194 641.5,-188 647.5,-188 647.5,-188 712.5,-188 712.5,-188 718.5,-188 724.5,-194 724.5,-200 724.5,-200 724.5,-214 724.5,-214 724.5,-220 718.5,-226 712.5,-226"/>
<text text-anchor="middle" x="680" y="-210.8" font-family="Helvetica,sans-Serif" font-size="14.00">OpenClaw</text>
<text text-anchor="middle" x="680" y="-195.8" font-family="Helvetica,sans-Serif" font-size="14.00">Agent Layer</text>
</g>
<!-- OpenClaw&#45;&gt;OllamaRT -->
<g id="edge8" class="edge">
<title>OpenClaw&#45;&gt;OllamaRT</title>
<path fill="none" stroke="black" d="M680,-187.8C680,-177.4 680,-164.12 680,-152.38"/>
<polygon fill="black" stroke="black" points="683.5,-152.15 680,-142.15 676.5,-152.15 683.5,-152.15"/>
</g>
<!-- Grafana -->
<g id="node12" class="node">
<title>Grafana</title>
<path fill="#ffffff" stroke="black" d="M1242.5,-68C1242.5,-68 1123.5,-68 1123.5,-68 1117.5,-68 1111.5,-62 1111.5,-56 1111.5,-56 1111.5,-44 1111.5,-44 1111.5,-38 1117.5,-32 1123.5,-32 1123.5,-32 1242.5,-32 1242.5,-32 1248.5,-32 1254.5,-38 1254.5,-44 1254.5,-44 1254.5,-56 1254.5,-56 1254.5,-62 1248.5,-68 1242.5,-68"/>
<text text-anchor="middle" x="1183" y="-46.3" font-family="Helvetica,sans-Serif" font-size="14.00">Grafana Dashboards</text>
</g>
<!-- Prometheus&#45;&gt;Grafana -->
<g id="edge10" class="edge">
<title>Prometheus&#45;&gt;Grafana</title>
<path fill="none" stroke="black" d="M1181.48,-104.81C1181.71,-96.79 1181.98,-87.05 1182.24,-78.07"/>
<polygon fill="black" stroke="black" points="1185.74,-78.12 1182.52,-68.03 1178.74,-77.93 1185.74,-78.12"/>
</g>
<!-- Docker -->
<g id="node13" class="node">
<title>Docker</title>
<path fill="#ffffff" stroke="black" d="M373.5,-340C373.5,-340 292.5,-340 292.5,-340 286.5,-340 280.5,-334 280.5,-328 280.5,-328 280.5,-316 280.5,-316 280.5,-310 286.5,-304 292.5,-304 292.5,-304 373.5,-304 373.5,-304 379.5,-304 385.5,-310 385.5,-316 385.5,-316 385.5,-328 385.5,-328 385.5,-334 379.5,-340 373.5,-340"/>
<text text-anchor="middle" x="333" y="-318.3" font-family="Helvetica,sans-Serif" font-size="14.00">Docker Engine</text>
</g>
<!-- CPU -->
<g id="node17" class="node">
<title>CPU</title>
<path fill="#ffffff" stroke="black" d="M545.5,-226C545.5,-226 426.5,-226 426.5,-226 420.5,-226 414.5,-220 414.5,-214 414.5,-214 414.5,-200 414.5,-200 414.5,-194 420.5,-188 426.5,-188 426.5,-188 545.5,-188 545.5,-188 551.5,-188 557.5,-194 557.5,-200 557.5,-200 557.5,-214 557.5,-214 557.5,-220 551.5,-226 545.5,-226"/>
<text text-anchor="middle" x="486" y="-210.8" font-family="Helvetica,sans-Serif" font-size="14.00">AMD Ryzen 9 5950X</text>
<text text-anchor="middle" x="486" y="-195.8" font-family="Helvetica,sans-Serif" font-size="14.00">16&#45;Core</text>
</g>
<!-- Docker&#45;&gt;CPU -->
<g id="edge11" class="edge">
<title>Docker&#45;&gt;CPU</title>
<path fill="none" stroke="black" d="M376.6,-303.99C386.3,-299.4 396.29,-294.02 405,-288 427.22,-272.65 448.8,-250.9 464.09,-233.95"/>
<polygon fill="black" stroke="black" points="467.06,-235.87 471.06,-226.06 461.82,-231.23 467.06,-235.87"/>
</g>
<!-- GPUHard -->
<g id="node18" class="node">
<title>GPUHard</title>
<path fill="#ffffff" stroke="black" d="M384,-225C384,-225 282,-225 282,-225 276,-225 270,-219 270,-213 270,-213 270,-201 270,-201 270,-195 276,-189 282,-189 282,-189 384,-189 384,-189 390,-189 396,-195 396,-201 396,-201 396,-213 396,-213 396,-219 390,-225 384,-225"/>
<text text-anchor="middle" x="333" y="-203.3" font-family="Helvetica,sans-Serif" font-size="14.00">NVIDIA RTX 3060</text>
</g>
<!-- Docker&#45;&gt;GPUHard -->
<g id="edge12" class="edge">
<title>Docker&#45;&gt;GPUHard</title>
<path fill="none" stroke="black" d="M333,-303.84C333,-285.67 333,-256.72 333,-235.39"/>
<polygon fill="black" stroke="black" points="336.5,-235.32 333,-225.32 329.5,-235.32 336.5,-235.32"/>
</g>
<!-- RAM -->
<g id="node19" class="node">
<title>RAM</title>
<path fill="#ffffff" stroke="black" d="M240,-225C240,-225 170,-225 170,-225 164,-225 158,-219 158,-213 158,-213 158,-201 158,-201 158,-195 164,-189 170,-189 170,-189 240,-189 240,-189 246,-189 252,-195 252,-201 252,-201 252,-213 252,-213 252,-219 246,-225 240,-225"/>
<text text-anchor="middle" x="205" y="-203.3" font-family="Helvetica,sans-Serif" font-size="14.00">128GB RAM</text>
</g>
<!-- Docker&#45;&gt;RAM -->
<g id="edge13" class="edge">
<title>Docker&#45;&gt;RAM</title>
<path fill="none" stroke="black" d="M285.91,-303.81C277.13,-299.42 268.39,-294.16 261,-288 243.2,-273.16 228.44,-251.36 218.55,-234.26"/>
<polygon fill="black" stroke="black" points="221.5,-232.36 213.57,-225.32 215.38,-235.76 221.5,-232.36"/>
</g>
<!-- Storage -->
<g id="node20" class="node">
<title>Storage</title>
<path fill="#ffffff" stroke="black" d="M127.5,-225C127.5,-225 36.5,-225 36.5,-225 30.5,-225 24.5,-219 24.5,-213 24.5,-213 24.5,-201 24.5,-201 24.5,-195 30.5,-189 36.5,-189 36.5,-189 127.5,-189 127.5,-189 133.5,-189 139.5,-195 139.5,-201 139.5,-201 139.5,-213 139.5,-213 139.5,-219 133.5,-225 127.5,-225"/>
<text text-anchor="middle" x="82" y="-203.3" font-family="Helvetica,sans-Serif" font-size="14.00">1TB NVMe SSD</text>
</g>
<!-- Docker&#45;&gt;Storage -->
<g id="edge14" class="edge">
<title>Docker&#45;&gt;Storage</title>
<path fill="none" stroke="black" d="M280.16,-320.97C241.49,-318.8 189.01,-311.2 149,-288 126.85,-275.15 108.73,-252.1 96.95,-234.03"/>
<polygon fill="black" stroke="black" points="99.64,-231.74 91.37,-225.12 93.71,-235.45 99.64,-231.74"/>
</g>
<!-- Nginx -->
<g id="node14" class="node">
<title>Nginx</title>
<path fill="#ffffff" stroke="black" d="M534.5,-340C534.5,-340 415.5,-340 415.5,-340 409.5,-340 403.5,-334 403.5,-328 403.5,-328 403.5,-316 403.5,-316 403.5,-310 409.5,-304 415.5,-304 415.5,-304 534.5,-304 534.5,-304 540.5,-304 546.5,-310 546.5,-316 546.5,-316 546.5,-328 546.5,-328 546.5,-334 540.5,-340 534.5,-340"/>
<text text-anchor="middle" x="475" y="-318.3" font-family="Helvetica,sans-Serif" font-size="14.00">Nginx Reverse Proxy</text>
</g>
<!-- Nginx&#45;&gt;Flask -->
<g id="edge3" class="edge">
<title>Nginx&#45;&gt;Flask</title>
<path fill="none" stroke="black" d="M546.76,-320.31C684.53,-318.44 975.96,-311.7 1015,-288 1034.16,-276.37 1046.63,-253.94 1054.04,-235.78"/>
<polygon fill="black" stroke="black" points="1057.39,-236.82 1057.66,-226.23 1050.85,-234.34 1057.39,-236.82"/>
</g>
<!-- Firewall&#45;&gt;Nginx -->
<g id="edge2" class="edge">
<title>Firewall&#45;&gt;Nginx</title>
<path fill="none" stroke="black" d="M468.98,-375.7C469.86,-367.98 470.92,-358.71 471.9,-350.11"/>
<polygon fill="black" stroke="black" points="475.39,-350.44 473.05,-340.1 468.43,-349.64 475.39,-350.44"/>
</g>
<!-- SSH&#45;&gt;Docker -->
<g id="edge16" class="edge">
<title>SSH&#45;&gt;Docker</title>
<path fill="none" stroke="black" d="M339.02,-375.7C338.14,-367.98 337.08,-358.71 336.1,-350.11"/>
<polygon fill="black" stroke="black" points="339.57,-349.64 334.95,-340.1 332.61,-350.44 339.57,-349.64"/>
</g>
</g>
</svg>
