<?xml version="1.0" encoding="UTF-8" standalone="no"?>
<!DOCTYPE svg PUBLIC "-//W3C//DTD SVG 1.1//EN"
 "http://www.w3.org/Graphics/SVG/1.1/DTD/svg11.dtd">
<!-- Generated by graphviz version 2.43.0 (0)
 -->
<!-- Title: DeploymentArchitecture Pages: 1 -->
<svg width="1458pt" height="548pt"
 viewBox="0.00 0.00 1458.00 548.00" xmlns="http://www.w3.org/2000/svg" xmlns:xlink="http://www.w3.org/1999/xlink">
<g id="graph0" class="graph" transform="scale(1 1) rotate(0) translate(4 544)">
<title>DeploymentArchitecture</title>
<polygon fill="white" stroke="transparent" points="-4,4 -4,-544 1454,-544 1454,4 -4,4"/>
<text text-anchor="middle" x="725" y="-524.8" font-family="Helvetica,sans-Serif" font-size="14.00">PathfinderLM — Deployment Architecture (Ubuntu 22.04 Bare&#45;Metal)</text>
<g id="clust1" class="cluster">
<title>cluster_server</title>
<polygon fill="#eceff1" stroke="#eceff1" points="8,-8 8,-473 1442,-473 1442,-8 8,-8"/>
<text text-anchor="middle" x="725" y="-457.8" font-family="Helvetica,sans-Serif" font-size="14.00">Ubuntu 22.04 Bare&#45;Metal Server</text>
</g>
<g id="clust2" class="cluster">
<title>cluster_docker</title>
<polygon fill="#e0f2f1" stroke="#e0f2f1" points="574,-16 574,-287 1434,-287 1434,-16 574,-16"/>
<text text-anchor="middle" x="1004" y="-271.8" font-family="Helvetica,sans-Serif" font-size="14.00">Docker Environment</text>
</g>
<g id="clust3" class="cluster">
<title>cluster_appc</title>
<polygon fill="#e8f5e9" stroke="#e8f5e9" points="582,-179 582,-256 929,-256 929,-179 582,-179"/>
<text text-anchor="middle" x="755.5" y="-240.8" font-family="Helvetica,sans-Serif" font-size="14.00">Application Container</text>
</g>
<g id="clust4" class="cluster">
<title>cluster_dbc</title>
<polygon fill="#e3f2fd" stroke="#e3f2fd" points="582,-96 582,-171 914,-171 914,-96 582,-96"/>
<text text-anchor="middle" x="748" y="-155.8" font-family="Helvetica,sans-Serif" font-size="14.00">Database Container</text>
</g>
<g id="clust5" class="cluster">
<title>cluster_aimlc</title>
<polygon fill="#fff3e0" stroke="#fff3e0" points="922,-24 922,-171 1258,-171 1258,-24 922,-24"/>
<text text-anchor="middle" x="1090" y="-155.8" font-family="Helvetica,sans-Serif" font-size="14.00">AI/ML Container</text>
</g>
<g id="clust6" class="cluster">
<title>cluster_monc</title>
<polygon fill="#f3e5f5" stroke="#f3e5f5" points="1266,-24 1266,-171 1426,-171 1426,-24 1266,-24"/>
<text text-anchor="middle" x="1346" y="-155.8" font-family="Helvetica,sans-Serif" font-size="14.00">Monitoring Container</text>
</g>
<g id="clust7" class="cluster">
<title>cluster_sys</title>
<polygon fill="#fffde7" stroke="#fffde7" points="272,-295 272,-442 555,-442 555,-295 272,-295"/>
<text text-anchor="middle" x="413.5" y="-426.8" font-family="Helvetica,sans-Serif" font-size="14.00">System Layer</text>
</g>
<g id="clust8" class="cluster">
<title>cluster_hw</title>
<polygon fill="#cfd8dc" stroke="#cfd8dc" points="16,-179 16,-256 566,-256 566,-179 16,-179"/>
<text text-anchor="middle" x="291" y="-240.8" font-family="Helvetica,sans-Serif" font-size="14.00">Hardware</text>
</g>
<!-- Internet -->
<g id="node1" class="node">
<title>Internet</title>
<ellipse fill="#cfd8dc" stroke="black" cx="341" cy="-499" rx="40.09" ry="18"/>
<text text-anchor="middle" x="341" y="-495.3" font-family="Helvetica,sans-Serif" font-size="14.00">Internet</text>
</g>
<!-- Firewall -->
<g id="node15" class="node">
<title>Firewall</title>
<path fill="#ffffff" stroke="black" d="M504,-411C504,-411 430,-411 430,-411 424,-411 418,-405 418,-399 418,-399 418,-387 418,-387 418,-381 424,-375 430,-375 430,-375 504,-375 504,-375 510,-375 516,-381 516,-387 516,-387 516,-399 516,-399 516,-405 510,-411 504,-411"/>
<text text-anchor="middle" x="467" y="-389.3" font-family="Helvetica,sans-Serif" font-size="14.00">UFW Firewall</text>
</g>
<!-- Internet&#45;&gt;Firewall -->
<g id="edge1" class="edge">
<title>Internet&#45;&gt;Firewall</title>
<path fill="none" stroke="black" d="M370.47,-486.54C378.46,-482.8 386.86,-478.23 394,-473 414.65,-457.86 434.12,-436.28 447.75,-419.5"/>
<polygon fill="black" stroke="black" points="450.84,-421.23 454.32,-411.22 445.36,-416.87 450.84,-421.23"/>
</g>
<!-- Admin -->
<g id="node2" class="node">
<title>Admin</title>
<ellipse fill="#cfd8dc" stroke="black" cx="468" cy="-499" rx="68.49" ry="18"/>
<text text-anchor="middle" x="468" y="-495.3" font-family="Helvetica,sans-Serif" font-size="14.00">System Admin</text>
</g>
<!-- SSH -->
<g id="node16" class="node">
<title>SSH</title>
<path fill="#ffffff" stroke="black" d="M373,-411C373,-411 309,-411 309,-411 303,-411 297,-405 297,-399 297,-399 297,-387 297,-387 297,-381 303,-375 309,-375 309,-375 373,-375 373,-375 379,-375 385,-381 385,-387 385,-387 385,-399 385,-399 385,-405 379,-411 373,-411"/>
<text text-anchor="middle" x="341" y="-389.3" font-family="Helvetica,sans-Serif" font-size="14.00">SSH Server</text>
</g>
<!-- Admin&#45;&gt;SSH -->
<g id="edge15" class="edge">
<title>Admin&#45;&gt;SSH</title>
<path fill="none" stroke="black" d="M428.54,-484.28C421.73,-481.09 414.93,-477.33 409,-473 388.83,-458.28 370.66,-436.49 358.18,-419.51"/>
<polygon fill="black" stroke="black" points="360.86,-417.24 352.19,-411.14 355.16,-421.31 360.86,-417.24"/>
</g>
<!-- Flask -->
<g id="node3" class="node">
<title>Flask</title>
<path fill="#ffffff" stroke="black" d="M908.5,-225C908.5,-225 855.5,-225 855.5,-225 849.5,-225 843.5,-219 843.5,-213 843.5,-213 843.5,-199 843.5,-199 843.5,-193 849.5,-187 855.5,-187 855.5,-187 908.5,-187 908.5,-187 914.5,-187 920.5,-193 920.5,-199 920.5,-199 920.5,-213 920.5,-213 920.5,-219 914.5,-225 908.5,-225"/>
<text text-anchor="middle" x="882" y="-209.8" font-family="Helvetica,sans-Serif" font-size="14.00">Flask App</text>
<text text-anchor="middle" x="882" y="-194.8" font-family="Helvetica,sans-Serif" font-size="14.00">Port 5000</text>
</g>
<!-- VectorDB -->
<g id="node6" class="node">
<title>VectorDB</title>
<path fill="#ffffff" stroke="black" d="M906,-136.73C906,-138.53 875.97,-140 839,-140 802.03,-140 772,-138.53 772,-136.73 772,-136.73 772,-107.27 772,-107.27 772,-105.47 802.03,-104 839,-104 875.97,-104 906,-105.47 906,-107.27 906,-107.27 906,-136.73 906,-136.73"/>
<path fill="none" stroke="black" d="M906,-136.73C906,-134.92 875.97,-133.45 839,-133.45 802.03,-133.45 772,-134.92 772,-136.73"/>
<text text-anchor="middle" x="839" y="-118.3" font-family="Helvetica,sans-Serif" font-size="14.00">FAISS Vector Store</text>
</g>
<!-- Flask&#45;&gt;VectorDB -->
<g id="edge4" class="edge">
<title>Flask&#45;&gt;VectorDB</title>
<path fill="none" stroke="black" d="M872.46,-186.8C866.62,-175.67 859.06,-161.26 852.6,-148.94"/>
<polygon fill="black" stroke="black" points="855.67,-147.26 847.93,-140.03 849.47,-150.51 855.67,-147.26"/>
</g>
<!-- UserDB -->
<g id="node7" class="node">
<title>UserDB</title>
<path fill="#ffffff" stroke="black" d="M754,-136.73C754,-138.53 717.25,-140 672,-140 626.75,-140 590,-138.53 590,-136.73 590,-136.73 590,-107.27 590,-107.27 590,-105.47 626.75,-104 672,-104 717.25,-104 754,-105.47 754,-107.27 754,-107.27 754,-136.73 754,-136.73"/>
<path fill="none" stroke="black" d="M754,-136.73C754,-134.92 717.25,-133.45 672,-133.45 626.75,-133.45 590,-134.92 590,-136.73"/>
<text text-anchor="middle" x="672" y="-118.3" font-family="Helvetica,sans-Serif" font-size="14.00">User Data (PostgreSQL)</text>
</g>
<!-- Flask&#45;&gt;UserDB -->
<g id="edge5" class="edge">
<title>Flask&#45;&gt;UserDB</title>
<path fill="none" stroke="black" d="M852.83,-186.92C846.79,-183.83 840.33,-180.99 834,-179 803.7,-169.48 793.35,-180.35 763,-171 743.41,-164.97 723.1,-154.7 706.65,-145.2"/>
<polygon fill="black" stroke="black" points="708.32,-142.13 697.94,-140.04 704.76,-148.15 708.32,-142.13"/>
</g>
<!-- PyTorch -->
<g id="node9" class="node">
<title>PyTorch</title>
<path fill="#ffffff" stroke="black" d="M1238,-140C1238,-140 1142,-140 1142,-140 1136,-140 1130,-134 1130,-128 1130,-128 1130,-116 1130,-116 1130,-110 1136,-104 1142,-104 1142,-104 1238,-104 1238,-104 1244,-104 1250,-110 1250,-116 1250,-116 1250,-128 1250,-128 1250,-134 1244,-140 1238,-140"/>
<text text-anchor="middle" x="1190" y="-118.3" font-family="Helvetica,sans-Serif" font-size="14.00">PyTorch Runtime</text>
</g>
<!-- Flask&#45;&gt;PyTorch -->
<g id="edge6" class="edge">
<title>Flask&#45;&gt;PyTorch</title>
<path fill="none" stroke="black" d="M920.64,-204.94C969.08,-203.66 1053.91,-197.37 1121,-171 1135.9,-165.14 1150.7,-155.49 1162.74,-146.38"/>
<polygon fill="black" stroke="black" points="1164.91,-149.13 1170.62,-140.2 1160.59,-143.62 1164.91,-149.13"/>
</g>
<!-- Prometheus -->
<g id="node11" class="node">
<title>Prometheus</title>
<path fill="#ffffff" stroke="black" d="M1401,-140C1401,-140 1287,-140 1287,-140 1281,-140 1275,-134 1275,-128 1275,-128 1275,-116 1275,-116 1275,-110 1281,-104 1287,-104 1287,-104 1401,-104 1401,-104 1407,-104 1413,-110 1413,-116 1413,-116 1413,-128 1413,-128 1413,-134 1407,-140 1401,-140"/>
<text text-anchor="middle" x="1344" y="-118.3" font-family="Helvetica,sans-Serif" font-size="14.00">Prometheus Metrics</text>
</g>
<!-- Flask&#45;&gt;Prometheus -->
<g id="edge9" class="edge">
<title>Flask&#45;&gt;Prometheus</title>
<path fill="none" stroke="black" d="M920.79,-203.68C1004.43,-200.48 1199.23,-191.07 1262,-171 1279.83,-165.3 1297.96,-155.23 1312.62,-145.77"/>
<polygon fill="black" stroke="black" points="1314.89,-148.47 1321.27,-140.01 1311.01,-142.64 1314.89,-148.47"/>
</g>
<!-- Routes -->
<g id="node4" class="node">
<title>Routes</title>
<path fill="#ffffff" stroke="black" d="M813,-224C813,-224 727,-224 727,-224 721,-224 715,-218 715,-212 715,-212 715,-200 715,-200 715,-194 721,-188 727,-188 727,-188 813,-188 813,-188 819,-188 825,-194 825,-200 825,-200 825,-212 825,-212 825,-218 819,-224 813,-224"/>
<text text-anchor="middle" x="770" y="-202.3" font-family="Helvetica,sans-Serif" font-size="14.00">Route Handlers</text>
</g>
<!-- Models -->
<g id="node5" class="node">
<title>Models</title>
<path fill="#ffffff" stroke="black" d="M684.5,-224C684.5,-224 601.5,-224 601.5,-224 595.5,-224 589.5,-218 589.5,-212 589.5,-212 589.5,-200 589.5,-200 589.5,-194 595.5,-188 601.5,-188 601.5,-188 684.5,-188 684.5,-188 690.5,-188 696.5,-194 696.5,-200 696.5,-200 696.5,-212 696.5,-212 696.5,-218 690.5,-224 684.5,-224"/>
<text text-anchor="middle" x="643" y="-202.3" font-family="Helvetica,sans-Serif" font-size="14.00">Model Loaders</text>
</g>
<!-- GPU -->
<g id="node8" class="node">
<title>GPU</title>
<path fill="#ffffff" stroke="black" d="M1160.5,-68C1160.5,-68 1035.5,-68 1035.5,-68 1029.5,-68 1023.5,-62 1023.5,-56 1023.5,-56 1023.5,-44 1023.5,-44 1023.5,-38 1029.5,-32 1035.5,-32 1035.5,-32 1160.5,-32 1160.5,-32 1166.5,-32 1172.5,-38 1172.5,-44 1172.5,-44 1172.5,-56 1172.5,-56 1172.5,-62 1166.5,-68 1160.5,-68"/>
<text text-anchor="middle" x="1098" y="-46.3" font-family="Helvetica,sans-Serif" font-size="14.00">GPU Support (CUDA)</text>
</g>
<!-- PyTorch&#45;&gt;GPU -->
<g id="edge7" class="edge">
<title>PyTorch&#45;&gt;GPU</title>
<path fill="none" stroke="black" d="M1167.26,-103.7C1155.56,-94.8 1141.14,-83.82 1128.49,-74.2"/>
<polygon fill="black" stroke="black" points="1130.56,-71.37 1120.48,-68.1 1126.32,-76.94 1130.56,-71.37"/>
</g>
<!-- Transformers -->
<g id="node10" class="node">
<title>Transformers</title>
<path fill="#ffffff" stroke="black" d="M1100,-140C1100,-140 942,-140 942,-140 936,-140 930,-134 930,-128 930,-128 930,-116 930,-116 930,-110 936,-104 942,-104 942,-104 1100,-104 1100,-104 1106,-104 1112,-110 1112,-116 1112,-116 1112,-128 1112,-128 1112,-134 1106,-140 1100,-140"/>
<text text-anchor="middle" x="1021" y="-118.3" font-family="Helvetica,sans-Serif" font-size="14.00">HuggingFace Transformers</text>
</g>
<!-- Transformers&#45;&gt;GPU -->
<g id="edge8" class="edge">
<title>Transformers&#45;&gt;GPU</title>
<path fill="none" stroke="black" d="M1040.03,-103.7C1049.54,-95.05 1061.21,-84.45 1071.57,-75.03"/>
<polygon fill="black" stroke="black" points="1074.14,-77.42 1079.19,-68.1 1069.43,-72.24 1074.14,-77.42"/>
</g>
<!-- Grafana -->
<g id="node12" class="node">
<title>Grafana</title>
<path fill="#ffffff" stroke="black" d="M1405.5,-68C1405.5,-68 1286.5,-68 1286.5,-68 1280.5,-68 1274.5,-62 1274.5,-56 1274.5,-56 1274.5,-44 1274.5,-44 1274.5,-38 1280.5,-32 1286.5,-32 1286.5,-32 1405.5,-32 1405.5,-32 1411.5,-32 1417.5,-38 1417.5,-44 1417.5,-44 1417.5,-56 1417.5,-56 1417.5,-62 1411.5,-68 1405.5,-68"/>
<text text-anchor="middle" x="1346" y="-46.3" font-family="Helvetica,sans-Serif" font-size="14.00">Grafana Dashboards</text>
</g>
<!-- Prometheus&#45;&gt;Grafana -->
<g id="edge10" class="edge">
<title>Prometheus&#45;&gt;Grafana</title>
<path fill="none" stroke="black" d="M1344.49,-103.7C1344.71,-95.98 1344.98,-86.71 1345.23,-78.11"/>
<polygon fill="black" stroke="black" points="1348.72,-78.2 1345.51,-68.1 1341.73,-78 1348.72,-78.2"/>
</g>
<!-- Docker -->
<g id="node13" class="node">
<title>Docker</title>
<path fill="#ffffff" stroke="black" d="M373.5,-339C373.5,-339 292.5,-339 292.5,-339 286.5,-339 280.5,-333 280.5,-327 280.5,-327 280.5,-315 280.5,-315 280.5,-309 286.5,-303 292.5,-303 292.5,-303 373.5,-303 373.5,-303 379.5,-303 385.5,-309 385.5,-315 385.5,-315 385.5,-327 385.5,-327 385.5,-333 379.5,-339 373.5,-339"/>
<text text-anchor="middle" x="333" y="-317.3" font-family="Helvetica,sans-Serif" font-size="14.00">Docker Engine</text>
</g>
<!-- CPU -->
<g id="node17" class="node">
<title>CPU</title>
<path fill="#ffffff" stroke="black" d="M545.5,-225C545.5,-225 426.5,-225 426.5,-225 420.5,-225 414.5,-219 414.5,-213 414.5,-213 414.5,-199 414.5,-199 414.5,-193 420.5,-187 426.5,-187 426.5,-187 545.5,-187 545.5,-187 551.5,-187 557.5,-193 557.5,-199 557.5,-199 557.5,-213 557.5,-213 557.5,-219 551.5,-225 545.5,-225"/>
<text text-anchor="middle" x="486" y="-209.8" font-family="Helvetica,sans-Serif" font-size="14.00">AMD Ryzen 9 5950X</text>
<text text-anchor="middle" x="486" y="-194.8" font-family="Helvetica,sans-Serif" font-size="14.00">16&#45;Core</text>
</g>
<!-- Docker&#45;&gt;CPU -->
<g id="edge11" class="edge">
<title>Docker&#45;&gt;CPU</title>
<path fill="none" stroke="black" d="M376.6,-302.99C386.3,-298.4 396.29,-293.02 405,-287 427.22,-271.65 448.8,-249.9 464.09,-232.95"/>
<polygon fill="black" stroke="black" points="467.06,-234.87 471.06,-225.06 461.82,-230.23 467.06,-234.87"/>
</g>
<!-- GPUHard -->
<g id="node18" class="node">
<title>GPUHard</title>
<path fill="#ffffff" stroke="black" d="M384,-224C384,-224 282,-224 282,-224 276,-224 270,-218 270,-212 270,-212 270,-200 270,-200 270,-194 276,-188 282,-188 282,-188 384,-188 384,-188 390,-188 396,-194 396,-200 396,-200 396,-212 396,-212 396,-218 390,-224 384,-224"/>
<text text-anchor="middle" x="333" y="-202.3" font-family="Helvetica,sans-Serif" font-size="14.00">NVIDIA RTX 3060</text>
</g>
<!-- Docker&#45;&gt;GPUHard -->
<g id="edge12" class="edge">
<title>Docker&#45;&gt;GPUHard</title>
<path fill="none" stroke="black" d="M333,-302.84C333,-284.67 333,-255.72 333,-234.39"/>
<polygon fill="black" stroke="black" points="336.5,-234.32 333,-224.32 329.5,-234.32 336.5,-234.32"/>
</g>
<!-- RAM -->
<g id="node19" class="node">
<title>RAM</title>
<path fill="#ffffff" stroke="black" d="M240,-224C240,-224 170,-224 170,-224 164,-224 158,-218 158,-212 158,-212 158,-200 158,-200 158,-194 164,-188 170,-188 170,-188 240,-188 240,-188 246,-188 252,-194 252,-200 252,-200 252,-212 252,-212 252,-218 246,-224 240,-224"/>
<text text-anchor="middle" x="205" y="-202.3" font-family="Helvetica,sans-Serif" font-size="14.00">128GB RAM</text>
</g>
<!-- Docker&#45;&gt;RAM -->
<g id="edge13" class="edge">
<title>Docker&#45;&gt;RAM</title>
<path fill="none" stroke="black" d="M285.91,-302.81C277.13,-298.42 268.39,-293.16 261,-287 243.2,-272.16 228.44,-250.36 218.55,-233.26"/>
<polygon fill="black" stroke="black" points="221.5,-231.36 213.57,-224.32 215.38,-234.76 221.5,-231.36"/>
</g>
<!-- Storage -->
<g id="node20" class="node">
<title>Storage</title>
<path fill="#ffffff" stroke="black" d="M127.5,-224C127.5,-224 36.5,-224 36.5,-224 30.5,-224 24.5,-218 24.5,-212 24.5,-212 24.5,-200 24.5,-200 24.5,-194 30.5,-188 36.5,-188 36.5,-188 127.5,-188 127.5,-188 133.5,-188 139.5,-194 139.5,-200 139.5,-200 139.5,-212 139.5,-212 139.5,-218 133.5,-224 127.5,-224"/>
<text text-anchor="middle" x="82" y="-202.3" font-family="Helvetica,sans-Serif" font-size="14.00">1TB NVMe SSD</text>
</g>
<!-- Docker&#45;&gt;Storage -->
<g id="edge14" class="edge">
<title>Docker&#45;&gt;Storage</title>
<path fill="none" stroke="black" d="M280.16,-319.97C241.49,-317.8 189.01,-310.2 149,-287 126.85,-274.15 108.73,-251.1 96.95,-233.03"/>
<polygon fill="black" stroke="black" points="99.64,-230.74 91.37,-224.12 93.71,-234.45 99.64,-230.74"/>
</g>
<!-- Nginx -->
<g id="node14" class="node">
<title>Nginx</title>
<path fill="#ffffff" stroke="black" d="M534.5,-339C534.5,-339 415.5,-339 415.5,-339 409.5,-339 403.5,-333 403.5,-327 403.5,-327 403.5,-315 403.5,-315 403.5,-309 409.5,-303 415.5,-303 415.5,-303 534.5,-303 534.5,-303 540.5,-303 546.5,-309 546.5,-315 546.5,-315 546.5,-327 546.5,-327 546.5,-333 540.5,-339 534.5,-339"/>
<text text-anchor="middle" x="475" y="-317.3" font-family="Helvetica,sans-Serif" font-size="14.00">Nginx Reverse Proxy</text>
</g>
<!-- Nginx&#45;&gt;Flask -->
<g id="edge3" class="edge">
<title>Nginx&#45;&gt;Flask</title>
<path fill="none" stroke="black" d="M546.54,-320.93C637.33,-320.85 787.7,-316.1 834,-287 852.98,-275.08 865.46,-252.67 872.93,-234.59"/>
<polygon fill="black" stroke="black" points="876.26,-235.68 876.57,-225.09 869.73,-233.18 876.26,-235.68"/>
</g>
<!-- Firewall&#45;&gt;Nginx -->
<g id="edge2" class="edge">
<title>Firewall&#45;&gt;Nginx</title>
<path fill="none" stroke="black" d="M468.98,-374.7C469.86,-366.98 470.92,-357.71 471.9,-349.11"/>
<polygon fill="black" stroke="black" points="475.39,-349.44 473.05,-339.1 468.43,-348.64 475.39,-349.44"/>
</g>
<!-- SSH&#45;&gt;Docker -->
<g id="edge16" class="edge">
<title>SSH&#45;&gt;Docker</title>
<path fill="none" stroke="black" d="M339.02,-374.7C338.14,-366.98 337.08,-357.71 336.1,-349.11"/>
<polygon fill="black" stroke="black" points="339.57,-348.64 334.95,-339.1 332.61,-349.44 339.57,-348.64"/>
</g>
</g>
</svg>
