<?xml version="1.0" encoding="UTF-8" standalone="no"?>
<!DOCTYPE svg PUBLIC "-//W3C//DTD SVG 1.1//EN"
 "http://www.w3.org/Graphics/SVG/1.1/DTD/svg11.dtd">
<!-- Generated by graphviz version 2.43.0 (0)
 -->
<!-- Title: DirectoryStructure Pages: 1 -->
<svg width="608pt" height="985pt"
 viewBox="0.00 0.00 608.00 985.00" xmlns="http://www.w3.org/2000/svg" xmlns:xlink="http://www.w3.org/1999/xlink">
<g id="graph0" class="graph" transform="scale(1 1) rotate(0) translate(4 981)">
<title>DirectoryStructure</title>
<polygon fill="white" stroke="transparent" points="-4,4 -4,-981 604,-981 604,4 -4,4"/>
<text text-anchor="middle" x="300" y="-961.8" font-family="Helvetica,sans-Serif" font-size="14.00">PathfinderLM — Directory Structure</text>
<!-- Root -->
<g id="node1" class="node">
<title>Root</title>
<polygon fill="#2196f3" stroke="black" points="95,-279 92,-283 71,-283 68,-279 0,-279 0,-243 95,-243 95,-279"/>
<text text-anchor="middle" x="47.5" y="-257.3" font-family="Helvetica,sans-Serif" font-size="14.00" fill="white">pathfinderlm/</text>
</g>
<!-- Config -->
<g id="node2" class="node">
<title>Config</title>
<polygon fill="#ffffff" stroke="black" points="260,-846 257,-850 236,-850 233,-846 131,-846 131,-810 260,-810 260,-846"/>
<text text-anchor="middle" x="195.5" y="-824.3" font-family="Helvetica,sans-Serif" font-size="14.00">Configuration Files</text>
</g>
<!-- Root&#45;&gt;Config -->
<g id="edge1" class="edge">
<title>Root&#45;&gt;Config</title>
<path fill="none" stroke="black" d="M51.75,-279.27C61.69,-334.18 93.26,-502.39 131,-639 148.6,-702.73 175.29,-776.57 187.7,-809.96"/>
</g>
<!-- App -->
<g id="node7" class="node">
<title>App</title>
<polygon fill="#4caf50" stroke="black" points="222.5,-630 219.5,-634 198.5,-634 195.5,-630 168.5,-630 168.5,-594 222.5,-594 222.5,-630"/>
<text text-anchor="middle" x="195.5" y="-608.3" font-family="Helvetica,sans-Serif" font-size="14.00" fill="white">app/</text>
</g>
<!-- Root&#45;&gt;App -->
<g id="edge6" class="edge">
<title>Root&#45;&gt;App</title>
<path fill="none" stroke="black" d="M56.14,-279.38C81.37,-340.03 161.81,-533.42 186.93,-593.8"/>
</g>
<!-- Data -->
<g id="node16" class="node">
<title>Data</title>
<polygon fill="#ff9800" stroke="black" points="222.5,-441 219.5,-445 198.5,-445 195.5,-441 168.5,-441 168.5,-405 222.5,-405 222.5,-441"/>
<text text-anchor="middle" x="195.5" y="-419.3" font-family="Helvetica,sans-Serif" font-size="14.00" fill="white">data/</text>
</g>
<!-- Root&#45;&gt;Data -->
<g id="edge15" class="edge">
<title>Root&#45;&gt;Data</title>
<path fill="none" stroke="black" d="M60.56,-279.13C75.75,-301.38 103.23,-339.73 131,-369 143.25,-381.91 158.39,-394.88 170.81,-404.87"/>
</g>
<!-- Scripts -->
<g id="node22" class="node">
<title>Scripts</title>
<polygon fill="#9c27b0" stroke="black" points="225,-360 222,-364 201,-364 198,-360 166,-360 166,-324 225,-324 225,-360"/>
<text text-anchor="middle" x="195.5" y="-338.3" font-family="Helvetica,sans-Serif" font-size="14.00" fill="white">scripts/</text>
</g>
<!-- Root&#45;&gt;Scripts -->
<g id="edge21" class="edge">
<title>Root&#45;&gt;Scripts</title>
<path fill="none" stroke="black" d="M73.79,-279.24C89.76,-290.33 111.07,-304.35 131,-315 142.09,-320.93 154.77,-326.54 165.86,-331.09"/>
</g>
<!-- Docs -->
<g id="node27" class="node">
<title>Docs</title>
<polygon fill="#00bcd4" stroke="black" points="222.5,-306 219.5,-310 198.5,-310 195.5,-306 168.5,-306 168.5,-270 222.5,-270 222.5,-306"/>
<text text-anchor="middle" x="195.5" y="-284.3" font-family="Helvetica,sans-Serif" font-size="14.00" fill="white">docs/</text>
</g>
<!-- Root&#45;&gt;Docs -->
<g id="edge26" class="edge">
<title>Root&#45;&gt;Docs</title>
<path fill="none" stroke="black" d="M95.1,-269.62C119.3,-274.09 147.97,-279.4 168.29,-283.15"/>
</g>
<!-- Tests -->
<g id="node28" class="node">
<title>Tests</title>
<polygon fill="#e91e63" stroke="black" points="222.5,-252 219.5,-256 198.5,-256 195.5,-252 168.5,-252 168.5,-216 222.5,-216 222.5,-252"/>
<text text-anchor="middle" x="195.5" y="-230.3" font-family="Helvetica,sans-Serif" font-size="14.00" fill="white">tests/</text>
</g>
<!-- Root&#45;&gt;Tests -->
<g id="edge27" class="edge">
<title>Root&#45;&gt;Tests</title>
<path fill="none" stroke="black" d="M95.1,-252.38C119.3,-247.91 147.97,-242.6 168.29,-238.85"/>
</g>
<!-- Logs -->
<g id="node29" class="node">
<title>Logs</title>
<polygon fill="#ffffff" stroke="black" points="222.5,-198 219.5,-202 198.5,-202 195.5,-198 168.5,-198 168.5,-162 222.5,-162 222.5,-198"/>
<text text-anchor="middle" x="195.5" y="-176.3" font-family="Helvetica,sans-Serif" font-size="14.00">logs/</text>
</g>
<!-- Root&#45;&gt;Logs -->
<g id="edge28" class="edge">
<title>Root&#45;&gt;Logs</title>
<path fill="none" stroke="black" d="M73.79,-242.76C89.76,-231.67 111.07,-217.65 131,-207 142.94,-200.62 156.71,-194.61 168.37,-189.89"/>
</g>
<!-- Results -->
<g id="node30" class="node">
<title>Results</title>
<polygon fill="#ffffff" stroke="black" points="225.5,-144 222.5,-148 201.5,-148 198.5,-144 165.5,-144 165.5,-108 225.5,-108 225.5,-144"/>
<text text-anchor="middle" x="195.5" y="-122.3" font-family="Helvetica,sans-Serif" font-size="14.00">results/</text>
</g>
<!-- Root&#45;&gt;Results -->
<g id="edge29" class="edge">
<title>Root&#45;&gt;Results</title>
<path fill="none" stroke="black" d="M58.49,-242.61C72.11,-219.02 98.57,-178.18 131,-153 141.12,-145.14 153.88,-139.13 165.3,-134.8"/>
</g>
<!-- Configs -->
<g id="node32" class="node">
<title>Configs</title>
<polygon fill="#ffffff" stroke="black" points="227,-90 224,-94 203,-94 200,-90 164,-90 164,-54 227,-54 227,-90"/>
<text text-anchor="middle" x="195.5" y="-68.3" font-family="Helvetica,sans-Serif" font-size="14.00">configs/</text>
</g>
<!-- Root&#45;&gt;Configs -->
<g id="edge31" class="edge">
<title>Root&#45;&gt;Configs</title>
<path fill="none" stroke="black" d="M53.23,-242.93C62.7,-210.07 86.93,-140.13 131,-99 140.2,-90.42 152.53,-84.33 163.88,-80.14"/>
</g>
<!-- Security -->
<g id="node33" class="node">
<title>Security</title>
<polygon fill="#f44336" stroke="black" points="226,-36 223,-40 202,-40 199,-36 165,-36 165,0 226,0 226,-36"/>
<text text-anchor="middle" x="195.5" y="-14.3" font-family="Helvetica,sans-Serif" font-size="14.00" fill="white">ellipsis/</text>
</g>
<!-- Root&#45;&gt;Security -->
<g id="edge32" class="edge">
<title>Root&#45;&gt;Security</title>
<path fill="none" stroke="black" d="M50.62,-242.81C56.28,-202.13 75.3,-102.82 131,-45 140.06,-35.6 152.92,-29.31 164.69,-25.18"/>
</g>
<!-- Dockerfile -->
<g id="node3" class="node">
<title>Dockerfile</title>
<polygon fill="#ffffff" stroke="black" points="400,-954 329,-954 329,-918 406,-918 406,-948 400,-954"/>
<polyline fill="none" stroke="black" points="400,-954 400,-948 "/>
<polyline fill="none" stroke="black" points="406,-948 400,-948 "/>
<text text-anchor="middle" x="367.5" y="-932.3" font-family="Helvetica,sans-Serif" font-size="14.00">Dockerfile</text>
</g>
<!-- Config&#45;&gt;Dockerfile -->
<g id="edge2" class="edge">
<title>Config&#45;&gt;Dockerfile</title>
<path fill="none" stroke="black" d="M214.97,-846.1C234,-863.97 265.15,-891.15 296,-909 306.21,-914.91 317.95,-920 328.89,-924.12"/>
</g>
<!-- DockerCompose -->
<g id="node4" class="node">
<title>DockerCompose</title>
<polygon fill="#ffffff" stroke="black" points="433,-900 296,-900 296,-864 439,-864 439,-894 433,-900"/>
<polyline fill="none" stroke="black" points="433,-900 433,-894 "/>
<polyline fill="none" stroke="black" points="439,-894 433,-894 "/>
<text text-anchor="middle" x="367.5" y="-878.3" font-family="Helvetica,sans-Serif" font-size="14.00">docker&#45;compose.yml</text>
</g>
<!-- Config&#45;&gt;DockerCompose -->
<g id="edge3" class="edge">
<title>Config&#45;&gt;DockerCompose</title>
<path fill="none" stroke="black" d="M253.58,-846.13C271.62,-851.86 291.54,-858.19 309.57,-863.92"/>
</g>
<!-- Requirements -->
<g id="node5" class="node">
<title>Requirements</title>
<polygon fill="#ffffff" stroke="black" points="418.5,-846 310.5,-846 310.5,-810 424.5,-810 424.5,-840 418.5,-846"/>
<polyline fill="none" stroke="black" points="418.5,-846 418.5,-840 "/>
<polyline fill="none" stroke="black" points="424.5,-840 418.5,-840 "/>
<text text-anchor="middle" x="367.5" y="-824.3" font-family="Helvetica,sans-Serif" font-size="14.00">requirements.txt</text>
</g>
<!-- Config&#45;&gt;Requirements -->
<g id="edge4" class="edge">
<title>Config&#45;&gt;Requirements</title>
<path fill="none" stroke="black" d="M260.29,-828C276.77,-828 294.4,-828 310.46,-828"/>
</g>
<!-- GitIgnore -->
<g id="node6" class="node">
<title>GitIgnore</title>
<polygon fill="#ffffff" stroke="black" points="397.5,-792 331.5,-792 331.5,-756 403.5,-756 403.5,-786 397.5,-792"/>
<polyline fill="none" stroke="black" points="397.5,-792 397.5,-786 "/>
<polyline fill="none" stroke="black" points="403.5,-786 397.5,-786 "/>
<text text-anchor="middle" x="367.5" y="-770.3" font-family="Helvetica,sans-Serif" font-size="14.00">.gitignore</text>
</g>
<!-- Config&#45;&gt;GitIgnore -->
<g id="edge5" class="edge">
<title>Config&#45;&gt;GitIgnore</title>
<path fill="none" stroke="black" d="M253.58,-809.87C279.33,-801.69 308.94,-792.28 331.37,-785.16"/>
</g>
<!-- MainPy -->
<g id="node8" class="node">
<title>MainPy</title>
<polygon fill="#ffffff" stroke="black" points="394,-738 335,-738 335,-702 400,-702 400,-732 394,-738"/>
<polyline fill="none" stroke="black" points="394,-738 394,-732 "/>
<polyline fill="none" stroke="black" points="400,-732 394,-732 "/>
<text text-anchor="middle" x="367.5" y="-716.3" font-family="Helvetica,sans-Serif" font-size="14.00">main.py</text>
</g>
<!-- App&#45;&gt;MainPy -->
<g id="edge7" class="edge">
<title>App&#45;&gt;MainPy</title>
<path fill="none" stroke="black" d="M214.97,-630.1C234,-647.97 265.15,-675.15 296,-693 308.14,-700.02 322.45,-705.89 334.99,-710.34"/>
</g>
<!-- Models -->
<g id="node9" class="node">
<title>Models</title>
<polygon fill="#ffffff" stroke="black" points="400,-684 397,-688 376,-688 373,-684 335,-684 335,-648 400,-648 400,-684"/>
<text text-anchor="middle" x="367.5" y="-662.3" font-family="Helvetica,sans-Serif" font-size="14.00">models/</text>
</g>
<!-- App&#45;&gt;Models -->
<g id="edge8" class="edge">
<title>App&#45;&gt;Models</title>
<path fill="none" stroke="black" d="M222.69,-620.32C252.87,-629.9 302.44,-645.65 334.78,-655.92"/>
</g>
<!-- Routes -->
<g id="node11" class="node">
<title>Routes</title>
<polygon fill="#ffffff" stroke="black" points="396.5,-630 393.5,-634 372.5,-634 369.5,-630 338.5,-630 338.5,-594 396.5,-594 396.5,-630"/>
<text text-anchor="middle" x="367.5" y="-608.3" font-family="Helvetica,sans-Serif" font-size="14.00">routes/</text>
</g>
<!-- App&#45;&gt;Routes -->
<g id="edge9" class="edge">
<title>App&#45;&gt;Routes</title>
<path fill="none" stroke="black" d="M222.69,-612C253.98,-612 306.14,-612 338.3,-612"/>
</g>
<!-- Utils -->
<g id="node13" class="node">
<title>Utils</title>
<polygon fill="#ffffff" stroke="black" points="394.5,-576 391.5,-580 370.5,-580 367.5,-576 340.5,-576 340.5,-540 394.5,-540 394.5,-576"/>
<text text-anchor="middle" x="367.5" y="-554.3" font-family="Helvetica,sans-Serif" font-size="14.00">utils/</text>
</g>
<!-- App&#45;&gt;Utils -->
<g id="edge10" class="edge">
<title>App&#45;&gt;Utils</title>
<path fill="none" stroke="black" d="M222.69,-603.68C254.64,-593.53 308.32,-576.48 340.28,-566.33"/>
</g>
<!-- ModelPy -->
<g id="node10" class="node">
<title>ModelPy</title>
<polygon fill="#ffffff" stroke="black" points="567.5,-684 501.5,-684 501.5,-648 573.5,-648 573.5,-678 567.5,-684"/>
<polyline fill="none" stroke="black" points="567.5,-684 567.5,-678 "/>
<polyline fill="none" stroke="black" points="573.5,-678 567.5,-678 "/>
<text text-anchor="middle" x="537.5" y="-662.3" font-family="Helvetica,sans-Serif" font-size="14.00">model.py</text>
</g>
<!-- Models&#45;&gt;ModelPy -->
<g id="edge11" class="edge">
<title>Models&#45;&gt;ModelPy</title>
<path fill="none" stroke="black" d="M400.1,-666C428.9,-666 471.38,-666 501.27,-666"/>
</g>
<!-- AskPy -->
<g id="node12" class="node">
<title>AskPy</title>
<polygon fill="#ffffff" stroke="black" points="559.5,-630 509.5,-630 509.5,-594 565.5,-594 565.5,-624 559.5,-630"/>
<polyline fill="none" stroke="black" points="559.5,-630 559.5,-624 "/>
<polyline fill="none" stroke="black" points="565.5,-624 559.5,-624 "/>
<text text-anchor="middle" x="537.5" y="-608.3" font-family="Helvetica,sans-Serif" font-size="14.00">ask.py</text>
</g>
<!-- Routes&#45;&gt;AskPy -->
<g id="edge12" class="edge">
<title>Routes&#45;&gt;AskPy</title>
<path fill="none" stroke="black" d="M396.62,-612C428,-612 478.44,-612 509.4,-612"/>
</g>
<!-- Preprocess -->
<g id="node14" class="node">
<title>Preprocess</title>
<polygon fill="#ffffff" stroke="black" points="591,-576 478,-576 478,-540 597,-540 597,-570 591,-576"/>
<polyline fill="none" stroke="black" points="591,-576 591,-570 "/>
<polyline fill="none" stroke="black" points="597,-570 591,-570 "/>
<text text-anchor="middle" x="537.5" y="-554.3" font-family="Helvetica,sans-Serif" font-size="14.00">preprocessing.py</text>
</g>
<!-- Utils&#45;&gt;Preprocess -->
<g id="edge13" class="edge">
<title>Utils&#45;&gt;Preprocess</title>
<path fill="none" stroke="black" d="M394.75,-558C416.9,-558 449.43,-558 477.74,-558"/>
</g>
<!-- Postprocess -->
<g id="node15" class="node">
<title>Postprocess</title>
<polygon fill="#ffffff" stroke="black" points="594,-522 475,-522 475,-486 600,-486 600,-516 594,-522"/>
<polyline fill="none" stroke="black" points="594,-522 594,-516 "/>
<polyline fill="none" stroke="black" points="600,-516 594,-516 "/>
<text text-anchor="middle" x="537.5" y="-500.3" font-family="Helvetica,sans-Serif" font-size="14.00">postprocessing.py</text>
</g>
<!-- Utils&#45;&gt;Postprocess -->
<g id="edge14" class="edge">
<title>Utils&#45;&gt;Postprocess</title>
<path fill="none" stroke="black" d="M394.75,-549.56C417.54,-542.24 451.34,-531.37 480.21,-522.09"/>
</g>
<!-- Raw -->
<g id="node17" class="node">
<title>Raw</title>
<polygon fill="#ffffff" stroke="black" points="394.5,-522 391.5,-526 370.5,-526 367.5,-522 340.5,-522 340.5,-486 394.5,-486 394.5,-522"/>
<text text-anchor="middle" x="367.5" y="-500.3" font-family="Helvetica,sans-Serif" font-size="14.00">raw/</text>
</g>
<!-- Data&#45;&gt;Raw -->
<g id="edge16" class="edge">
<title>Data&#45;&gt;Raw</title>
<path fill="none" stroke="black" d="M222.62,-438.4C242.42,-449.77 270.47,-465.25 296,-477 310.41,-483.63 326.94,-490.03 340.38,-494.93"/>
</g>
<!-- Processed -->
<g id="node18" class="node">
<title>Processed</title>
<polygon fill="#ffffff" stroke="black" points="409,-468 406,-472 385,-472 382,-468 326,-468 326,-432 409,-432 409,-468"/>
<text text-anchor="middle" x="367.5" y="-446.3" font-family="Helvetica,sans-Serif" font-size="14.00">processed/</text>
</g>
<!-- Data&#45;&gt;Processed -->
<g id="edge17" class="edge">
<title>Data&#45;&gt;Processed</title>
<path fill="none" stroke="black" d="M222.69,-427.16C250.17,-431.52 293.72,-438.44 325.71,-443.52"/>
</g>
<!-- Datasets -->
<g id="node19" class="node">
<title>Datasets</title>
<polygon fill="#ffffff" stroke="black" points="403,-414 400,-418 379,-418 376,-414 332,-414 332,-378 403,-378 403,-414"/>
<text text-anchor="middle" x="367.5" y="-392.3" font-family="Helvetica,sans-Serif" font-size="14.00">datasets/</text>
</g>
<!-- Data&#45;&gt;Datasets -->
<g id="edge18" class="edge">
<title>Data&#45;&gt;Datasets</title>
<path fill="none" stroke="black" d="M222.69,-418.84C251.94,-414.2 299.4,-406.66 331.73,-401.52"/>
</g>
<!-- TrainCSV -->
<g id="node20" class="node">
<title>TrainCSV</title>
<polygon fill="#ffffff" stroke="black" points="565,-441 504,-441 504,-405 571,-405 571,-435 565,-441"/>
<polyline fill="none" stroke="black" points="565,-441 565,-435 "/>
<polyline fill="none" stroke="black" points="571,-435 565,-435 "/>
<text text-anchor="middle" x="537.5" y="-419.3" font-family="Helvetica,sans-Serif" font-size="14.00">train.csv</text>
</g>
<!-- Datasets&#45;&gt;TrainCSV -->
<g id="edge19" class="edge">
<title>Datasets&#45;&gt;TrainCSV</title>
<path fill="none" stroke="black" d="M403.31,-401.59C432.82,-406.34 474.82,-413.09 503.73,-417.73"/>
</g>
<!-- TestCSV -->
<g id="node21" class="node">
<title>TestCSV</title>
<polygon fill="#ffffff" stroke="black" points="562.5,-387 506.5,-387 506.5,-351 568.5,-351 568.5,-381 562.5,-387"/>
<polyline fill="none" stroke="black" points="562.5,-387 562.5,-381 "/>
<polyline fill="none" stroke="black" points="568.5,-381 562.5,-381 "/>
<text text-anchor="middle" x="537.5" y="-365.3" font-family="Helvetica,sans-Serif" font-size="14.00">test.csv</text>
</g>
<!-- Datasets&#45;&gt;TestCSV -->
<g id="edge20" class="edge">
<title>Datasets&#45;&gt;TestCSV</title>
<path fill="none" stroke="black" d="M403.31,-390.41C433.68,-385.52 477.3,-378.51 506.24,-373.86"/>
</g>
<!-- Train -->
<g id="node23" class="node">
<title>Train</title>
<polygon fill="#ffffff" stroke="black" points="414.5,-360 314.5,-360 314.5,-324 420.5,-324 420.5,-354 414.5,-360"/>
<polyline fill="none" stroke="black" points="414.5,-360 414.5,-354 "/>
<polyline fill="none" stroke="black" points="420.5,-354 414.5,-354 "/>
<text text-anchor="middle" x="367.5" y="-338.3" font-family="Helvetica,sans-Serif" font-size="14.00">train_model.py</text>
</g>
<!-- Scripts&#45;&gt;Train -->
<g id="edge22" class="edge">
<title>Scripts&#45;&gt;Train</title>
<path fill="none" stroke="black" d="M225.34,-342C249.68,-342 285.16,-342 314.45,-342"/>
</g>
<!-- Evaluate -->
<g id="node24" class="node">
<title>Evaluate</title>
<polygon fill="#ffffff" stroke="black" points="427,-306 302,-306 302,-270 433,-270 433,-300 427,-306"/>
<polyline fill="none" stroke="black" points="427,-306 427,-300 "/>
<polyline fill="none" stroke="black" points="433,-300 427,-300 "/>
<text text-anchor="middle" x="367.5" y="-284.3" font-family="Helvetica,sans-Serif" font-size="14.00">evaluate_model.py</text>
</g>
<!-- Scripts&#45;&gt;Evaluate -->
<g id="edge23" class="edge">
<title>Scripts&#45;&gt;Evaluate</title>
<path fill="none" stroke="black" d="M225.34,-332.84C248.36,-325.53 281.32,-315.06 309.61,-306.07"/>
</g>
<!-- FineTune -->
<g id="node25" class="node">
<title>FineTune</title>
<polygon fill="#ffffff" stroke="black" points="429,-252 300,-252 300,-216 435,-216 435,-246 429,-252"/>
<polyline fill="none" stroke="black" points="429,-252 429,-246 "/>
<polyline fill="none" stroke="black" points="435,-246 429,-246 "/>
<text text-anchor="middle" x="367.5" y="-230.3" font-family="Helvetica,sans-Serif" font-size="14.00">fine_tune_model.py</text>
</g>
<!-- Scripts&#45;&gt;FineTune -->
<g id="edge24" class="edge">
<title>Scripts&#45;&gt;FineTune</title>
<path fill="none" stroke="black" d="M225.01,-333.88C236.71,-329.58 249.86,-323.41 260,-315 282.2,-296.59 273.47,-279.01 296,-261 300.2,-257.65 304.86,-254.67 309.73,-252.05"/>
</g>
<!-- PreprocessScript -->
<g id="node26" class="node">
<title>PreprocessScript</title>
<polygon fill="#ffffff" stroke="black" points="429,-198 300,-198 300,-162 435,-162 435,-192 429,-198"/>
<polyline fill="none" stroke="black" points="429,-198 429,-192 "/>
<polyline fill="none" stroke="black" points="435,-192 429,-192 "/>
<text text-anchor="middle" x="367.5" y="-176.3" font-family="Helvetica,sans-Serif" font-size="14.00">preprocess_data.py</text>
</g>
<!-- Scripts&#45;&gt;PreprocessScript -->
<g id="edge25" class="edge">
<title>Scripts&#45;&gt;PreprocessScript</title>
<path fill="none" stroke="black" d="M225.21,-335.45C237.37,-331.37 250.82,-324.95 260,-315 294.31,-277.82 261.02,-243.56 296,-207 299.17,-203.69 302.79,-200.77 306.68,-198.21"/>
</g>
<!-- ModelDir -->
<g id="node31" class="node">
<title>ModelDir</title>
<polygon fill="#ffffff" stroke="black" points="396.5,-144 393.5,-148 372.5,-148 369.5,-144 338.5,-144 338.5,-108 396.5,-108 396.5,-144"/>
<text text-anchor="middle" x="367.5" y="-122.3" font-family="Helvetica,sans-Serif" font-size="14.00">model/</text>
</g>
<!-- Results&#45;&gt;ModelDir -->
<g id="edge30" class="edge">
<title>Results&#45;&gt;ModelDir</title>
<path fill="none" stroke="black" d="M225.72,-126C257.24,-126 307.08,-126 338.22,-126"/>
</g>
</g>
</svg>
