<?xml version="1.0" encoding="UTF-8" standalone="no"?>
<!DOCTYPE svg PUBLIC "-//W3C//DTD SVG 1.1//EN"
 "http://www.w3.org/Graphics/SVG/1.1/DTD/svg11.dtd">
<!-- Generated by graphviz version 2.43.0 (0)
 -->
<!-- Title: RAGPipeline Pages: 1 -->
<svg width="2395pt" height="240pt"
 viewBox="0.00 0.00 2394.54 240.00" xmlns="http://www.w3.org/2000/svg" xmlns:xlink="http://www.w3.org/1999/xlink">
<g id="graph0" class="graph" transform="scale(1 1) rotate(0) translate(4 236)">
<title>RAGPipeline</title>
<polygon fill="white" stroke="transparent" points="-4,4 -4,-236 2390.54,-236 2390.54,4 -4,4"/>
<text text-anchor="middle" x="1193.27" y="-216.8" font-family="Helvetica,sans-Serif" font-size="14.00">PathfinderLM — RAG Pipeline</text>
<g id="clust1" class="cluster">
<title>cluster_input</title>
<polygon fill="#eceff1" stroke="#eceff1" points="8,-56 8,-131 403,-131 403,-56 8,-56"/>
<text text-anchor="middle" x="205.5" y="-115.8" font-family="Helvetica,sans-Serif" font-size="14.00">Input Processing</text>
</g>
<g id="clust2" class="cluster">
<title>cluster_retrieval</title>
<polygon fill="#e3f2fd" stroke="#e3f2fd" points="424,-21 424,-166 905,-166 905,-21 424,-21"/>
<text text-anchor="middle" x="664.5" y="-150.8" font-family="Helvetica,sans-Serif" font-size="14.00">Retrieval Phase</text>
</g>
<g id="clust3" class="cluster">
<title>cluster_aug</title>
<polygon fill="#f3e5f5" stroke="#f3e5f5" points="926,-23 926,-98 1228,-98 1228,-23 926,-23"/>
<text text-anchor="middle" x="1077" y="-82.8" font-family="Helvetica,sans-Serif" font-size="14.00">Augmentation Phase</text>
</g>
<g id="clust4" class="cluster">
<title>cluster_gen</title>
<polygon fill="#fff3e0" stroke="#fff3e0" points="1249,-20 1249,-113 1895,-113 1895,-20 1249,-20"/>
<text text-anchor="middle" x="1572" y="-97.8" font-family="Helvetica,sans-Serif" font-size="14.00">Generation Phase</text>
</g>
<g id="clust5" class="cluster">
<title>cluster_feedback</title>
<polygon fill="#e8f5e9" stroke="#e8f5e9" points="1916,-72 1916,-201 2378.54,-201 2378.54,-72 1916,-72"/>
<text text-anchor="middle" x="2147.27" y="-185.8" font-family="Helvetica,sans-Serif" font-size="14.00">Feedback Loop</text>
</g>
<!-- UserQuery -->
<g id="node1" class="node">
<title>UserQuery</title>
<path fill="#ffffff" stroke="black" d="M90,-100C90,-100 28,-100 28,-100 22,-100 16,-94 16,-88 16,-88 16,-76 16,-76 16,-70 22,-64 28,-64 28,-64 90,-64 90,-64 96,-64 102,-70 102,-76 102,-76 102,-88 102,-88 102,-94 96,-100 90,-100"/>
<text text-anchor="middle" x="59" y="-78.3" font-family="Helvetica,sans-Serif" font-size="14.00">User Query</text>
</g>
<!-- Tokenize -->
<g id="node2" class="node">
<title>Tokenize</title>
<path fill="#ffffff" stroke="black" d="M219,-100C219,-100 151,-100 151,-100 145,-100 139,-94 139,-88 139,-88 139,-76 139,-76 139,-70 145,-64 151,-64 151,-64 219,-64 219,-64 225,-64 231,-70 231,-76 231,-76 231,-88 231,-88 231,-94 225,-100 219,-100"/>
<text text-anchor="middle" x="185" y="-78.3" font-family="Helvetica,sans-Serif" font-size="14.00">Tokenization</text>
</g>
<!-- UserQuery&#45;&gt;Tokenize -->
<g id="edge1" class="edge">
<title>UserQuery&#45;&gt;Tokenize</title>
<path fill="none" stroke="black" d="M102.33,-82C110.8,-82 119.82,-82 128.65,-82"/>
<polygon fill="black" stroke="black" points="128.9,-85.5 138.9,-82 128.9,-78.5 128.9,-85.5"/>
</g>
<!-- ContextBuild -->
<g id="node8" class="node">
<title>ContextBuild</title>
<path fill="#ffffff" stroke="black" d="M1037,-67C1037,-67 946,-67 946,-67 940,-67 934,-61 934,-55 934,-55 934,-43 934,-43 934,-37 940,-31 946,-31 946,-31 1037,-31 1037,-31 1043,-31 1049,-37 1049,-43 1049,-43 1049,-55 1049,-55 1049,-61 1043,-67 1037,-67"/>
<text text-anchor="middle" x="991.5" y="-45.3" font-family="Helvetica,sans-Serif" font-size="14.00">Context Building</text>
</g>
<!-- UserQuery&#45;&gt;ContextBuild -->
<g id="edge12" class="edge">
<title>UserQuery&#45;&gt;ContextBuild</title>
<path fill="none" stroke="black" d="M75.13,-63.62C96.63,-39.72 138.49,-1 184,-1 184,-1 184,-1 835.5,-1 873.5,-1 914.49,-14.33 944.77,-26.94"/>
<polygon fill="black" stroke="black" points="943.64,-30.26 954.21,-30.99 946.4,-23.83 943.64,-30.26"/>
</g>
<!-- Embed -->
<g id="node3" class="node">
<title>Embed</title>
<path fill="#ffffff" stroke="black" d="M383,-100C383,-100 280,-100 280,-100 274,-100 268,-94 268,-88 268,-88 268,-76 268,-76 268,-70 274,-64 280,-64 280,-64 383,-64 383,-64 389,-64 395,-70 395,-76 395,-76 395,-88 395,-88 395,-94 389,-100 383,-100"/>
<text text-anchor="middle" x="331.5" y="-78.3" font-family="Helvetica,sans-Serif" font-size="14.00">Query Embedding</text>
</g>
<!-- Tokenize&#45;&gt;Embed -->
<g id="edge2" class="edge">
<title>Tokenize&#45;&gt;Embed</title>
<path fill="none" stroke="black" d="M231.32,-82C239.74,-82 248.73,-82 257.73,-82"/>
<polygon fill="black" stroke="black" points="257.87,-85.5 267.87,-82 257.87,-78.5 257.87,-85.5"/>
</g>
<!-- VectorSearch -->
<g id="node4" class="node">
<title>VectorSearch</title>
<path fill="#ffffff" stroke="black" d="M587.5,-135C587.5,-135 450.5,-135 450.5,-135 444.5,-135 438.5,-129 438.5,-123 438.5,-123 438.5,-111 438.5,-111 438.5,-105 444.5,-99 450.5,-99 450.5,-99 587.5,-99 587.5,-99 593.5,-99 599.5,-105 599.5,-111 599.5,-111 599.5,-123 599.5,-123 599.5,-129 593.5,-135 587.5,-135"/>
<text text-anchor="middle" x="519" y="-113.3" font-family="Helvetica,sans-Serif" font-size="14.00">Vector Similarity Search</text>
</g>
<!-- Embed&#45;&gt;VectorSearch -->
<g id="edge10" class="edge">
<title>Embed&#45;&gt;VectorSearch</title>
<path fill="none" stroke="black" d="M395.04,-93.8C405.78,-95.83 417.13,-97.97 428.41,-100.1"/>
<polygon fill="black" stroke="black" points="427.81,-103.55 438.29,-101.96 429.11,-96.67 427.81,-103.55"/>
</g>
<!-- FAISS -->
<g id="node5" class="node">
<title>FAISS</title>
<path fill="#ffffff" stroke="black" d="M735,-69.73C735,-71.53 714.38,-73 689,-73 663.62,-73 643,-71.53 643,-69.73 643,-69.73 643,-40.27 643,-40.27 643,-38.47 663.62,-37 689,-37 714.38,-37 735,-38.47 735,-40.27 735,-40.27 735,-69.73 735,-69.73"/>
<path fill="none" stroke="black" d="M735,-69.73C735,-67.92 714.38,-66.45 689,-66.45 663.62,-66.45 643,-67.92 643,-69.73"/>
<text text-anchor="middle" x="689" y="-51.3" font-family="Helvetica,sans-Serif" font-size="14.00">FAISS Index</text>
</g>
<!-- VectorSearch&#45;&gt;FAISS -->
<g id="edge3" class="edge">
<title>VectorSearch&#45;&gt;FAISS</title>
<path fill="none" stroke="black" d="M580.4,-98.87C589.04,-96.04 597.78,-93.04 606,-90 617.34,-85.81 629.4,-80.92 640.68,-76.14"/>
<polygon fill="black" stroke="black" points="642.12,-79.33 649.94,-72.18 639.37,-72.9 642.12,-79.33"/>
</g>
<!-- TopK -->
<g id="node6" class="node">
<title>TopK</title>
<path fill="#ffffff" stroke="black" d="M885,-71C885,-71 784,-71 784,-71 778,-71 772,-65 772,-59 772,-59 772,-47 772,-47 772,-41 778,-35 784,-35 784,-35 885,-35 885,-35 891,-35 897,-41 897,-47 897,-47 897,-59 897,-59 897,-65 891,-71 885,-71"/>
<text text-anchor="middle" x="834.5" y="-49.3" font-family="Helvetica,sans-Serif" font-size="14.00">Top&#45;K Documents</text>
</g>
<!-- FAISS&#45;&gt;TopK -->
<g id="edge4" class="edge">
<title>FAISS&#45;&gt;TopK</title>
<path fill="none" stroke="black" d="M735.01,-54.37C743.49,-54.25 752.55,-54.13 761.62,-54"/>
<polygon fill="black" stroke="black" points="761.87,-57.5 771.82,-53.86 761.77,-50.5 761.87,-57.5"/>
</g>
<!-- TopK&#45;&gt;ContextBuild -->
<g id="edge11" class="edge">
<title>TopK&#45;&gt;ContextBuild</title>
<path fill="none" stroke="black" d="M897.21,-51.41C905.88,-51.18 914.84,-50.95 923.6,-50.73"/>
<polygon fill="black" stroke="black" points="923.88,-54.22 933.78,-50.46 923.7,-47.22 923.88,-54.22"/>
</g>
<!-- KnowledgeBase -->
<g id="node7" class="node">
<title>KnowledgeBase</title>
<path fill="#ffffff" stroke="black" d="M606,-76.48C606,-79.11 567.01,-81.25 519,-81.25 470.99,-81.25 432,-79.11 432,-76.48 432,-76.48 432,-33.52 432,-33.52 432,-30.89 470.99,-28.75 519,-28.75 567.01,-28.75 606,-30.89 606,-33.52 606,-33.52 606,-76.48 606,-76.48"/>
<path fill="none" stroke="black" d="M606,-76.48C606,-73.84 567.01,-71.7 519,-71.7 470.99,-71.7 432,-73.84 432,-76.48"/>
<text text-anchor="middle" x="519" y="-58.8" font-family="Helvetica,sans-Serif" font-size="14.00">Knowledge Base</text>
<text text-anchor="middle" x="519" y="-43.8" font-family="Helvetica,sans-Serif" font-size="14.00">Articles, Advice, Research</text>
</g>
<!-- KnowledgeBase&#45;&gt;FAISS -->
<g id="edge5" class="edge">
<title>KnowledgeBase&#45;&gt;FAISS</title>
<path fill="none" stroke="black" d="M606.46,-55C615.38,-55 624.26,-55 632.7,-55"/>
<polygon fill="black" stroke="black" points="632.75,-58.5 642.75,-55 632.75,-51.5 632.75,-58.5"/>
</g>
<!-- AugPrompt -->
<g id="node9" class="node">
<title>AugPrompt</title>
<path fill="#ffffff" stroke="black" d="M1208,-67C1208,-67 1098,-67 1098,-67 1092,-67 1086,-61 1086,-55 1086,-55 1086,-43 1086,-43 1086,-37 1092,-31 1098,-31 1098,-31 1208,-31 1208,-31 1214,-31 1220,-37 1220,-43 1220,-43 1220,-55 1220,-55 1220,-61 1214,-67 1208,-67"/>
<text text-anchor="middle" x="1153" y="-45.3" font-family="Helvetica,sans-Serif" font-size="14.00">Augmented Prompt</text>
</g>
<!-- ContextBuild&#45;&gt;AugPrompt -->
<g id="edge6" class="edge">
<title>ContextBuild&#45;&gt;AugPrompt</title>
<path fill="none" stroke="black" d="M1049.18,-49C1057.84,-49 1066.88,-49 1075.87,-49"/>
<polygon fill="black" stroke="black" points="1075.97,-52.5 1085.97,-49 1075.97,-45.5 1075.97,-52.5"/>
</g>
<!-- LM -->
<g id="node10" class="node">
<title>LM</title>
<path fill="#4caf50" stroke="black" d="M1363,-81.5C1363,-81.5 1269,-81.5 1269,-81.5 1263,-81.5 1257,-75.5 1257,-69.5 1257,-69.5 1257,-40.5 1257,-40.5 1257,-34.5 1263,-28.5 1269,-28.5 1269,-28.5 1363,-28.5 1363,-28.5 1369,-28.5 1375,-34.5 1375,-40.5 1375,-40.5 1375,-69.5 1375,-69.5 1375,-75.5 1369,-81.5 1363,-81.5"/>
<text text-anchor="middle" x="1316" y="-66.3" font-family="Helvetica,sans-Serif" font-size="14.00" fill="white">LLM Runtime</text>
<text text-anchor="middle" x="1316" y="-51.3" font-family="Helvetica,sans-Serif" font-size="14.00" fill="white">Ollama 0.22.1</text>
<text text-anchor="middle" x="1316" y="-36.3" font-family="Helvetica,sans-Serif" font-size="14.00" fill="white">deepseek&#45;r1:14b</text>
</g>
<!-- AugPrompt&#45;&gt;LM -->
<g id="edge13" class="edge">
<title>AugPrompt&#45;&gt;LM</title>
<path fill="none" stroke="black" d="M1220.41,-51.48C1229.13,-51.8 1238.07,-52.13 1246.82,-52.46"/>
<polygon fill="black" stroke="black" points="1246.84,-55.96 1256.97,-52.84 1247.11,-48.97 1246.84,-55.96"/>
</g>
<!-- Response -->
<g id="node11" class="node">
<title>Response</title>
<path fill="#ffffff" stroke="black" d="M1546,-73C1546,-73 1424,-73 1424,-73 1418,-73 1412,-67 1412,-61 1412,-61 1412,-49 1412,-49 1412,-43 1418,-37 1424,-37 1424,-37 1546,-37 1546,-37 1552,-37 1558,-43 1558,-49 1558,-49 1558,-61 1558,-61 1558,-67 1552,-73 1546,-73"/>
<text text-anchor="middle" x="1485" y="-51.3" font-family="Helvetica,sans-Serif" font-size="14.00">Generated Response</text>
</g>
<!-- LM&#45;&gt;Response -->
<g id="edge7" class="edge">
<title>LM&#45;&gt;Response</title>
<path fill="none" stroke="black" d="M1375.41,-55C1383.95,-55 1392.88,-55 1401.79,-55"/>
<polygon fill="black" stroke="black" points="1401.82,-58.5 1411.82,-55 1401.82,-51.5 1401.82,-58.5"/>
</g>
<!-- PostProcess -->
<g id="node12" class="node">
<title>PostProcess</title>
<path fill="#ffffff" stroke="black" d="M1698,-73C1698,-73 1607,-73 1607,-73 1601,-73 1595,-67 1595,-61 1595,-61 1595,-49 1595,-49 1595,-43 1601,-37 1607,-37 1607,-37 1698,-37 1698,-37 1704,-37 1710,-43 1710,-49 1710,-49 1710,-61 1710,-61 1710,-67 1704,-73 1698,-73"/>
<text text-anchor="middle" x="1652.5" y="-51.3" font-family="Helvetica,sans-Serif" font-size="14.00">Post&#45;Processing</text>
</g>
<!-- Response&#45;&gt;PostProcess -->
<g id="edge8" class="edge">
<title>Response&#45;&gt;PostProcess</title>
<path fill="none" stroke="black" d="M1558.11,-55C1566.94,-55 1575.93,-55 1584.67,-55"/>
<polygon fill="black" stroke="black" points="1584.8,-58.5 1594.8,-55 1584.8,-51.5 1584.8,-58.5"/>
</g>
<!-- Validation -->
<g id="node13" class="node">
<title>Validation</title>
<path fill="#ffffff" stroke="black" d="M1875,-73C1875,-73 1759,-73 1759,-73 1753,-73 1747,-67 1747,-61 1747,-61 1747,-49 1747,-49 1747,-43 1753,-37 1759,-37 1759,-37 1875,-37 1875,-37 1881,-37 1887,-43 1887,-49 1887,-49 1887,-61 1887,-61 1887,-67 1881,-73 1875,-73"/>
<text text-anchor="middle" x="1817" y="-51.3" font-family="Helvetica,sans-Serif" font-size="14.00">Response Validation</text>
</g>
<!-- PostProcess&#45;&gt;Validation -->
<g id="edge9" class="edge">
<title>PostProcess&#45;&gt;Validation</title>
<path fill="none" stroke="black" d="M1710.33,-55C1718.91,-55 1727.89,-55 1736.84,-55"/>
<polygon fill="black" stroke="black" points="1736.9,-58.5 1746.9,-55 1736.9,-51.5 1736.9,-58.5"/>
</g>
<!-- UserFeedback -->
<g id="node14" class="node">
<title>UserFeedback</title>
<path fill="#c8e6c9" stroke="black" d="M2011.46,-115.85C2011.46,-115.85 1936.04,-102.15 1936.04,-102.15 1930.13,-101.07 1930.13,-98.93 1936.04,-97.85 1936.04,-97.85 2011.46,-84.15 2011.46,-84.15 2017.37,-83.07 2029.17,-83.07 2035.08,-84.15 2035.08,-84.15 2110.5,-97.85 2110.5,-97.85 2116.4,-98.93 2116.4,-101.07 2110.5,-102.15 2110.5,-102.15 2035.08,-115.85 2035.08,-115.85 2029.17,-116.93 2017.37,-116.93 2011.46,-115.85"/>
<text text-anchor="middle" x="2023.27" y="-96.3" font-family="Helvetica,sans-Serif" font-size="14.00">User Feedback</text>
</g>
<!-- Validation&#45;&gt;UserFeedback -->
<g id="edge14" class="edge">
<title>Validation&#45;&gt;UserFeedback</title>
<path fill="none" stroke="black" d="M1887.16,-70.23C1913.5,-76.04 1943.13,-82.57 1967.91,-88.03"/>
<polygon fill="black" stroke="black" points="1967.34,-91.48 1977.86,-90.22 1968.85,-84.65 1967.34,-91.48"/>
</g>
<!-- FinalResponse -->
<g id="node17" class="node">
<title>FinalResponse</title>
<path fill="#bbdefb" stroke="black" d="M2090.27,-64C2090.27,-64 1956.27,-64 1956.27,-64 1950.27,-64 1944.27,-58 1944.27,-52 1944.27,-52 1944.27,-40 1944.27,-40 1944.27,-34 1950.27,-28 1956.27,-28 1956.27,-28 2090.27,-28 2090.27,-28 2096.27,-28 2102.27,-34 2102.27,-40 2102.27,-40 2102.27,-52 2102.27,-52 2102.27,-58 2096.27,-64 2090.27,-64"/>
<text text-anchor="middle" x="2023.27" y="-42.3" font-family="Helvetica,sans-Serif" font-size="14.00">Final Response to User</text>
</g>
<!-- Validation&#45;&gt;FinalResponse -->
<g id="edge18" class="edge">
<title>Validation&#45;&gt;FinalResponse</title>
<path fill="none" stroke="black" d="M1887.16,-51.95C1902.16,-51.29 1918.22,-50.58 1933.85,-49.9"/>
<polygon fill="black" stroke="black" points="1934.21,-53.38 1944.04,-49.45 1933.9,-46.39 1934.21,-53.38"/>
</g>
<!-- UpdateRewards -->
<g id="node15" class="node">
<title>UpdateRewards</title>
<path fill="#ffffff" stroke="black" d="M2358.54,-170C2358.54,-170 2224.54,-170 2224.54,-170 2218.54,-170 2212.54,-164 2212.54,-158 2212.54,-158 2212.54,-146 2212.54,-146 2212.54,-140 2218.54,-134 2224.54,-134 2224.54,-134 2358.54,-134 2358.54,-134 2364.54,-134 2370.54,-140 2370.54,-146 2370.54,-146 2370.54,-158 2370.54,-158 2370.54,-164 2364.54,-170 2358.54,-170"/>
<text text-anchor="middle" x="2291.54" y="-148.3" font-family="Helvetica,sans-Serif" font-size="14.00">Update Model Rewards</text>
</g>
<!-- UserFeedback&#45;&gt;UpdateRewards -->
<g id="edge15" class="edge">
<title>UserFeedback&#45;&gt;UpdateRewards</title>
<path fill="none" stroke="black" d="M2071.57,-109.24C2107.75,-116.3 2158.69,-126.25 2202.33,-134.77"/>
<polygon fill="black" stroke="black" points="2201.9,-138.25 2212.38,-136.74 2203.24,-131.38 2201.9,-138.25"/>
<text text-anchor="middle" x="2167.54" y="-135.8" font-family="Helvetica,sans-Serif" font-size="14.00">Positive</text>
</g>
<!-- RefinementQueue -->
<g id="node16" class="node">
<title>RefinementQueue</title>
<path fill="#ffffff" stroke="black" d="M2345.04,-116C2345.04,-116 2238.04,-116 2238.04,-116 2232.04,-116 2226.04,-110 2226.04,-104 2226.04,-104 2226.04,-92 2226.04,-92 2226.04,-86 2232.04,-80 2238.04,-80 2238.04,-80 2345.04,-80 2345.04,-80 2351.04,-80 2357.04,-86 2357.04,-92 2357.04,-92 2357.04,-104 2357.04,-104 2357.04,-110 2351.04,-116 2345.04,-116"/>
<text text-anchor="middle" x="2291.54" y="-94.3" font-family="Helvetica,sans-Serif" font-size="14.00">Refinement Queue</text>
</g>
<!-- UserFeedback&#45;&gt;RefinementQueue -->
<g id="edge16" class="edge">
<title>UserFeedback&#45;&gt;RefinementQueue</title>
<path fill="none" stroke="black" d="M2118.52,-99.29C2150.38,-99.05 2185.49,-98.79 2215.63,-98.56"/>
<polygon fill="black" stroke="black" points="2215.68,-102.06 2225.66,-98.49 2215.63,-95.06 2215.68,-102.06"/>
<text text-anchor="middle" x="2167.54" y="-102.8" font-family="Helvetica,sans-Serif" font-size="14.00">Negative</text>
</g>
<!-- RefinementQueue&#45;&gt;ContextBuild -->
<g id="edge17" class="edge">
<title>RefinementQueue&#45;&gt;ContextBuild</title>
<path fill="none" stroke="black" d="M2261.87,-79.8C2214.4,-51.46 2115.64,0 2024.27,0 1152,0 1152,0 1152,0 1112.49,0 1069.81,-13.91 1038.54,-26.91"/>
<polygon fill="black" stroke="black" points="1037.04,-23.74 1029.23,-30.89 1039.8,-30.18 1037.04,-23.74"/>
</g>
</g>
</svg>
