<?xml version="1.0" encoding="UTF-8" standalone="no"?>
<!DOCTYPE svg PUBLIC "-//W3C//DTD SVG 1.1//EN"
 "http://www.w3.org/Graphics/SVG/1.1/DTD/svg11.dtd">
<!-- Generated by graphviz version 2.43.0 (0)
 -->
<!-- Title: RAGPipeline Pages: 1 -->
<svg width="2395pt" height="241pt"
 viewBox="0.00 0.00 2394.54 241.00" xmlns="http://www.w3.org/2000/svg" xmlns:xlink="http://www.w3.org/1999/xlink">
<g id="graph0" class="graph" transform="scale(1 1) rotate(0) translate(4 237)">
<title>RAGPipeline</title>
<polygon fill="white" stroke="transparent" points="-4,4 -4,-237 2390.54,-237 2390.54,4 -4,4"/>
<text text-anchor="middle" x="1193.27" y="-217.8" font-family="Helvetica,sans-Serif" font-size="14.00">PathfinderLM — RAG Pipeline</text>
<g id="clust1" class="cluster">
<title>cluster_input</title>
<polygon fill="#eceff1" stroke="#eceff1" points="8,-55 8,-130 403,-130 403,-55 8,-55"/>
<text text-anchor="middle" x="205.5" y="-114.8" font-family="Helvetica,sans-Serif" font-size="14.00">Input Processing</text>
</g>
<g id="clust2" class="cluster">
<title>cluster_retrieval</title>
<polygon fill="#e3f2fd" stroke="#e3f2fd" points="424,-20 424,-165 905,-165 905,-20 424,-20"/>
<text text-anchor="middle" x="664.5" y="-149.8" font-family="Helvetica,sans-Serif" font-size="14.00">Retrieval Phase</text>
</g>
<g id="clust3" class="cluster">
<title>cluster_aug</title>
<polygon fill="#f3e5f5" stroke="#f3e5f5" points="926,-21 926,-96 1228,-96 1228,-21 926,-21"/>
<text text-anchor="middle" x="1077" y="-80.8" font-family="Helvetica,sans-Serif" font-size="14.00">Augmentation Phase</text>
</g>
<g id="clust4" class="cluster">
<title>cluster_gen</title>
<polygon fill="#fff3e0" stroke="#fff3e0" points="1249,-21 1249,-98 1895,-98 1895,-21 1249,-21"/>
<text text-anchor="middle" x="1572" y="-82.8" font-family="Helvetica,sans-Serif" font-size="14.00">Generation Phase</text>
</g>
<g id="clust5" class="cluster">
<title>cluster_feedback</title>
<polygon fill="#e8f5e9" stroke="#e8f5e9" points="1916,-73 1916,-202 2378.54,-202 2378.54,-73 1916,-73"/>
<text text-anchor="middle" x="2147.27" y="-186.8" font-family="Helvetica,sans-Serif" font-size="14.00">Feedback Loop</text>
</g>
<!-- UserQuery -->
<g id="node1" class="node">
<title>UserQuery</title>
<path fill="#ffffff" stroke="black" d="M90,-99C90,-99 28,-99 28,-99 22,-99 16,-93 16,-87 16,-87 16,-75 16,-75 16,-69 22,-63 28,-63 28,-63 90,-63 90,-63 96,-63 102,-69 102,-75 102,-75 102,-87 102,-87 102,-93 96,-99 90,-99"/>
<text text-anchor="middle" x="59" y="-77.3" font-family="Helvetica,sans-Serif" font-size="14.00">User Query</text>
</g>
<!-- Tokenize -->
<g id="node2" class="node">
<title>Tokenize</title>
<path fill="#ffffff" stroke="black" d="M219,-99C219,-99 151,-99 151,-99 145,-99 139,-93 139,-87 139,-87 139,-75 139,-75 139,-69 145,-63 151,-63 151,-63 219,-63 219,-63 225,-63 231,-69 231,-75 231,-75 231,-87 231,-87 231,-93 225,-99 219,-99"/>
<text text-anchor="middle" x="185" y="-77.3" font-family="Helvetica,sans-Serif" font-size="14.00">Tokenization</text>
</g>
<!-- UserQuery&#45;&gt;Tokenize -->
<g id="edge1" class="edge">
<title>UserQuery&#45;&gt;Tokenize</title>
<path fill="none" stroke="black" d="M102.33,-81C110.8,-81 119.82,-81 128.65,-81"/>
<polygon fill="black" stroke="black" points="128.9,-84.5 138.9,-81 128.9,-77.5 128.9,-84.5"/>
</g>
<!-- ContextBuild -->
<g id="node8" class="node">
<title>ContextBuild</title>
<path fill="#ffffff" stroke="black" d="M1037,-65C1037,-65 946,-65 946,-65 940,-65 934,-59 934,-53 934,-53 934,-41 934,-41 934,-35 940,-29 946,-29 946,-29 1037,-29 1037,-29 1043,-29 1049,-35 1049,-41 1049,-41 1049,-53 1049,-53 1049,-59 1043,-65 1037,-65"/>
<text text-anchor="middle" x="991.5" y="-43.3" font-family="Helvetica,sans-Serif" font-size="14.00">Context Building</text>
</g>
<!-- UserQuery&#45;&gt;ContextBuild -->
<g id="edge12" class="edge">
<title>UserQuery&#45;&gt;ContextBuild</title>
<path fill="none" stroke="black" d="M75.13,-62.62C96.63,-38.72 138.49,0 184,0 184,0 184,0 835.5,0 873.05,0 913.61,-12.79 943.81,-25.03"/>
<polygon fill="black" stroke="black" points="942.66,-28.34 953.24,-28.96 945.36,-21.88 942.66,-28.34"/>
</g>
<!-- Embed -->
<g id="node3" class="node">
<title>Embed</title>
<path fill="#ffffff" stroke="black" d="M383,-99C383,-99 280,-99 280,-99 274,-99 268,-93 268,-87 268,-87 268,-75 268,-75 268,-69 274,-63 280,-63 280,-63 383,-63 383,-63 389,-63 395,-69 395,-75 395,-75 395,-87 395,-87 395,-93 389,-99 383,-99"/>
<text text-anchor="middle" x="331.5" y="-77.3" font-family="Helvetica,sans-Serif" font-size="14.00">Query Embedding</text>
</g>
<!-- Tokenize&#45;&gt;Embed -->
<g id="edge2" class="edge">
<title>Tokenize&#45;&gt;Embed</title>
<path fill="none" stroke="black" d="M231.32,-81C239.74,-81 248.73,-81 257.73,-81"/>
<polygon fill="black" stroke="black" points="257.87,-84.5 267.87,-81 257.87,-77.5 257.87,-84.5"/>
</g>
<!-- VectorSearch -->
<g id="node4" class="node">
<title>VectorSearch</title>
<path fill="#ffffff" stroke="black" d="M587.5,-134C587.5,-134 450.5,-134 450.5,-134 444.5,-134 438.5,-128 438.5,-122 438.5,-122 438.5,-110 438.5,-110 438.5,-104 444.5,-98 450.5,-98 450.5,-98 587.5,-98 587.5,-98 593.5,-98 599.5,-104 599.5,-110 599.5,-110 599.5,-122 599.5,-122 599.5,-128 593.5,-134 587.5,-134"/>
<text text-anchor="middle" x="519" y="-112.3" font-family="Helvetica,sans-Serif" font-size="14.00">Vector Similarity Search</text>
</g>
<!-- Embed&#45;&gt;VectorSearch -->
<g id="edge10" class="edge">
<title>Embed&#45;&gt;VectorSearch</title>
<path fill="none" stroke="black" d="M395.04,-92.8C405.78,-94.83 417.13,-96.97 428.41,-99.1"/>
<polygon fill="black" stroke="black" points="427.81,-102.55 438.29,-100.96 429.11,-95.67 427.81,-102.55"/>
</g>
<!-- FAISS -->
<g id="node5" class="node">
<title>FAISS</title>
<path fill="#ffffff" stroke="black" d="M735,-68.73C735,-70.53 714.38,-72 689,-72 663.62,-72 643,-70.53 643,-68.73 643,-68.73 643,-39.27 643,-39.27 643,-37.47 663.62,-36 689,-36 714.38,-36 735,-37.47 735,-39.27 735,-39.27 735,-68.73 735,-68.73"/>
<path fill="none" stroke="black" d="M735,-68.73C735,-66.92 714.38,-65.45 689,-65.45 663.62,-65.45 643,-66.92 643,-68.73"/>
<text text-anchor="middle" x="689" y="-50.3" font-family="Helvetica,sans-Serif" font-size="14.00">FAISS Index</text>
</g>
<!-- VectorSearch&#45;&gt;FAISS -->
<g id="edge3" class="edge">
<title>VectorSearch&#45;&gt;FAISS</title>
<path fill="none" stroke="black" d="M580.4,-97.87C589.04,-95.04 597.78,-92.04 606,-89 617.34,-84.81 629.4,-79.92 640.68,-75.14"/>
<polygon fill="black" stroke="black" points="642.12,-78.33 649.94,-71.18 639.37,-71.9 642.12,-78.33"/>
</g>
<!-- TopK -->
<g id="node6" class="node">
<title>TopK</title>
<path fill="#ffffff" stroke="black" d="M885,-70C885,-70 784,-70 784,-70 778,-70 772,-64 772,-58 772,-58 772,-46 772,-46 772,-40 778,-34 784,-34 784,-34 885,-34 885,-34 891,-34 897,-40 897,-46 897,-46 897,-58 897,-58 897,-64 891,-70 885,-70"/>
<text text-anchor="middle" x="834.5" y="-48.3" font-family="Helvetica,sans-Serif" font-size="14.00">Top&#45;K Documents</text>
</g>
<!-- FAISS&#45;&gt;TopK -->
<g id="edge4" class="edge">
<title>FAISS&#45;&gt;TopK</title>
<path fill="none" stroke="black" d="M735.01,-53.37C743.49,-53.25 752.55,-53.13 761.62,-53"/>
<polygon fill="black" stroke="black" points="761.87,-56.5 771.82,-52.86 761.77,-49.5 761.87,-56.5"/>
</g>
<!-- TopK&#45;&gt;ContextBuild -->
<g id="edge11" class="edge">
<title>TopK&#45;&gt;ContextBuild</title>
<path fill="none" stroke="black" d="M897.21,-50.01C905.88,-49.73 914.84,-49.44 923.6,-49.16"/>
<polygon fill="black" stroke="black" points="923.9,-52.65 933.78,-48.83 923.68,-45.65 923.9,-52.65"/>
</g>
<!-- KnowledgeBase -->
<g id="node7" class="node">
<title>KnowledgeBase</title>
<path fill="#ffffff" stroke="black" d="M606,-75.48C606,-78.11 567.01,-80.25 519,-80.25 470.99,-80.25 432,-78.11 432,-75.48 432,-75.48 432,-32.52 432,-32.52 432,-29.89 470.99,-27.75 519,-27.75 567.01,-27.75 606,-29.89 606,-32.52 606,-32.52 606,-75.48 606,-75.48"/>
<path fill="none" stroke="black" d="M606,-75.48C606,-72.84 567.01,-70.7 519,-70.7 470.99,-70.7 432,-72.84 432,-75.48"/>
<text text-anchor="middle" x="519" y="-57.8" font-family="Helvetica,sans-Serif" font-size="14.00">Knowledge Base</text>
<text text-anchor="middle" x="519" y="-42.8" font-family="Helvetica,sans-Serif" font-size="14.00">Articles, Advice, Research</text>
</g>
<!-- KnowledgeBase&#45;&gt;FAISS -->
<g id="edge5" class="edge">
<title>KnowledgeBase&#45;&gt;FAISS</title>
<path fill="none" stroke="black" d="M606.46,-54C615.38,-54 624.26,-54 632.7,-54"/>
<polygon fill="black" stroke="black" points="632.75,-57.5 642.75,-54 632.75,-50.5 632.75,-57.5"/>
</g>
<!-- AugPrompt -->
<g id="node9" class="node">
<title>AugPrompt</title>
<path fill="#ffffff" stroke="black" d="M1208,-65C1208,-65 1098,-65 1098,-65 1092,-65 1086,-59 1086,-53 1086,-53 1086,-41 1086,-41 1086,-35 1092,-29 1098,-29 1098,-29 1208,-29 1208,-29 1214,-29 1220,-35 1220,-41 1220,-41 1220,-53 1220,-53 1220,-59 1214,-65 1208,-65"/>
<text text-anchor="middle" x="1153" y="-43.3" font-family="Helvetica,sans-Serif" font-size="14.00">Augmented Prompt</text>
</g>
<!-- ContextBuild&#45;&gt;AugPrompt -->
<g id="edge6" class="edge">
<title>ContextBuild&#45;&gt;AugPrompt</title>
<path fill="none" stroke="black" d="M1049.18,-47C1057.84,-47 1066.88,-47 1075.87,-47"/>
<polygon fill="black" stroke="black" points="1075.97,-50.5 1085.97,-47 1075.97,-43.5 1075.97,-50.5"/>
</g>
<!-- LM -->
<g id="node10" class="node">
<title>LM</title>
<path fill="#4caf50" stroke="black" d="M1363,-67C1363,-67 1269,-67 1269,-67 1263,-67 1257,-61 1257,-55 1257,-55 1257,-41 1257,-41 1257,-35 1263,-29 1269,-29 1269,-29 1363,-29 1363,-29 1369,-29 1375,-35 1375,-41 1375,-41 1375,-55 1375,-55 1375,-61 1369,-67 1363,-67"/>
<text text-anchor="middle" x="1316" y="-51.8" font-family="Helvetica,sans-Serif" font-size="14.00" fill="white">Language Model</text>
<text text-anchor="middle" x="1316" y="-36.8" font-family="Helvetica,sans-Serif" font-size="14.00" fill="white">GPT&#45;4 / BERT</text>
</g>
<!-- AugPrompt&#45;&gt;LM -->
<g id="edge13" class="edge">
<title>AugPrompt&#45;&gt;LM</title>
<path fill="none" stroke="black" d="M1220.41,-47.41C1229.13,-47.47 1238.07,-47.52 1246.82,-47.58"/>
<polygon fill="black" stroke="black" points="1246.95,-51.08 1256.97,-47.64 1246.99,-44.08 1246.95,-51.08"/>
</g>
<!-- Response -->
<g id="node11" class="node">
<title>Response</title>
<path fill="#ffffff" stroke="black" d="M1546,-66C1546,-66 1424,-66 1424,-66 1418,-66 1412,-60 1412,-54 1412,-54 1412,-42 1412,-42 1412,-36 1418,-30 1424,-30 1424,-30 1546,-30 1546,-30 1552,-30 1558,-36 1558,-42 1558,-42 1558,-54 1558,-54 1558,-60 1552,-66 1546,-66"/>
<text text-anchor="middle" x="1485" y="-44.3" font-family="Helvetica,sans-Serif" font-size="14.00">Generated Response</text>
</g>
<!-- LM&#45;&gt;Response -->
<g id="edge7" class="edge">
<title>LM&#45;&gt;Response</title>
<path fill="none" stroke="black" d="M1375.41,-48C1383.95,-48 1392.88,-48 1401.79,-48"/>
<polygon fill="black" stroke="black" points="1401.82,-51.5 1411.82,-48 1401.82,-44.5 1401.82,-51.5"/>
</g>
<!-- PostProcess -->
<g id="node12" class="node">
<title>PostProcess</title>
<path fill="#ffffff" stroke="black" d="M1698,-66C1698,-66 1607,-66 1607,-66 1601,-66 1595,-60 1595,-54 1595,-54 1595,-42 1595,-42 1595,-36 1601,-30 1607,-30 1607,-30 1698,-30 1698,-30 1704,-30 1710,-36 1710,-42 1710,-42 1710,-54 1710,-54 1710,-60 1704,-66 1698,-66"/>
<text text-anchor="middle" x="1652.5" y="-44.3" font-family="Helvetica,sans-Serif" font-size="14.00">Post&#45;Processing</text>
</g>
<!-- Response&#45;&gt;PostProcess -->
<g id="edge8" class="edge">
<title>Response&#45;&gt;PostProcess</title>
<path fill="none" stroke="black" d="M1558.11,-48C1566.94,-48 1575.93,-48 1584.67,-48"/>
<polygon fill="black" stroke="black" points="1584.8,-51.5 1594.8,-48 1584.8,-44.5 1584.8,-51.5"/>
</g>
<!-- Validation -->
<g id="node13" class="node">
<title>Validation</title>
<path fill="#ffffff" stroke="black" d="M1875,-66C1875,-66 1759,-66 1759,-66 1753,-66 1747,-60 1747,-54 1747,-54 1747,-42 1747,-42 1747,-36 1753,-30 1759,-30 1759,-30 1875,-30 1875,-30 1881,-30 1887,-36 1887,-42 1887,-42 1887,-54 1887,-54 1887,-60 1881,-66 1875,-66"/>
<text text-anchor="middle" x="1817" y="-44.3" font-family="Helvetica,sans-Serif" font-size="14.00">Response Validation</text>
</g>
<!-- PostProcess&#45;&gt;Validation -->
<g id="edge9" class="edge">
<title>PostProcess&#45;&gt;Validation</title>
<path fill="none" stroke="black" d="M1710.33,-48C1718.91,-48 1727.89,-48 1736.84,-48"/>
<polygon fill="black" stroke="black" points="1736.9,-51.5 1746.9,-48 1736.9,-44.5 1736.9,-51.5"/>
</g>
<!-- UserFeedback -->
<g id="node14" class="node">
<title>UserFeedback</title>
<path fill="#c8e6c9" stroke="black" d="M2011.46,-116.85C2011.46,-116.85 1936.04,-103.15 1936.04,-103.15 1930.13,-102.07 1930.13,-99.93 1936.04,-98.85 1936.04,-98.85 2011.46,-85.15 2011.46,-85.15 2017.37,-84.07 2029.17,-84.07 2035.08,-85.15 2035.08,-85.15 2110.5,-98.85 2110.5,-98.85 2116.4,-99.93 2116.4,-102.07 2110.5,-103.15 2110.5,-103.15 2035.08,-116.85 2035.08,-116.85 2029.17,-117.93 2017.37,-117.93 2011.46,-116.85"/>
<text text-anchor="middle" x="2023.27" y="-97.3" font-family="Helvetica,sans-Serif" font-size="14.00">User Feedback</text>
</g>
<!-- Validation&#45;&gt;UserFeedback -->
<g id="edge14" class="edge">
<title>Validation&#45;&gt;UserFeedback</title>
<path fill="none" stroke="black" d="M1885.72,-66.07C1895.86,-68.74 1906.2,-71.46 1916,-74 1933.94,-78.66 1953.61,-83.68 1971.1,-88.12"/>
<polygon fill="black" stroke="black" points="1970.56,-91.59 1981.11,-90.65 1972.28,-84.8 1970.56,-91.59"/>
</g>
<!-- FinalResponse -->
<g id="node17" class="node">
<title>FinalResponse</title>
<path fill="#bbdefb" stroke="black" d="M2090.27,-65C2090.27,-65 1956.27,-65 1956.27,-65 1950.27,-65 1944.27,-59 1944.27,-53 1944.27,-53 1944.27,-41 1944.27,-41 1944.27,-35 1950.27,-29 1956.27,-29 1956.27,-29 2090.27,-29 2090.27,-29 2096.27,-29 2102.27,-35 2102.27,-41 2102.27,-41 2102.27,-53 2102.27,-53 2102.27,-59 2096.27,-65 2090.27,-65"/>
<text text-anchor="middle" x="2023.27" y="-43.3" font-family="Helvetica,sans-Serif" font-size="14.00">Final Response to User</text>
</g>
<!-- Validation&#45;&gt;FinalResponse -->
<g id="edge18" class="edge">
<title>Validation&#45;&gt;FinalResponse</title>
<path fill="none" stroke="black" d="M1887.16,-47.66C1902.16,-47.59 1918.22,-47.51 1933.85,-47.43"/>
<polygon fill="black" stroke="black" points="1934.06,-50.93 1944.04,-47.38 1934.02,-43.93 1934.06,-50.93"/>
</g>
<!-- UpdateRewards -->
<g id="node15" class="node">
<title>UpdateRewards</title>
<path fill="#ffffff" stroke="black" d="M2358.54,-171C2358.54,-171 2224.54,-171 2224.54,-171 2218.54,-171 2212.54,-165 2212.54,-159 2212.54,-159 2212.54,-147 2212.54,-147 2212.54,-141 2218.54,-135 2224.54,-135 2224.54,-135 2358.54,-135 2358.54,-135 2364.54,-135 2370.54,-141 2370.54,-147 2370.54,-147 2370.54,-159 2370.54,-159 2370.54,-165 2364.54,-171 2358.54,-171"/>
<text text-anchor="middle" x="2291.54" y="-149.3" font-family="Helvetica,sans-Serif" font-size="14.00">Update Model Rewards</text>
</g>
<!-- UserFeedback&#45;&gt;UpdateRewards -->
<g id="edge15" class="edge">
<title>UserFeedback&#45;&gt;UpdateRewards</title>
<path fill="none" stroke="black" d="M2071.57,-110.24C2107.75,-117.3 2158.69,-127.25 2202.33,-135.77"/>
<polygon fill="black" stroke="black" points="2201.9,-139.25 2212.38,-137.74 2203.24,-132.38 2201.9,-139.25"/>
<text text-anchor="middle" x="2167.54" y="-136.8" font-family="Helvetica,sans-Serif" font-size="14.00">Positive</text>
</g>
<!-- RefinementQueue -->
<g id="node16" class="node">
<title>RefinementQueue</title>
<path fill="#ffffff" stroke="black" d="M2345.04,-117C2345.04,-117 2238.04,-117 2238.04,-117 2232.04,-117 2226.04,-111 2226.04,-105 2226.04,-105 2226.04,-93 2226.04,-93 2226.04,-87 2232.04,-81 2238.04,-81 2238.04,-81 2345.04,-81 2345.04,-81 2351.04,-81 2357.04,-87 2357.04,-93 2357.04,-93 2357.04,-105 2357.04,-105 2357.04,-111 2351.04,-117 2345.04,-117"/>
<text text-anchor="middle" x="2291.54" y="-95.3" font-family="Helvetica,sans-Serif" font-size="14.00">Refinement Queue</text>
</g>
<!-- UserFeedback&#45;&gt;RefinementQueue -->
<g id="edge16" class="edge">
<title>UserFeedback&#45;&gt;RefinementQueue</title>
<path fill="none" stroke="black" d="M2118.52,-100.29C2150.38,-100.05 2185.49,-99.79 2215.63,-99.56"/>
<polygon fill="black" stroke="black" points="2215.68,-103.06 2225.66,-99.49 2215.63,-96.06 2215.68,-103.06"/>
<text text-anchor="middle" x="2167.54" y="-103.8" font-family="Helvetica,sans-Serif" font-size="14.00">Negative</text>
</g>
<!-- RefinementQueue&#45;&gt;ContextBuild -->
<g id="edge17" class="edge">
<title>RefinementQueue&#45;&gt;ContextBuild</title>
<path fill="none" stroke="black" d="M2261.87,-80.8C2214.4,-52.46 2115.64,-1 2024.27,-1 1152,-1 1152,-1 1152,-1 1113.9,-1 1072.62,-13.27 1041.6,-25.13"/>
<polygon fill="black" stroke="black" points="1039.93,-22.03 1031.91,-28.95 1042.49,-28.54 1039.93,-22.03"/>
</g>
</g>
</svg>
