<?xml version="1.0" encoding="UTF-8" standalone="no"?>
<!DOCTYPE svg PUBLIC "-//W3C//DTD SVG 1.1//EN"
 "http://www.w3.org/Graphics/SVG/1.1/DTD/svg11.dtd">
<!-- Generated by graphviz version 2.43.0 (0)
 -->
<!-- Title: SecurityArchitecture Pages: 1 -->
<svg width="1070pt" height="548pt"
 viewBox="0.00 0.00 1070.00 548.00" xmlns="http://www.w3.org/2000/svg" xmlns:xlink="http://www.w3.org/1999/xlink">
<g id="graph0" class="graph" transform="scale(1 1) rotate(0) translate(4 544)">
<title>SecurityArchitecture</title>
<polygon fill="white" stroke="transparent" points="-4,4 -4,-544 1066,-544 1066,4 -4,4"/>
<text text-anchor="middle" x="531" y="-524.8" font-family="Helvetica,sans-Serif" font-size="14.00">PathfinderLM — Security Architecture</text>
<g id="clust1" class="cluster">
<title>cluster_auth</title>
<polygon fill="#e8f5e9" stroke="#e8f5e9" points="535,-396 535,-473 1054,-473 1054,-396 535,-396"/>
<text text-anchor="middle" x="794.5" y="-457.8" font-family="Helvetica,sans-Serif" font-size="14.00">Authentication Layer</text>
</g>
<g id="clust2" class="cluster">
<title>cluster_enc</title>
<polygon fill="#e3f2fd" stroke="#e3f2fd" points="226,-313 226,-388 886,-388 886,-313 226,-313"/>
<text text-anchor="middle" x="556" y="-372.8" font-family="Helvetica,sans-Serif" font-size="14.00">Encryption Layer</text>
</g>
<g id="clust3" class="cluster">
<title>cluster_det</title>
<polygon fill="#fff3e0" stroke="#fff3e0" points="8,-230 8,-305 667,-305 667,-230 8,-230"/>
<text text-anchor="middle" x="337.5" y="-289.8" font-family="Helvetica,sans-Serif" font-size="14.00">Detection &amp; Monitoring</text>
</g>
<g id="clust4" class="cluster">
<title>cluster_ia</title>
<polygon fill="#f3e5f5" stroke="#f3e5f5" points="25,-147 25,-222 660,-222 660,-147 25,-147"/>
<text text-anchor="middle" x="342.5" y="-206.8" font-family="Helvetica,sans-Serif" font-size="14.00">Information Assurance</text>
</g>
<g id="clust5" class="cluster">
<title>cluster_comp</title>
<polygon fill="#ffebee" stroke="#ffebee" points="49,-64 49,-139 618,-139 618,-64 49,-64"/>
<text text-anchor="middle" x="333.5" y="-123.8" font-family="Helvetica,sans-Serif" font-size="14.00">Compliance &amp; Privacy</text>
</g>
<!-- User -->
<g id="node1" class="node">
<title>User</title>
<ellipse fill="#cfd8dc" stroke="black" cx="808" cy="-499" rx="93.68" ry="18"/>
<text text-anchor="middle" x="808" y="-495.3" font-family="Helvetica,sans-Serif" font-size="14.00">User Communication</text>
</g>
<!-- A1 -->
<g id="node2" class="node">
<title>A1</title>
<path fill="#ffffff" stroke="black" d="M1033.5,-441C1033.5,-441 900.5,-441 900.5,-441 894.5,-441 888.5,-435 888.5,-429 888.5,-429 888.5,-417 888.5,-417 888.5,-411 894.5,-405 900.5,-405 900.5,-405 1033.5,-405 1033.5,-405 1039.5,-405 1045.5,-411 1045.5,-417 1045.5,-417 1045.5,-429 1045.5,-429 1045.5,-435 1039.5,-441 1033.5,-441"/>
<text text-anchor="middle" x="967" y="-419.3" font-family="Helvetica,sans-Serif" font-size="14.00">Digital Signatures (PKI)</text>
</g>
<!-- User&#45;&gt;A1 -->
<g id="edge1" class="edge">
<title>User&#45;&gt;A1</title>
<path fill="none" stroke="black" d="M854.19,-483.34C862.87,-480.2 871.8,-476.7 880,-473 897.17,-465.26 915.44,-455.26 930.79,-446.31"/>
<polygon fill="black" stroke="black" points="932.62,-449.29 939.45,-441.19 929.06,-443.27 932.62,-449.29"/>
</g>
<!-- A2 -->
<g id="node3" class="node">
<title>A2</title>
<path fill="#ffffff" stroke="black" d="M858.5,-442C858.5,-442 757.5,-442 757.5,-442 751.5,-442 745.5,-436 745.5,-430 745.5,-430 745.5,-416 745.5,-416 745.5,-410 751.5,-404 757.5,-404 757.5,-404 858.5,-404 858.5,-404 864.5,-404 870.5,-410 870.5,-416 870.5,-416 870.5,-430 870.5,-430 870.5,-436 864.5,-442 858.5,-442"/>
<text text-anchor="middle" x="808" y="-426.8" font-family="Helvetica,sans-Serif" font-size="14.00">Biometric Auth</text>
<text text-anchor="middle" x="808" y="-411.8" font-family="Helvetica,sans-Serif" font-size="14.00">Voice / Behavioral</text>
</g>
<!-- User&#45;&gt;A2 -->
<g id="edge2" class="edge">
<title>User&#45;&gt;A2</title>
<path fill="none" stroke="black" d="M808,-480.84C808,-472.31 808,-461.78 808,-452.12"/>
<polygon fill="black" stroke="black" points="811.5,-452.1 808,-442.1 804.5,-452.1 811.5,-452.1"/>
</g>
<!-- A3 -->
<g id="node4" class="node">
<title>A3</title>
<path fill="#ffffff" stroke="black" d="M715,-441C715,-441 555,-441 555,-441 549,-441 543,-435 543,-429 543,-429 543,-417 543,-417 543,-411 549,-405 555,-405 555,-405 715,-405 715,-405 721,-405 727,-411 727,-417 727,-417 727,-429 727,-429 727,-435 721,-441 715,-441"/>
<text text-anchor="middle" x="635" y="-419.3" font-family="Helvetica,sans-Serif" font-size="14.00">Challenge&#45;Response (OTP)</text>
</g>
<!-- User&#45;&gt;A3 -->
<g id="edge3" class="edge">
<title>User&#45;&gt;A3</title>
<path fill="none" stroke="black" d="M763.4,-483.14C754.59,-479.96 745.45,-476.5 737,-473 717.07,-464.73 695.46,-454.54 677.28,-445.59"/>
<polygon fill="black" stroke="black" points="678.63,-442.35 668.12,-441.04 675.52,-448.62 678.63,-442.35"/>
</g>
<!-- E1 -->
<g id="node5" class="node">
<title>E1</title>
<path fill="#ffffff" stroke="black" d="M866,-357C866,-357 750,-357 750,-357 744,-357 738,-351 738,-345 738,-345 738,-333 738,-333 738,-327 744,-321 750,-321 750,-321 866,-321 866,-321 872,-321 878,-327 878,-333 878,-333 878,-345 878,-345 878,-351 872,-357 866,-357"/>
<text text-anchor="middle" x="808" y="-335.3" font-family="Helvetica,sans-Serif" font-size="14.00">AES&#45;256 Symmetric</text>
</g>
<!-- A1&#45;&gt;E1 -->
<g id="edge4" class="edge">
<title>A1&#45;&gt;E1</title>
<path fill="none" stroke="black" d="M933.67,-404.81C909.31,-392.25 876.11,-375.13 849.95,-361.63"/>
<polygon fill="black" stroke="black" points="851.51,-358.5 841.02,-357.03 848.3,-364.72 851.51,-358.5"/>
</g>
<!-- A2&#45;&gt;E1 -->
<g id="edge5" class="edge">
<title>A2&#45;&gt;E1</title>
<path fill="none" stroke="black" d="M808,-403.8C808,-393 808,-379.1 808,-367.04"/>
<polygon fill="black" stroke="black" points="811.5,-367.03 808,-357.03 804.5,-367.03 811.5,-367.03"/>
</g>
<!-- A3&#45;&gt;E1 -->
<g id="edge6" class="edge">
<title>A3&#45;&gt;E1</title>
<path fill="none" stroke="black" d="M687.96,-404.93C701.56,-399.98 716.01,-394.22 729,-388 744.32,-380.67 760.47,-371.19 774.15,-362.6"/>
<polygon fill="black" stroke="black" points="776.2,-365.45 782.75,-357.12 772.44,-359.55 776.2,-365.45"/>
</g>
<!-- D1 -->
<g id="node9" class="node">
<title>D1</title>
<path fill="#ffffff" stroke="black" d="M646.5,-274C646.5,-274 507.5,-274 507.5,-274 501.5,-274 495.5,-268 495.5,-262 495.5,-262 495.5,-250 495.5,-250 495.5,-244 501.5,-238 507.5,-238 507.5,-238 646.5,-238 646.5,-238 652.5,-238 658.5,-244 658.5,-250 658.5,-250 658.5,-262 658.5,-262 658.5,-268 652.5,-274 646.5,-274"/>
<text text-anchor="middle" x="577" y="-252.3" font-family="Helvetica,sans-Serif" font-size="14.00">Anomaly Detection (ML)</text>
</g>
<!-- E1&#45;&gt;D1 -->
<g id="edge7" class="edge">
<title>E1&#45;&gt;D1</title>
<path fill="none" stroke="black" d="M759.29,-320.92C723.05,-308.21 673.44,-290.82 635.12,-277.38"/>
<polygon fill="black" stroke="black" points="636.24,-274.06 625.64,-274.06 633.92,-280.67 636.24,-274.06"/>
</g>
<!-- E2 -->
<g id="node6" class="node">
<title>E2</title>
<path fill="#ffffff" stroke="black" d="M707.5,-357C707.5,-357 612.5,-357 612.5,-357 606.5,-357 600.5,-351 600.5,-345 600.5,-345 600.5,-333 600.5,-333 600.5,-327 606.5,-321 612.5,-321 612.5,-321 707.5,-321 707.5,-321 713.5,-321 719.5,-327 719.5,-333 719.5,-333 719.5,-345 719.5,-345 719.5,-351 713.5,-357 707.5,-357"/>
<text text-anchor="middle" x="660" y="-335.3" font-family="Helvetica,sans-Serif" font-size="14.00">RSA Asymmetric</text>
</g>
<!-- E2&#45;&gt;D1 -->
<g id="edge8" class="edge">
<title>E2&#45;&gt;D1</title>
<path fill="none" stroke="black" d="M642.4,-320.82C630.62,-309.33 614.96,-294.04 601.91,-281.31"/>
<polygon fill="black" stroke="black" points="604.18,-278.63 594.58,-274.15 599.29,-283.64 604.18,-278.63"/>
</g>
<!-- E3 -->
<g id="node7" class="node">
<title>E3</title>
<path fill="#ffffff" stroke="black" d="M570,-357C570,-357 416,-357 416,-357 410,-357 404,-351 404,-345 404,-345 404,-333 404,-333 404,-327 410,-321 416,-321 416,-321 570,-321 570,-321 576,-321 582,-327 582,-333 582,-333 582,-345 582,-345 582,-351 576,-357 570,-357"/>
<text text-anchor="middle" x="493" y="-335.3" font-family="Helvetica,sans-Serif" font-size="14.00">Hash Functions (SHA&#45;256)</text>
</g>
<!-- E3&#45;&gt;D1 -->
<g id="edge9" class="edge">
<title>E3&#45;&gt;D1</title>
<path fill="none" stroke="black" d="M510.81,-320.82C522.73,-309.33 538.59,-294.04 551.79,-281.31"/>
<polygon fill="black" stroke="black" points="554.44,-283.61 559.21,-274.15 549.58,-278.58 554.44,-283.61"/>
</g>
<!-- E4 -->
<g id="node8" class="node">
<title>E4</title>
<path fill="#ffffff" stroke="black" d="M374,-357C374,-357 246,-357 246,-357 240,-357 234,-351 234,-345 234,-345 234,-333 234,-333 234,-327 240,-321 246,-321 246,-321 374,-321 374,-321 380,-321 386,-327 386,-333 386,-333 386,-345 386,-345 386,-351 380,-357 374,-357"/>
<text text-anchor="middle" x="310" y="-335.3" font-family="Helvetica,sans-Serif" font-size="14.00">End&#45;to&#45;End Encryption</text>
</g>
<!-- E4&#45;&gt;D1 -->
<g id="edge10" class="edge">
<title>E4&#45;&gt;D1</title>
<path fill="none" stroke="black" d="M362.2,-320.88C372.95,-317.86 384.27,-315.03 395,-313 434.89,-305.46 447.05,-316.47 486,-305 505.66,-299.21 525.98,-288.96 542.42,-279.42"/>
<polygon fill="black" stroke="black" points="544.33,-282.36 551.12,-274.23 540.74,-276.35 544.33,-282.36"/>
</g>
<!-- IA1 -->
<g id="node13" class="node">
<title>IA1</title>
<path fill="#ffffff" stroke="black" d="M639.5,-191C639.5,-191 512.5,-191 512.5,-191 506.5,-191 500.5,-185 500.5,-179 500.5,-179 500.5,-167 500.5,-167 500.5,-161 506.5,-155 512.5,-155 512.5,-155 639.5,-155 639.5,-155 645.5,-155 651.5,-161 651.5,-167 651.5,-167 651.5,-179 651.5,-179 651.5,-185 645.5,-191 639.5,-191"/>
<text text-anchor="middle" x="576" y="-169.3" font-family="Helvetica,sans-Serif" font-size="14.00">Entropy Measurement</text>
</g>
<!-- D1&#45;&gt;IA1 -->
<g id="edge11" class="edge">
<title>D1&#45;&gt;IA1</title>
<path fill="none" stroke="black" d="M576.79,-237.82C576.66,-227.19 576.49,-213.31 576.34,-201.2"/>
<polygon fill="black" stroke="black" points="579.84,-201.11 576.21,-191.15 572.84,-201.2 579.84,-201.11"/>
</g>
<!-- D2 -->
<g id="node10" class="node">
<title>D2</title>
<path fill="#ffffff" stroke="black" d="M465.5,-274C465.5,-274 328.5,-274 328.5,-274 322.5,-274 316.5,-268 316.5,-262 316.5,-262 316.5,-250 316.5,-250 316.5,-244 322.5,-238 328.5,-238 328.5,-238 465.5,-238 465.5,-238 471.5,-238 477.5,-244 477.5,-250 477.5,-250 477.5,-262 477.5,-262 477.5,-268 471.5,-274 465.5,-274"/>
<text text-anchor="middle" x="397" y="-252.3" font-family="Helvetica,sans-Serif" font-size="14.00">Voice Cloning Detection</text>
</g>
<!-- IA2 -->
<g id="node14" class="node">
<title>IA2</title>
<path fill="#ffffff" stroke="black" d="M470.5,-191C470.5,-191 355.5,-191 355.5,-191 349.5,-191 343.5,-185 343.5,-179 343.5,-179 343.5,-167 343.5,-167 343.5,-161 349.5,-155 355.5,-155 355.5,-155 470.5,-155 470.5,-155 476.5,-155 482.5,-161 482.5,-167 482.5,-167 482.5,-179 482.5,-179 482.5,-185 476.5,-191 470.5,-191"/>
<text text-anchor="middle" x="413" y="-169.3" font-family="Helvetica,sans-Serif" font-size="14.00">Shannon&#39;s Theorem</text>
</g>
<!-- D2&#45;&gt;IA2 -->
<g id="edge12" class="edge">
<title>D2&#45;&gt;IA2</title>
<path fill="none" stroke="black" d="M400.39,-237.82C402.49,-227.19 405.24,-213.31 407.63,-201.2"/>
<polygon fill="black" stroke="black" points="411.11,-201.64 409.61,-191.15 404.24,-200.29 411.11,-201.64"/>
</g>
<!-- D3 -->
<g id="node11" class="node">
<title>D3</title>
<path fill="#ffffff" stroke="black" d="M286.5,-274C286.5,-274 189.5,-274 189.5,-274 183.5,-274 177.5,-268 177.5,-262 177.5,-262 177.5,-250 177.5,-250 177.5,-244 183.5,-238 189.5,-238 189.5,-238 286.5,-238 286.5,-238 292.5,-238 298.5,-244 298.5,-250 298.5,-250 298.5,-262 298.5,-262 298.5,-268 292.5,-274 286.5,-274"/>
<text text-anchor="middle" x="238" y="-252.3" font-family="Helvetica,sans-Serif" font-size="14.00">MITM Prevention</text>
</g>
<!-- IA3 -->
<g id="node15" class="node">
<title>IA3</title>
<path fill="#ffffff" stroke="black" d="M313,-191C313,-191 163,-191 163,-191 157,-191 151,-185 151,-179 151,-179 151,-167 151,-167 151,-161 157,-155 163,-155 163,-155 313,-155 313,-155 319,-155 325,-161 325,-167 325,-167 325,-179 325,-179 325,-185 319,-191 313,-191"/>
<text text-anchor="middle" x="238" y="-169.3" font-family="Helvetica,sans-Serif" font-size="14.00">Continuous Authentication</text>
</g>
<!-- D3&#45;&gt;IA3 -->
<g id="edge13" class="edge">
<title>D3&#45;&gt;IA3</title>
<path fill="none" stroke="black" d="M238,-237.82C238,-227.19 238,-213.31 238,-201.2"/>
<polygon fill="black" stroke="black" points="241.5,-201.15 238,-191.15 234.5,-201.15 241.5,-201.15"/>
</g>
<!-- D4 -->
<g id="node12" class="node">
<title>D4</title>
<path fill="#ffffff" stroke="black" d="M147.5,-274C147.5,-274 28.5,-274 28.5,-274 22.5,-274 16.5,-268 16.5,-262 16.5,-262 16.5,-250 16.5,-250 16.5,-244 22.5,-238 28.5,-238 28.5,-238 147.5,-238 147.5,-238 153.5,-238 159.5,-244 159.5,-250 159.5,-250 159.5,-262 159.5,-262 159.5,-268 153.5,-274 147.5,-274"/>
<text text-anchor="middle" x="88" y="-252.3" font-family="Helvetica,sans-Serif" font-size="14.00">Real&#45;time Monitoring</text>
</g>
<!-- IA4 -->
<g id="node16" class="node">
<title>IA4</title>
<path fill="#ffffff" stroke="black" d="M120.5,-191C120.5,-191 45.5,-191 45.5,-191 39.5,-191 33.5,-185 33.5,-179 33.5,-179 33.5,-167 33.5,-167 33.5,-161 39.5,-155 45.5,-155 45.5,-155 120.5,-155 120.5,-155 126.5,-155 132.5,-161 132.5,-167 132.5,-167 132.5,-179 132.5,-179 132.5,-185 126.5,-191 120.5,-191"/>
<text text-anchor="middle" x="83" y="-169.3" font-family="Helvetica,sans-Serif" font-size="14.00">Audit Logging</text>
</g>
<!-- D4&#45;&gt;IA4 -->
<g id="edge14" class="edge">
<title>D4&#45;&gt;IA4</title>
<path fill="none" stroke="black" d="M86.94,-237.82C86.28,-227.19 85.43,-213.31 84.68,-201.2"/>
<polygon fill="black" stroke="black" points="88.17,-200.92 84.06,-191.15 81.18,-201.35 88.17,-200.92"/>
</g>
<!-- C1 -->
<g id="node17" class="node">
<title>C1</title>
<path fill="#ffffff" stroke="black" d="M598,-108C598,-108 490,-108 490,-108 484,-108 478,-102 478,-96 478,-96 478,-84 478,-84 478,-78 484,-72 490,-72 490,-72 598,-72 598,-72 604,-72 610,-78 610,-84 610,-84 610,-96 610,-96 610,-102 604,-108 598,-108"/>
<text text-anchor="middle" x="544" y="-86.3" font-family="Helvetica,sans-Serif" font-size="14.00">GDPR Compliance</text>
</g>
<!-- IA1&#45;&gt;C1 -->
<g id="edge15" class="edge">
<title>IA1&#45;&gt;C1</title>
<path fill="none" stroke="black" d="M569.21,-154.82C564.93,-143.98 559.31,-129.74 554.46,-117.47"/>
<polygon fill="black" stroke="black" points="557.71,-116.17 550.78,-108.15 551.2,-118.74 557.71,-116.17"/>
</g>
<!-- C2 -->
<g id="node18" class="node">
<title>C2</title>
<path fill="#ffffff" stroke="black" d="M448,-108C448,-108 350,-108 350,-108 344,-108 338,-102 338,-96 338,-96 338,-84 338,-84 338,-78 344,-72 350,-72 350,-72 448,-72 448,-72 454,-72 460,-78 460,-84 460,-84 460,-96 460,-96 460,-102 454,-108 448,-108"/>
<text text-anchor="middle" x="399" y="-86.3" font-family="Helvetica,sans-Serif" font-size="14.00">HIPAA Standards</text>
</g>
<!-- IA2&#45;&gt;C2 -->
<g id="edge16" class="edge">
<title>IA2&#45;&gt;C2</title>
<path fill="none" stroke="black" d="M410.03,-154.82C408.19,-144.19 405.79,-130.31 403.7,-118.2"/>
<polygon fill="black" stroke="black" points="407.12,-117.41 401.96,-108.15 400.22,-118.6 407.12,-117.41"/>
</g>
<!-- C3 -->
<g id="node19" class="node">
<title>C3</title>
<path fill="#ffffff" stroke="black" d="M308,-108C308,-108 194,-108 194,-108 188,-108 182,-102 182,-96 182,-96 182,-84 182,-84 182,-78 188,-72 194,-72 194,-72 308,-72 308,-72 314,-72 320,-78 320,-84 320,-84 320,-96 320,-96 320,-102 314,-108 308,-108"/>
<text text-anchor="middle" x="251" y="-86.3" font-family="Helvetica,sans-Serif" font-size="14.00">Data Anonymization</text>
</g>
<!-- IA3&#45;&gt;C3 -->
<g id="edge17" class="edge">
<title>IA3&#45;&gt;C3</title>
<path fill="none" stroke="black" d="M240.76,-154.82C242.46,-144.19 244.69,-130.31 246.63,-118.2"/>
<polygon fill="black" stroke="black" points="250.12,-118.58 248.25,-108.15 243.21,-117.47 250.12,-118.58"/>
</g>
<!-- C4 -->
<g id="node20" class="node">
<title>C4</title>
<path fill="#ffffff" stroke="black" d="M151.5,-108C151.5,-108 68.5,-108 68.5,-108 62.5,-108 56.5,-102 56.5,-96 56.5,-96 56.5,-84 56.5,-84 56.5,-78 62.5,-72 68.5,-72 68.5,-72 151.5,-72 151.5,-72 157.5,-72 163.5,-78 163.5,-84 163.5,-84 163.5,-96 163.5,-96 163.5,-102 157.5,-108 151.5,-108"/>
<text text-anchor="middle" x="110" y="-86.3" font-family="Helvetica,sans-Serif" font-size="14.00">Access Control</text>
</g>
<!-- IA4&#45;&gt;C4 -->
<g id="edge18" class="edge">
<title>IA4&#45;&gt;C4</title>
<path fill="none" stroke="black" d="M88.73,-154.82C92.31,-144.08 96.99,-130.03 101.05,-117.84"/>
<polygon fill="black" stroke="black" points="104.44,-118.75 104.28,-108.15 97.8,-116.53 104.44,-118.75"/>
</g>
<!-- SecureSystem -->
<g id="node21" class="node">
<title>SecureSystem</title>
<path fill="#4caf50" stroke="black" d="M410,-36C410,-36 240,-36 240,-36 234,-36 228,-30 228,-24 228,-24 228,-12 228,-12 228,-6 234,0 240,0 240,0 410,0 410,0 416,0 422,-6 422,-12 422,-12 422,-24 422,-24 422,-30 416,-36 410,-36"/>
<text text-anchor="middle" x="325" y="-14.3" font-family="Helvetica,sans-Serif" font-size="14.00" fill="white">Secure PathfinderLM System</text>
</g>
<!-- C1&#45;&gt;SecureSystem -->
<g id="edge19" class="edge">
<title>C1&#45;&gt;SecureSystem</title>
<path fill="none" stroke="black" d="M493.21,-71.93C485.12,-69.25 476.84,-66.53 469,-64 443.25,-55.69 414.84,-46.76 390.11,-39.06"/>
<polygon fill="black" stroke="black" points="391.05,-35.69 380.47,-36.07 388.98,-42.37 391.05,-35.69"/>
</g>
<!-- C2&#45;&gt;SecureSystem -->
<g id="edge20" class="edge">
<title>C2&#45;&gt;SecureSystem</title>
<path fill="none" stroke="black" d="M380.71,-71.7C371.57,-63.05 360.36,-52.45 350.4,-43.03"/>
<polygon fill="black" stroke="black" points="352.75,-40.43 343.08,-36.1 347.94,-45.52 352.75,-40.43"/>
</g>
<!-- C3&#45;&gt;SecureSystem -->
<g id="edge21" class="edge">
<title>C3&#45;&gt;SecureSystem</title>
<path fill="none" stroke="black" d="M269.29,-71.7C278.43,-63.05 289.64,-52.45 299.6,-43.03"/>
<polygon fill="black" stroke="black" points="302.06,-45.52 306.92,-36.1 297.25,-40.43 302.06,-45.52"/>
</g>
<!-- C4&#45;&gt;SecureSystem -->
<g id="edge22" class="edge">
<title>C4&#45;&gt;SecureSystem</title>
<path fill="none" stroke="black" d="M151.48,-71.93C158.62,-69.17 165.99,-66.42 173,-64 198.83,-55.07 227.5,-46.3 252.91,-38.9"/>
<polygon fill="black" stroke="black" points="254.21,-42.17 262.85,-36.03 252.27,-35.44 254.21,-42.17"/>
</g>
</g>
</svg>
