<?xml version="1.0" encoding="UTF-8" standalone="no"?>
<!DOCTYPE svg PUBLIC "-//W3C//DTD SVG 1.1//EN"
 "http://www.w3.org/Graphics/SVG/1.1/DTD/svg11.dtd">
<!-- Generated by graphviz version 2.43.0 (0)
 -->
<!-- Title: SystemArchitecture Pages: 1 -->
<svg width="1068pt" height="680pt"
 viewBox="0.00 0.00 1068.00 680.25" xmlns="http://www.w3.org/2000/svg" xmlns:xlink="http://www.w3.org/1999/xlink">
<g id="graph0" class="graph" transform="scale(1 1) rotate(0) translate(4 676.25)">
<title>SystemArchitecture</title>
<polygon fill="white" stroke="transparent" points="-4,4 -4,-676.25 1064,-676.25 1064,4 -4,4"/>
<text text-anchor="middle" x="530" y="-657.05" font-family="Helvetica,sans-Serif" font-size="14.00">PathfinderLM — System Architecture</text>
<g id="clust1" class="cluster">
<title>cluster_client</title>
<polygon fill="#eceff1" stroke="#eceff1" points="423,-566.25 423,-641.25 740,-641.25 740,-566.25 423,-566.25"/>
<text text-anchor="middle" x="581.5" y="-626.05" font-family="Helvetica,sans-Serif" font-size="14.00">Client Layer</text>
</g>
<g id="clust2" class="cluster">
<title>cluster_app</title>
<polygon fill="#e8f5e9" stroke="#e8f5e9" points="474,-336.25 474,-558.25 642,-558.25 642,-336.25 474,-336.25"/>
<text text-anchor="middle" x="558" y="-543.05" font-family="Helvetica,sans-Serif" font-size="14.00">Application Layer</text>
</g>
<g id="clust3" class="cluster">
<title>cluster_aiml</title>
<polygon fill="#fff3e0" stroke="#fff3e0" points="389,-107.25 389,-328.25 642,-328.25 642,-107.25 389,-107.25"/>
<text text-anchor="middle" x="515.5" y="-313.05" font-family="Helvetica,sans-Serif" font-size="14.00">AI/ML Layer</text>
</g>
<g id="clust4" class="cluster">
<title>cluster_data</title>
<polygon fill="#e3f2fd" stroke="#e3f2fd" points="239,-8 239,-99.25 807,-99.25 807,-8 239,-8"/>
<text text-anchor="middle" x="523" y="-84.05" font-family="Helvetica,sans-Serif" font-size="14.00">Data Layer</text>
</g>
<g id="clust5" class="cluster">
<title>cluster_sec</title>
<polygon fill="#ffe0b2" stroke="#ffe0b2" points="8,-408.25 8,-558.25 466,-558.25 466,-408.25 8,-408.25"/>
<text text-anchor="middle" x="237" y="-543.05" font-family="Helvetica,sans-Serif" font-size="14.00">Security Layer</text>
</g>
<g id="clust6" class="cluster">
<title>cluster_infra</title>
<polygon fill="#eceff1" stroke="#eceff1" points="720,-253.25 720,-483.25 1052,-483.25 1052,-253.25 720,-253.25"/>
<text text-anchor="middle" x="886" y="-468.05" font-family="Helvetica,sans-Serif" font-size="14.00">Infrastructure Layer</text>
</g>
<!-- WebUI -->
<g id="node1" class="node">
<title>WebUI</title>
<path fill="#ffffff" stroke="black" d="M719.5,-610.25C719.5,-610.25 642.5,-610.25 642.5,-610.25 636.5,-610.25 630.5,-604.25 630.5,-598.25 630.5,-598.25 630.5,-586.25 630.5,-586.25 630.5,-580.25 636.5,-574.25 642.5,-574.25 642.5,-574.25 719.5,-574.25 719.5,-574.25 725.5,-574.25 731.5,-580.25 731.5,-586.25 731.5,-586.25 731.5,-598.25 731.5,-598.25 731.5,-604.25 725.5,-610.25 719.5,-610.25"/>
<text text-anchor="middle" x="681" y="-588.55" font-family="Helvetica,sans-Serif" font-size="14.00">Web Interface</text>
</g>
<!-- Flask -->
<g id="node4" class="node">
<title>Flask</title>
<path fill="#ffffff" stroke="black" d="M617.5,-527.25C617.5,-527.25 522.5,-527.25 522.5,-527.25 516.5,-527.25 510.5,-521.25 510.5,-515.25 510.5,-515.25 510.5,-503.25 510.5,-503.25 510.5,-497.25 516.5,-491.25 522.5,-491.25 522.5,-491.25 617.5,-491.25 617.5,-491.25 623.5,-491.25 629.5,-497.25 629.5,-503.25 629.5,-503.25 629.5,-515.25 629.5,-515.25 629.5,-521.25 623.5,-527.25 617.5,-527.25"/>
<text text-anchor="middle" x="570" y="-505.55" font-family="Helvetica,sans-Serif" font-size="14.00">Flask Application</text>
</g>
<!-- WebUI&#45;&gt;Flask -->
<g id="edge1" class="edge">
<title>WebUI&#45;&gt;Flask</title>
<path fill="none" stroke="black" d="M657.46,-574.07C641.27,-562.26 619.58,-546.43 601.85,-533.49"/>
<polygon fill="black" stroke="black" points="603.65,-530.47 593.51,-527.4 599.52,-536.13 603.65,-530.47"/>
</g>
<!-- MobileUI -->
<g id="node2" class="node">
<title>MobileUI</title>
<path fill="#ffffff" stroke="black" d="M600.5,-610.25C600.5,-610.25 539.5,-610.25 539.5,-610.25 533.5,-610.25 527.5,-604.25 527.5,-598.25 527.5,-598.25 527.5,-586.25 527.5,-586.25 527.5,-580.25 533.5,-574.25 539.5,-574.25 539.5,-574.25 600.5,-574.25 600.5,-574.25 606.5,-574.25 612.5,-580.25 612.5,-586.25 612.5,-586.25 612.5,-598.25 612.5,-598.25 612.5,-604.25 606.5,-610.25 600.5,-610.25"/>
<text text-anchor="middle" x="570" y="-588.55" font-family="Helvetica,sans-Serif" font-size="14.00">Mobile App</text>
</g>
<!-- MobileUI&#45;&gt;Flask -->
<g id="edge2" class="edge">
<title>MobileUI&#45;&gt;Flask</title>
<path fill="none" stroke="black" d="M570,-574.07C570,-563.44 570,-549.56 570,-537.45"/>
<polygon fill="black" stroke="black" points="573.5,-537.4 570,-527.4 566.5,-537.4 573.5,-537.4"/>
</g>
<!-- API -->
<g id="node3" class="node">
<title>API</title>
<path fill="#ffffff" stroke="black" d="M497,-610.25C497,-610.25 443,-610.25 443,-610.25 437,-610.25 431,-604.25 431,-598.25 431,-598.25 431,-586.25 431,-586.25 431,-580.25 437,-574.25 443,-574.25 443,-574.25 497,-574.25 497,-574.25 503,-574.25 509,-580.25 509,-586.25 509,-586.25 509,-598.25 509,-598.25 509,-604.25 503,-610.25 497,-610.25"/>
<text text-anchor="middle" x="470" y="-588.55" font-family="Helvetica,sans-Serif" font-size="14.00">REST API</text>
</g>
<!-- API&#45;&gt;Flask -->
<g id="edge3" class="edge">
<title>API&#45;&gt;Flask</title>
<path fill="none" stroke="black" d="M491.21,-574.07C505.66,-562.37 524.98,-546.72 540.87,-533.85"/>
<polygon fill="black" stroke="black" points="543.26,-536.42 548.82,-527.4 538.85,-530.98 543.26,-536.42"/>
</g>
<!-- Routes -->
<g id="node5" class="node">
<title>Routes</title>
<path fill="#ffffff" stroke="black" d="M605,-452.25C605,-452.25 519,-452.25 519,-452.25 513,-452.25 507,-446.25 507,-440.25 507,-440.25 507,-428.25 507,-428.25 507,-422.25 513,-416.25 519,-416.25 519,-416.25 605,-416.25 605,-416.25 611,-416.25 617,-422.25 617,-428.25 617,-428.25 617,-440.25 617,-440.25 617,-446.25 611,-452.25 605,-452.25"/>
<text text-anchor="middle" x="562" y="-430.55" font-family="Helvetica,sans-Serif" font-size="14.00">Route Handlers</text>
</g>
<!-- Flask&#45;&gt;Routes -->
<g id="edge4" class="edge">
<title>Flask&#45;&gt;Routes</title>
<path fill="none" stroke="black" d="M568.1,-490.95C567.18,-482.5 566.04,-472.12 565,-462.62"/>
<polygon fill="black" stroke="black" points="568.45,-461.98 563.88,-452.43 561.49,-462.75 568.45,-461.98"/>
</g>
<!-- UserData -->
<g id="node13" class="node">
<title>UserData</title>
<path fill="#ffffff" stroke="black" d="M798.5,-56.85C798.5,-58.66 764.66,-60.12 723,-60.12 681.34,-60.12 647.5,-58.66 647.5,-56.85 647.5,-56.85 647.5,-27.4 647.5,-27.4 647.5,-25.59 681.34,-24.12 723,-24.12 764.66,-24.12 798.5,-25.59 798.5,-27.4 798.5,-27.4 798.5,-56.85 798.5,-56.85"/>
<path fill="none" stroke="black" d="M798.5,-56.85C798.5,-55.05 764.66,-53.58 723,-53.58 681.34,-53.58 647.5,-55.05 647.5,-56.85"/>
<text text-anchor="middle" x="723" y="-38.42" font-family="Helvetica,sans-Serif" font-size="14.00">User Data (Encrypted)</text>
</g>
<!-- Flask&#45;&gt;UserData -->
<g id="edge13" class="edge">
<title>Flask&#45;&gt;UserData</title>
<path fill="none" stroke="black" d="M614.92,-491.22C618.87,-488.85 622.64,-486.2 626,-483.25 673.15,-441.98 700,-425.91 700,-363.25 700,-363.25 700,-363.25 700,-205.25 700,-157.49 709.91,-102.59 716.72,-70.49"/>
<polygon fill="black" stroke="black" points="720.18,-71.04 718.89,-60.52 713.34,-69.55 720.18,-71.04"/>
</g>
<!-- Docker -->
<g id="node19" class="node">
<title>Docker</title>
<path fill="#ffffff" stroke="black" d="M848,-452.25C848,-452.25 744,-452.25 744,-452.25 738,-452.25 732,-446.25 732,-440.25 732,-440.25 732,-428.25 732,-428.25 732,-422.25 738,-416.25 744,-416.25 744,-416.25 848,-416.25 848,-416.25 854,-416.25 860,-422.25 860,-428.25 860,-428.25 860,-440.25 860,-440.25 860,-446.25 854,-452.25 848,-452.25"/>
<text text-anchor="middle" x="796" y="-430.55" font-family="Helvetica,sans-Serif" font-size="14.00">Docker Containers</text>
</g>
<!-- Flask&#45;&gt;Docker -->
<g id="edge19" class="edge">
<title>Flask&#45;&gt;Docker</title>
<path fill="none" stroke="black" d="M629.74,-502.74C656.14,-499.07 687.19,-493.06 714,-483.25 731.19,-476.96 748.89,-467.1 763.42,-457.96"/>
<polygon fill="black" stroke="black" points="765.53,-460.76 772.02,-452.39 761.73,-454.88 765.53,-460.76"/>
</g>
<!-- Auth -->
<g id="node6" class="node">
<title>Auth</title>
<path fill="#ffffff" stroke="black" d="M621.5,-380.25C621.5,-380.25 494.5,-380.25 494.5,-380.25 488.5,-380.25 482.5,-374.25 482.5,-368.25 482.5,-368.25 482.5,-356.25 482.5,-356.25 482.5,-350.25 488.5,-344.25 494.5,-344.25 494.5,-344.25 621.5,-344.25 621.5,-344.25 627.5,-344.25 633.5,-350.25 633.5,-356.25 633.5,-356.25 633.5,-368.25 633.5,-368.25 633.5,-374.25 627.5,-380.25 621.5,-380.25"/>
<text text-anchor="middle" x="558" y="-358.55" font-family="Helvetica,sans-Serif" font-size="14.00">Authentication Module</text>
</g>
<!-- Routes&#45;&gt;Auth -->
<g id="edge5" class="edge">
<title>Routes&#45;&gt;Auth</title>
<path fill="none" stroke="black" d="M561.01,-415.95C560.57,-408.23 560.04,-398.96 559.55,-390.36"/>
<polygon fill="black" stroke="black" points="563.04,-390.14 558.98,-380.35 556.05,-390.54 563.04,-390.14"/>
</g>
<!-- LM -->
<g id="node7" class="node">
<title>LM</title>
<path fill="#4caf50" stroke="black" d="M622,-225.25C622,-225.25 528,-225.25 528,-225.25 522,-225.25 516,-219.25 516,-213.25 516,-213.25 516,-199.25 516,-199.25 516,-193.25 522,-187.25 528,-187.25 528,-187.25 622,-187.25 622,-187.25 628,-187.25 634,-193.25 634,-199.25 634,-199.25 634,-213.25 634,-213.25 634,-219.25 628,-225.25 622,-225.25"/>
<text text-anchor="middle" x="575" y="-210.05" font-family="Helvetica,sans-Serif" font-size="14.00" fill="white">Language Model</text>
<text text-anchor="middle" x="575" y="-195.05" font-family="Helvetica,sans-Serif" font-size="14.00" fill="white">GPT&#45;4 / BERT</text>
</g>
<!-- Routes&#45;&gt;LM -->
<g id="edge6" class="edge">
<title>Routes&#45;&gt;LM</title>
<path fill="none" stroke="black" d="M604.11,-416.12C619.18,-407.7 634.53,-395.92 643,-380.25 669.85,-330.6 669.47,-303.11 643,-253.25 638.48,-244.74 631.62,-237.52 623.95,-231.5"/>
<polygon fill="black" stroke="black" points="625.58,-228.37 615.4,-225.44 621.53,-234.08 625.58,-228.37"/>
</g>
<!-- Biometric -->
<g id="node10" class="node">
<title>Biometric</title>
<path fill="#ffffff" stroke="black" d="M490.5,-297.25C490.5,-297.25 409.5,-297.25 409.5,-297.25 403.5,-297.25 397.5,-291.25 397.5,-285.25 397.5,-285.25 397.5,-273.25 397.5,-273.25 397.5,-267.25 403.5,-261.25 409.5,-261.25 409.5,-261.25 490.5,-261.25 490.5,-261.25 496.5,-261.25 502.5,-267.25 502.5,-273.25 502.5,-273.25 502.5,-285.25 502.5,-285.25 502.5,-291.25 496.5,-297.25 490.5,-297.25"/>
<text text-anchor="middle" x="450" y="-275.55" font-family="Helvetica,sans-Serif" font-size="14.00">Biometric Auth</text>
</g>
<!-- Auth&#45;&gt;Biometric -->
<g id="edge11" class="edge">
<title>Auth&#45;&gt;Biometric</title>
<path fill="none" stroke="black" d="M533.53,-343.95C526.54,-338.93 518.93,-333.42 512,-328.25 501.43,-320.37 489.98,-311.58 479.83,-303.7"/>
<polygon fill="black" stroke="black" points="481.7,-300.71 471.66,-297.33 477.39,-306.24 481.7,-300.71"/>
</g>
<!-- VoiceVerif -->
<g id="node16" class="node">
<title>VoiceVerif</title>
<path fill="#ffffff" stroke="black" d="M125.5,-527.25C125.5,-527.25 28.5,-527.25 28.5,-527.25 22.5,-527.25 16.5,-521.25 16.5,-515.25 16.5,-515.25 16.5,-503.25 16.5,-503.25 16.5,-497.25 22.5,-491.25 28.5,-491.25 28.5,-491.25 125.5,-491.25 125.5,-491.25 131.5,-491.25 137.5,-497.25 137.5,-503.25 137.5,-503.25 137.5,-515.25 137.5,-515.25 137.5,-521.25 131.5,-527.25 125.5,-527.25"/>
<text text-anchor="middle" x="77" y="-505.55" font-family="Helvetica,sans-Serif" font-size="14.00">Voice Verification</text>
</g>
<!-- Auth&#45;&gt;VoiceVerif -->
<g id="edge12" class="edge">
<title>Auth&#45;&gt;VoiceVerif</title>
<path fill="none" stroke="black" d="M482.28,-366.34C396.88,-371.04 264.36,-382.34 222,-408.25 187.4,-429.41 203.16,-459.89 170,-483.25 167.49,-485.02 158.77,-487.83 147.6,-490.94"/>
<polygon fill="black" stroke="black" points="146.47,-487.62 137.73,-493.6 148.3,-494.38 146.47,-487.62"/>
</g>
<!-- RAG -->
<g id="node8" class="node">
<title>RAG</title>
<path fill="#2196f3" stroke="black" d="M481,-151.25C481,-151.25 409,-151.25 409,-151.25 403,-151.25 397,-145.25 397,-139.25 397,-139.25 397,-127.25 397,-127.25 397,-121.25 403,-115.25 409,-115.25 409,-115.25 481,-115.25 481,-115.25 487,-115.25 493,-121.25 493,-127.25 493,-127.25 493,-139.25 493,-139.25 493,-145.25 487,-151.25 481,-151.25"/>
<text text-anchor="middle" x="445" y="-129.55" font-family="Helvetica,sans-Serif" font-size="14.00" fill="white">RAG System</text>
</g>
<!-- LM&#45;&gt;RAG -->
<g id="edge7" class="edge">
<title>LM&#45;&gt;RAG</title>
<path fill="none" stroke="black" d="M541.86,-187.15C524.69,-177.77 503.58,-166.25 485.46,-156.35"/>
<polygon fill="black" stroke="black" points="486.74,-153.06 476.29,-151.34 483.39,-159.2 486.74,-153.06"/>
</g>
<!-- Models -->
<g id="node14" class="node">
<title>Models</title>
<path fill="#ffffff" stroke="black" d="M629.5,-56.85C629.5,-58.66 605.97,-60.12 577,-60.12 548.03,-60.12 524.5,-58.66 524.5,-56.85 524.5,-56.85 524.5,-27.4 524.5,-27.4 524.5,-25.59 548.03,-24.12 577,-24.12 605.97,-24.12 629.5,-25.59 629.5,-27.4 629.5,-27.4 629.5,-56.85 629.5,-56.85"/>
<path fill="none" stroke="black" d="M629.5,-56.85C629.5,-55.05 605.97,-53.58 577,-53.58 548.03,-53.58 524.5,-55.05 524.5,-56.85"/>
<text text-anchor="middle" x="577" y="-38.42" font-family="Helvetica,sans-Serif" font-size="14.00">Model Storage</text>
</g>
<!-- LM&#45;&gt;Models -->
<g id="edge14" class="edge">
<title>LM&#45;&gt;Models</title>
<path fill="none" stroke="black" d="M575.23,-186.97C575.57,-158.69 576.25,-104.17 576.66,-70.97"/>
<polygon fill="black" stroke="black" points="580.16,-70.65 576.78,-60.6 573.16,-70.56 580.16,-70.65"/>
</g>
<!-- VectorDB -->
<g id="node11" class="node">
<title>VectorDB</title>
<path fill="#ffffff" stroke="black" d="M506.5,-63.6C506.5,-66.24 478.93,-68.38 445,-68.38 411.07,-68.38 383.5,-66.24 383.5,-63.6 383.5,-63.6 383.5,-20.65 383.5,-20.65 383.5,-18.01 411.07,-15.87 445,-15.87 478.93,-15.87 506.5,-18.01 506.5,-20.65 506.5,-20.65 506.5,-63.6 506.5,-63.6"/>
<path fill="none" stroke="black" d="M506.5,-63.6C506.5,-60.97 478.93,-58.83 445,-58.83 411.07,-58.83 383.5,-60.97 383.5,-63.6"/>
<text text-anchor="middle" x="445" y="-45.92" font-family="Helvetica,sans-Serif" font-size="14.00">Vector Database</text>
<text text-anchor="middle" x="445" y="-30.93" font-family="Helvetica,sans-Serif" font-size="14.00">FAISS / Pinecone</text>
</g>
<!-- RAG&#45;&gt;VectorDB -->
<g id="edge8" class="edge">
<title>RAG&#45;&gt;VectorDB</title>
<path fill="none" stroke="black" d="M445,-115.07C445,-104.71 445,-91.14 445,-78.58"/>
<polygon fill="black" stroke="black" points="448.5,-78.35 445,-68.35 441.5,-78.35 448.5,-78.35"/>
</g>
<!-- KnowledgeBase -->
<g id="node12" class="node">
<title>KnowledgeBase</title>
<path fill="#ffffff" stroke="black" d="M365,-56.85C365,-58.66 338.56,-60.12 306,-60.12 273.44,-60.12 247,-58.66 247,-56.85 247,-56.85 247,-27.4 247,-27.4 247,-25.59 273.44,-24.12 306,-24.12 338.56,-24.12 365,-25.59 365,-27.4 365,-27.4 365,-56.85 365,-56.85"/>
<path fill="none" stroke="black" d="M365,-56.85C365,-55.05 338.56,-53.58 306,-53.58 273.44,-53.58 247,-55.05 247,-56.85"/>
<text text-anchor="middle" x="306" y="-38.42" font-family="Helvetica,sans-Serif" font-size="14.00">Knowledge Base</text>
</g>
<!-- RAG&#45;&gt;KnowledgeBase -->
<g id="edge9" class="edge">
<title>RAG&#45;&gt;KnowledgeBase</title>
<path fill="none" stroke="black" d="M404.5,-115.2C394.6,-110.48 384.21,-105.05 375,-99.25 359.99,-89.8 344.56,-77.54 332.11,-66.88"/>
<polygon fill="black" stroke="black" points="334.23,-64.09 324.39,-60.16 329.63,-69.37 334.23,-64.09"/>
</g>
<!-- NLP -->
<g id="node9" class="node">
<title>NLP</title>
<path fill="#ffffff" stroke="black" d="M621.5,-297.25C621.5,-297.25 532.5,-297.25 532.5,-297.25 526.5,-297.25 520.5,-291.25 520.5,-285.25 520.5,-285.25 520.5,-273.25 520.5,-273.25 520.5,-267.25 526.5,-261.25 532.5,-261.25 532.5,-261.25 621.5,-261.25 621.5,-261.25 627.5,-261.25 633.5,-267.25 633.5,-273.25 633.5,-273.25 633.5,-285.25 633.5,-285.25 633.5,-291.25 627.5,-297.25 621.5,-297.25"/>
<text text-anchor="middle" x="577" y="-275.55" font-family="Helvetica,sans-Serif" font-size="14.00">NLP Processing</text>
</g>
<!-- NLP&#45;&gt;LM -->
<g id="edge10" class="edge">
<title>NLP&#45;&gt;LM</title>
<path fill="none" stroke="black" d="M576.52,-261.06C576.3,-253.36 576.04,-244.07 575.79,-235.4"/>
<polygon fill="black" stroke="black" points="579.29,-235.17 575.51,-225.27 572.29,-235.36 579.29,-235.17"/>
</g>
<!-- Encryption -->
<g id="node15" class="node">
<title>Encryption</title>
<path fill="#ffffff" stroke="black" d="M371,-452.25C371,-452.25 243,-452.25 243,-452.25 237,-452.25 231,-446.25 231,-440.25 231,-440.25 231,-428.25 231,-428.25 231,-422.25 237,-416.25 243,-416.25 243,-416.25 371,-416.25 371,-416.25 377,-416.25 383,-422.25 383,-428.25 383,-428.25 383,-440.25 383,-440.25 383,-446.25 377,-452.25 371,-452.25"/>
<text text-anchor="middle" x="307" y="-430.55" font-family="Helvetica,sans-Serif" font-size="14.00">End&#45;to&#45;End Encryption</text>
</g>
<!-- Encryption&#45;&gt;Flask -->
<g id="edge15" class="edge">
<title>Encryption&#45;&gt;Flask</title>
<path fill="none" stroke="black" stroke-dasharray="5,2" d="M362.66,-452.26C394.09,-461.71 434.13,-473.49 470,-483.25 479.88,-485.94 490.34,-488.67 500.62,-491.3"/>
<polygon fill="black" stroke="black" points="499.85,-494.72 510.41,-493.78 501.57,-487.93 499.85,-494.72"/>
</g>
<!-- VoiceVerif&#45;&gt;Auth -->
<g id="edge16" class="edge">
<title>VoiceVerif&#45;&gt;Auth</title>
<path fill="none" stroke="black" stroke-dasharray="5,2" d="M87.41,-490.97C102.43,-467.75 132.56,-427.2 170,-408.25 221.2,-382.33 374.31,-371.02 472.19,-366.32"/>
<polygon fill="black" stroke="black" points="472.54,-369.81 482.37,-365.85 472.21,-362.82 472.54,-369.81"/>
</g>
<!-- Anomaly -->
<g id="node17" class="node">
<title>Anomaly</title>
<path fill="#ffffff" stroke="black" d="M445.5,-527.25C445.5,-527.25 338.5,-527.25 338.5,-527.25 332.5,-527.25 326.5,-521.25 326.5,-515.25 326.5,-515.25 326.5,-503.25 326.5,-503.25 326.5,-497.25 332.5,-491.25 338.5,-491.25 338.5,-491.25 445.5,-491.25 445.5,-491.25 451.5,-491.25 457.5,-497.25 457.5,-503.25 457.5,-503.25 457.5,-515.25 457.5,-515.25 457.5,-521.25 451.5,-527.25 445.5,-527.25"/>
<text text-anchor="middle" x="392" y="-505.55" font-family="Helvetica,sans-Serif" font-size="14.00">Anomaly Detection</text>
</g>
<!-- Anomaly&#45;&gt;Routes -->
<g id="edge17" class="edge">
<title>Anomaly&#45;&gt;Routes</title>
<path fill="none" stroke="black" stroke-dasharray="5,2" d="M449.07,-491.21C456.19,-488.72 463.31,-486.04 470,-483.25 487.93,-475.76 507.08,-466.07 523.24,-457.35"/>
<polygon fill="black" stroke="black" points="525.28,-460.23 532.37,-452.36 521.92,-454.08 525.28,-460.23"/>
</g>
<!-- IAFramework -->
<g id="node18" class="node">
<title>IAFramework</title>
<path fill="#ffffff" stroke="black" d="M296,-527.25C296,-527.25 168,-527.25 168,-527.25 162,-527.25 156,-521.25 156,-515.25 156,-515.25 156,-503.25 156,-503.25 156,-497.25 162,-491.25 168,-491.25 168,-491.25 296,-491.25 296,-491.25 302,-491.25 308,-497.25 308,-503.25 308,-503.25 308,-515.25 308,-515.25 308,-521.25 302,-527.25 296,-527.25"/>
<text text-anchor="middle" x="232" y="-505.55" font-family="Helvetica,sans-Serif" font-size="14.00">Information Assurance</text>
</g>
<!-- IAFramework&#45;&gt;Encryption -->
<g id="edge18" class="edge">
<title>IAFramework&#45;&gt;Encryption</title>
<path fill="none" stroke="black" stroke-dasharray="5,2" d="M249.77,-490.95C259.39,-481.59 271.44,-469.87 281.99,-459.59"/>
<polygon fill="black" stroke="black" points="284.63,-461.91 289.35,-452.43 279.75,-456.89 284.63,-461.91"/>
</g>
<!-- Ubuntu -->
<g id="node20" class="node">
<title>Ubuntu</title>
<path fill="#ffffff" stroke="black" d="M852,-380.25C852,-380.25 750,-380.25 750,-380.25 744,-380.25 738,-374.25 738,-368.25 738,-368.25 738,-356.25 738,-356.25 738,-350.25 744,-344.25 750,-344.25 750,-344.25 852,-344.25 852,-344.25 858,-344.25 864,-350.25 864,-356.25 864,-356.25 864,-368.25 864,-368.25 864,-374.25 858,-380.25 852,-380.25"/>
<text text-anchor="middle" x="801" y="-358.55" font-family="Helvetica,sans-Serif" font-size="14.00">Ubuntu 22.04 LTS</text>
</g>
<!-- Docker&#45;&gt;Ubuntu -->
<g id="edge20" class="edge">
<title>Docker&#45;&gt;Ubuntu</title>
<path fill="none" stroke="black" d="M797.24,-415.95C797.79,-408.23 798.45,-398.96 799.06,-390.36"/>
<polygon fill="black" stroke="black" points="802.56,-390.58 799.78,-380.35 795.57,-390.08 802.56,-390.58"/>
</g>
<!-- GPU -->
<g id="node21" class="node">
<title>GPU</title>
<path fill="#ffffff" stroke="black" d="M862,-297.25C862,-297.25 740,-297.25 740,-297.25 734,-297.25 728,-291.25 728,-285.25 728,-285.25 728,-273.25 728,-273.25 728,-267.25 734,-261.25 740,-261.25 740,-261.25 862,-261.25 862,-261.25 868,-261.25 874,-267.25 874,-273.25 874,-273.25 874,-285.25 874,-285.25 874,-291.25 868,-297.25 862,-297.25"/>
<text text-anchor="middle" x="801" y="-275.55" font-family="Helvetica,sans-Serif" font-size="14.00">NVIDIA GPU Support</text>
</g>
<!-- Ubuntu&#45;&gt;GPU -->
<g id="edge21" class="edge">
<title>Ubuntu&#45;&gt;GPU</title>
<path fill="none" stroke="black" d="M801,-344.07C801,-333.44 801,-319.56 801,-307.45"/>
<polygon fill="black" stroke="black" points="804.5,-307.4 801,-297.4 797.5,-307.4 804.5,-307.4"/>
</g>
<!-- Monitor -->
<g id="node22" class="node">
<title>Monitor</title>
<path fill="#ffffff" stroke="black" d="M1031.5,-297.25C1031.5,-297.25 904.5,-297.25 904.5,-297.25 898.5,-297.25 892.5,-291.25 892.5,-285.25 892.5,-285.25 892.5,-273.25 892.5,-273.25 892.5,-267.25 898.5,-261.25 904.5,-261.25 904.5,-261.25 1031.5,-261.25 1031.5,-261.25 1037.5,-261.25 1043.5,-267.25 1043.5,-273.25 1043.5,-273.25 1043.5,-285.25 1043.5,-285.25 1043.5,-291.25 1037.5,-297.25 1031.5,-297.25"/>
<text text-anchor="middle" x="968" y="-275.55" font-family="Helvetica,sans-Serif" font-size="14.00">Prometheus / Grafana</text>
</g>
<!-- Ubuntu&#45;&gt;Monitor -->
<g id="edge22" class="edge">
<title>Ubuntu&#45;&gt;Monitor</title>
<path fill="none" stroke="black" d="M846.58,-344.14C858.56,-339.31 871.38,-333.84 883,-328.25 899.06,-320.52 916.27,-311.04 930.98,-302.56"/>
<polygon fill="black" stroke="black" points="932.9,-305.49 939.78,-297.42 929.38,-299.44 932.9,-305.49"/>
</g>
</g>
</svg>
