<?xml version="1.0" encoding="UTF-8" standalone="no"?>
<!DOCTYPE svg PUBLIC "-//W3C//DTD SVG 1.1//EN"
 "http://www.w3.org/Graphics/SVG/1.1/DTD/svg11.dtd">
<!-- Generated by graphviz version 2.43.0 (0)
 -->
<!-- Title: SystemArchitecture Pages: 1 -->
<svg width="1068pt" height="695pt"
 viewBox="0.00 0.00 1068.00 695.25" xmlns="http://www.w3.org/2000/svg" xmlns:xlink="http://www.w3.org/1999/xlink">
<g id="graph0" class="graph" transform="scale(1 1) rotate(0) translate(4 691.25)">
<title>SystemArchitecture</title>
<polygon fill="white" stroke="transparent" points="-4,4 -4,-691.25 1064,-691.25 1064,4 -4,4"/>
<text text-anchor="middle" x="530" y="-672.05" font-family="Helvetica,sans-Serif" font-size="14.00">PathfinderLM — System Architecture</text>
<g id="clust1" class="cluster">
<title>cluster_client</title>
<polygon fill="#eceff1" stroke="#eceff1" points="423,-581.25 423,-656.25 740,-656.25 740,-581.25 423,-581.25"/>
<text text-anchor="middle" x="581.5" y="-641.05" font-family="Helvetica,sans-Serif" font-size="14.00">Client Layer</text>
</g>
<g id="clust2" class="cluster">
<title>cluster_app</title>
<polygon fill="#e8f5e9" stroke="#e8f5e9" points="474,-351.25 474,-573.25 642,-573.25 642,-351.25 474,-351.25"/>
<text text-anchor="middle" x="558" y="-558.05" font-family="Helvetica,sans-Serif" font-size="14.00">Application Layer</text>
</g>
<g id="clust3" class="cluster">
<title>cluster_aiml</title>
<polygon fill="#fff3e0" stroke="#fff3e0" points="389,-107.25 389,-343.25 642,-343.25 642,-107.25 389,-107.25"/>
<text text-anchor="middle" x="515.5" y="-328.05" font-family="Helvetica,sans-Serif" font-size="14.00">AI/ML Layer</text>
</g>
<g id="clust4" class="cluster">
<title>cluster_data</title>
<polygon fill="#e3f2fd" stroke="#e3f2fd" points="243,-8 243,-99.25 805,-99.25 805,-8 243,-8"/>
<text text-anchor="middle" x="524" y="-84.05" font-family="Helvetica,sans-Serif" font-size="14.00">Data Layer</text>
</g>
<g id="clust5" class="cluster">
<title>cluster_sec</title>
<polygon fill="#ffe0b2" stroke="#ffe0b2" points="8,-423.25 8,-573.25 466,-573.25 466,-423.25 8,-423.25"/>
<text text-anchor="middle" x="237" y="-558.05" font-family="Helvetica,sans-Serif" font-size="14.00">Security Layer</text>
</g>
<g id="clust6" class="cluster">
<title>cluster_infra</title>
<polygon fill="#eceff1" stroke="#eceff1" points="720,-268.25 720,-498.25 1052,-498.25 1052,-268.25 720,-268.25"/>
<text text-anchor="middle" x="886" y="-483.05" font-family="Helvetica,sans-Serif" font-size="14.00">Infrastructure Layer</text>
</g>
<!-- WebUI -->
<g id="node1" class="node">
<title>WebUI</title>
<path fill="#ffffff" stroke="black" d="M719.5,-625.25C719.5,-625.25 642.5,-625.25 642.5,-625.25 636.5,-625.25 630.5,-619.25 630.5,-613.25 630.5,-613.25 630.5,-601.25 630.5,-601.25 630.5,-595.25 636.5,-589.25 642.5,-589.25 642.5,-589.25 719.5,-589.25 719.5,-589.25 725.5,-589.25 731.5,-595.25 731.5,-601.25 731.5,-601.25 731.5,-613.25 731.5,-613.25 731.5,-619.25 725.5,-625.25 719.5,-625.25"/>
<text text-anchor="middle" x="681" y="-603.55" font-family="Helvetica,sans-Serif" font-size="14.00">Web Interface</text>
</g>
<!-- Flask -->
<g id="node4" class="node">
<title>Flask</title>
<path fill="#ffffff" stroke="black" d="M617.5,-542.25C617.5,-542.25 522.5,-542.25 522.5,-542.25 516.5,-542.25 510.5,-536.25 510.5,-530.25 510.5,-530.25 510.5,-518.25 510.5,-518.25 510.5,-512.25 516.5,-506.25 522.5,-506.25 522.5,-506.25 617.5,-506.25 617.5,-506.25 623.5,-506.25 629.5,-512.25 629.5,-518.25 629.5,-518.25 629.5,-530.25 629.5,-530.25 629.5,-536.25 623.5,-542.25 617.5,-542.25"/>
<text text-anchor="middle" x="570" y="-520.55" font-family="Helvetica,sans-Serif" font-size="14.00">Flask Application</text>
</g>
<!-- WebUI&#45;&gt;Flask -->
<g id="edge1" class="edge">
<title>WebUI&#45;&gt;Flask</title>
<path fill="none" stroke="black" d="M657.46,-589.07C641.27,-577.26 619.58,-561.43 601.85,-548.49"/>
<polygon fill="black" stroke="black" points="603.65,-545.47 593.51,-542.4 599.52,-551.13 603.65,-545.47"/>
</g>
<!-- MobileUI -->
<g id="node2" class="node">
<title>MobileUI</title>
<path fill="#ffffff" stroke="black" d="M600.5,-625.25C600.5,-625.25 539.5,-625.25 539.5,-625.25 533.5,-625.25 527.5,-619.25 527.5,-613.25 527.5,-613.25 527.5,-601.25 527.5,-601.25 527.5,-595.25 533.5,-589.25 539.5,-589.25 539.5,-589.25 600.5,-589.25 600.5,-589.25 606.5,-589.25 612.5,-595.25 612.5,-601.25 612.5,-601.25 612.5,-613.25 612.5,-613.25 612.5,-619.25 606.5,-625.25 600.5,-625.25"/>
<text text-anchor="middle" x="570" y="-603.55" font-family="Helvetica,sans-Serif" font-size="14.00">Mobile App</text>
</g>
<!-- MobileUI&#45;&gt;Flask -->
<g id="edge2" class="edge">
<title>MobileUI&#45;&gt;Flask</title>
<path fill="none" stroke="black" d="M570,-589.07C570,-578.44 570,-564.56 570,-552.45"/>
<polygon fill="black" stroke="black" points="573.5,-552.4 570,-542.4 566.5,-552.4 573.5,-552.4"/>
</g>
<!-- API -->
<g id="node3" class="node">
<title>API</title>
<path fill="#ffffff" stroke="black" d="M497,-625.25C497,-625.25 443,-625.25 443,-625.25 437,-625.25 431,-619.25 431,-613.25 431,-613.25 431,-601.25 431,-601.25 431,-595.25 437,-589.25 443,-589.25 443,-589.25 497,-589.25 497,-589.25 503,-589.25 509,-595.25 509,-601.25 509,-601.25 509,-613.25 509,-613.25 509,-619.25 503,-625.25 497,-625.25"/>
<text text-anchor="middle" x="470" y="-603.55" font-family="Helvetica,sans-Serif" font-size="14.00">REST API</text>
</g>
<!-- API&#45;&gt;Flask -->
<g id="edge3" class="edge">
<title>API&#45;&gt;Flask</title>
<path fill="none" stroke="black" d="M491.21,-589.07C505.66,-577.37 524.98,-561.72 540.87,-548.85"/>
<polygon fill="black" stroke="black" points="543.26,-551.42 548.82,-542.4 538.85,-545.98 543.26,-551.42"/>
</g>
<!-- Routes -->
<g id="node5" class="node">
<title>Routes</title>
<path fill="#ffffff" stroke="black" d="M605,-467.25C605,-467.25 519,-467.25 519,-467.25 513,-467.25 507,-461.25 507,-455.25 507,-455.25 507,-443.25 507,-443.25 507,-437.25 513,-431.25 519,-431.25 519,-431.25 605,-431.25 605,-431.25 611,-431.25 617,-437.25 617,-443.25 617,-443.25 617,-455.25 617,-455.25 617,-461.25 611,-467.25 605,-467.25"/>
<text text-anchor="middle" x="562" y="-445.55" font-family="Helvetica,sans-Serif" font-size="14.00">Route Handlers</text>
</g>
<!-- Flask&#45;&gt;Routes -->
<g id="edge4" class="edge">
<title>Flask&#45;&gt;Routes</title>
<path fill="none" stroke="black" d="M568.1,-505.95C567.18,-497.5 566.04,-487.12 565,-477.62"/>
<polygon fill="black" stroke="black" points="568.45,-476.98 563.88,-467.43 561.49,-477.75 568.45,-476.98"/>
</g>
<!-- UserData -->
<g id="node13" class="node">
<title>UserData</title>
<path fill="#ffffff" stroke="black" d="M796.5,-56.85C796.5,-58.66 762.66,-60.12 721,-60.12 679.34,-60.12 645.5,-58.66 645.5,-56.85 645.5,-56.85 645.5,-27.4 645.5,-27.4 645.5,-25.59 679.34,-24.12 721,-24.12 762.66,-24.12 796.5,-25.59 796.5,-27.4 796.5,-27.4 796.5,-56.85 796.5,-56.85"/>
<path fill="none" stroke="black" d="M796.5,-56.85C796.5,-55.05 762.66,-53.58 721,-53.58 679.34,-53.58 645.5,-55.05 645.5,-56.85"/>
<text text-anchor="middle" x="721" y="-38.42" font-family="Helvetica,sans-Serif" font-size="14.00">User Data (Encrypted)</text>
</g>
<!-- Flask&#45;&gt;UserData -->
<g id="edge13" class="edge">
<title>Flask&#45;&gt;UserData</title>
<path fill="none" stroke="black" d="M614.92,-506.22C618.87,-503.85 622.64,-501.2 626,-498.25 673.15,-456.98 700,-440.91 700,-378.25 700,-378.25 700,-378.25 700,-212.75 700,-162.14 709.32,-103.68 715.54,-70.29"/>
<polygon fill="black" stroke="black" points="719,-70.85 717.44,-60.38 712.12,-69.54 719,-70.85"/>
</g>
<!-- Docker -->
<g id="node19" class="node">
<title>Docker</title>
<path fill="#ffffff" stroke="black" d="M848,-467.25C848,-467.25 744,-467.25 744,-467.25 738,-467.25 732,-461.25 732,-455.25 732,-455.25 732,-443.25 732,-443.25 732,-437.25 738,-431.25 744,-431.25 744,-431.25 848,-431.25 848,-431.25 854,-431.25 860,-437.25 860,-443.25 860,-443.25 860,-455.25 860,-455.25 860,-461.25 854,-467.25 848,-467.25"/>
<text text-anchor="middle" x="796" y="-445.55" font-family="Helvetica,sans-Serif" font-size="14.00">Docker Containers</text>
</g>
<!-- Flask&#45;&gt;Docker -->
<g id="edge19" class="edge">
<title>Flask&#45;&gt;Docker</title>
<path fill="none" stroke="black" d="M629.74,-517.74C656.14,-514.07 687.19,-508.06 714,-498.25 731.19,-491.96 748.89,-482.1 763.42,-472.96"/>
<polygon fill="black" stroke="black" points="765.53,-475.76 772.02,-467.39 761.73,-469.88 765.53,-475.76"/>
</g>
<!-- Auth -->
<g id="node6" class="node">
<title>Auth</title>
<path fill="#ffffff" stroke="black" d="M621.5,-395.25C621.5,-395.25 494.5,-395.25 494.5,-395.25 488.5,-395.25 482.5,-389.25 482.5,-383.25 482.5,-383.25 482.5,-371.25 482.5,-371.25 482.5,-365.25 488.5,-359.25 494.5,-359.25 494.5,-359.25 621.5,-359.25 621.5,-359.25 627.5,-359.25 633.5,-365.25 633.5,-371.25 633.5,-371.25 633.5,-383.25 633.5,-383.25 633.5,-389.25 627.5,-395.25 621.5,-395.25"/>
<text text-anchor="middle" x="558" y="-373.55" font-family="Helvetica,sans-Serif" font-size="14.00">Authentication Module</text>
</g>
<!-- Routes&#45;&gt;Auth -->
<g id="edge5" class="edge">
<title>Routes&#45;&gt;Auth</title>
<path fill="none" stroke="black" d="M561.01,-430.95C560.57,-423.23 560.04,-413.96 559.55,-405.36"/>
<polygon fill="black" stroke="black" points="563.04,-405.14 558.98,-395.35 556.05,-405.54 563.04,-405.14"/>
</g>
<!-- LM -->
<g id="node7" class="node">
<title>LM</title>
<path fill="#4caf50" stroke="black" d="M622,-240.25C622,-240.25 528,-240.25 528,-240.25 522,-240.25 516,-234.25 516,-228.25 516,-228.25 516,-199.25 516,-199.25 516,-193.25 522,-187.25 528,-187.25 528,-187.25 622,-187.25 622,-187.25 628,-187.25 634,-193.25 634,-199.25 634,-199.25 634,-228.25 634,-228.25 634,-234.25 628,-240.25 622,-240.25"/>
<text text-anchor="middle" x="575" y="-225.05" font-family="Helvetica,sans-Serif" font-size="14.00" fill="white">LLM Runtime</text>
<text text-anchor="middle" x="575" y="-210.05" font-family="Helvetica,sans-Serif" font-size="14.00" fill="white">Ollama 0.22.1</text>
<text text-anchor="middle" x="575" y="-195.05" font-family="Helvetica,sans-Serif" font-size="14.00" fill="white">deepseek&#45;r1:14b</text>
</g>
<!-- Routes&#45;&gt;LM -->
<g id="edge6" class="edge">
<title>Routes&#45;&gt;LM</title>
<path fill="none" stroke="black" d="M604.11,-431.12C619.18,-422.7 634.53,-410.92 643,-395.25 669.85,-345.6 667.66,-319.02 643,-268.25 639.23,-260.48 633.72,-253.5 627.44,-247.35"/>
<polygon fill="black" stroke="black" points="629.58,-244.56 619.78,-240.51 624.91,-249.78 629.58,-244.56"/>
</g>
<!-- Biometric -->
<g id="node10" class="node">
<title>Biometric</title>
<path fill="#ffffff" stroke="black" d="M490.5,-312.25C490.5,-312.25 409.5,-312.25 409.5,-312.25 403.5,-312.25 397.5,-306.25 397.5,-300.25 397.5,-300.25 397.5,-288.25 397.5,-288.25 397.5,-282.25 403.5,-276.25 409.5,-276.25 409.5,-276.25 490.5,-276.25 490.5,-276.25 496.5,-276.25 502.5,-282.25 502.5,-288.25 502.5,-288.25 502.5,-300.25 502.5,-300.25 502.5,-306.25 496.5,-312.25 490.5,-312.25"/>
<text text-anchor="middle" x="450" y="-290.55" font-family="Helvetica,sans-Serif" font-size="14.00">Biometric Auth</text>
</g>
<!-- Auth&#45;&gt;Biometric -->
<g id="edge11" class="edge">
<title>Auth&#45;&gt;Biometric</title>
<path fill="none" stroke="black" d="M533.53,-358.95C526.54,-353.93 518.93,-348.42 512,-343.25 501.43,-335.37 489.98,-326.58 479.83,-318.7"/>
<polygon fill="black" stroke="black" points="481.7,-315.71 471.66,-312.33 477.39,-321.24 481.7,-315.71"/>
</g>
<!-- VoiceVerif -->
<g id="node16" class="node">
<title>VoiceVerif</title>
<path fill="#ffffff" stroke="black" d="M125.5,-542.25C125.5,-542.25 28.5,-542.25 28.5,-542.25 22.5,-542.25 16.5,-536.25 16.5,-530.25 16.5,-530.25 16.5,-518.25 16.5,-518.25 16.5,-512.25 22.5,-506.25 28.5,-506.25 28.5,-506.25 125.5,-506.25 125.5,-506.25 131.5,-506.25 137.5,-512.25 137.5,-518.25 137.5,-518.25 137.5,-530.25 137.5,-530.25 137.5,-536.25 131.5,-542.25 125.5,-542.25"/>
<text text-anchor="middle" x="77" y="-520.55" font-family="Helvetica,sans-Serif" font-size="14.00">Voice Verification</text>
</g>
<!-- Auth&#45;&gt;VoiceVerif -->
<g id="edge12" class="edge">
<title>Auth&#45;&gt;VoiceVerif</title>
<path fill="none" stroke="black" d="M482.28,-381.34C396.88,-386.04 264.36,-397.34 222,-423.25 187.4,-444.41 203.16,-474.89 170,-498.25 167.49,-500.02 158.77,-502.83 147.6,-505.94"/>
<polygon fill="black" stroke="black" points="146.47,-502.62 137.73,-508.6 148.3,-509.38 146.47,-502.62"/>
</g>
<!-- RAG -->
<g id="node8" class="node">
<title>RAG</title>
<path fill="#2196f3" stroke="black" d="M482,-151.25C482,-151.25 410,-151.25 410,-151.25 404,-151.25 398,-145.25 398,-139.25 398,-139.25 398,-127.25 398,-127.25 398,-121.25 404,-115.25 410,-115.25 410,-115.25 482,-115.25 482,-115.25 488,-115.25 494,-121.25 494,-127.25 494,-127.25 494,-139.25 494,-139.25 494,-145.25 488,-151.25 482,-151.25"/>
<text text-anchor="middle" x="446" y="-129.55" font-family="Helvetica,sans-Serif" font-size="14.00" fill="white">RAG System</text>
</g>
<!-- LM&#45;&gt;RAG -->
<g id="edge7" class="edge">
<title>LM&#45;&gt;RAG</title>
<path fill="none" stroke="black" d="M532.76,-187.05C516.67,-177.25 498.47,-166.18 482.91,-156.71"/>
<polygon fill="black" stroke="black" points="484.45,-153.55 474.09,-151.34 480.81,-159.53 484.45,-153.55"/>
</g>
<!-- Models -->
<g id="node14" class="node">
<title>Models</title>
<path fill="#ffffff" stroke="black" d="M627.5,-56.85C627.5,-58.66 603.97,-60.12 575,-60.12 546.03,-60.12 522.5,-58.66 522.5,-56.85 522.5,-56.85 522.5,-27.4 522.5,-27.4 522.5,-25.59 546.03,-24.12 575,-24.12 603.97,-24.12 627.5,-25.59 627.5,-27.4 627.5,-27.4 627.5,-56.85 627.5,-56.85"/>
<path fill="none" stroke="black" d="M627.5,-56.85C627.5,-55.05 603.97,-53.58 575,-53.58 546.03,-53.58 522.5,-55.05 522.5,-56.85"/>
<text text-anchor="middle" x="575" y="-38.42" font-family="Helvetica,sans-Serif" font-size="14.00">Model Storage</text>
</g>
<!-- LM&#45;&gt;Models -->
<g id="edge14" class="edge">
<title>LM&#45;&gt;Models</title>
<path fill="none" stroke="black" d="M575,-186.99C575,-155.51 575,-102.5 575,-70.37"/>
<polygon fill="black" stroke="black" points="578.5,-70.33 575,-60.33 571.5,-70.33 578.5,-70.33"/>
</g>
<!-- VectorDB -->
<g id="node11" class="node">
<title>VectorDB</title>
<path fill="#ffffff" stroke="black" d="M504.5,-63.6C504.5,-66.24 478.28,-68.38 446,-68.38 413.72,-68.38 387.5,-66.24 387.5,-63.6 387.5,-63.6 387.5,-20.65 387.5,-20.65 387.5,-18.01 413.72,-15.87 446,-15.87 478.28,-15.87 504.5,-18.01 504.5,-20.65 504.5,-20.65 504.5,-63.6 504.5,-63.6"/>
<path fill="none" stroke="black" d="M504.5,-63.6C504.5,-60.97 478.28,-58.83 446,-58.83 413.72,-58.83 387.5,-60.97 387.5,-63.6"/>
<text text-anchor="middle" x="446" y="-45.92" font-family="Helvetica,sans-Serif" font-size="14.00">Vector Database</text>
<text text-anchor="middle" x="446" y="-30.93" font-family="Helvetica,sans-Serif" font-size="14.00">FAISS</text>
</g>
<!-- RAG&#45;&gt;VectorDB -->
<g id="edge8" class="edge">
<title>RAG&#45;&gt;VectorDB</title>
<path fill="none" stroke="black" d="M446,-115.07C446,-104.71 446,-91.14 446,-78.58"/>
<polygon fill="black" stroke="black" points="449.5,-78.35 446,-68.35 442.5,-78.35 449.5,-78.35"/>
</g>
<!-- KnowledgeBase -->
<g id="node12" class="node">
<title>KnowledgeBase</title>
<path fill="#ffffff" stroke="black" d="M369,-56.85C369,-58.66 342.56,-60.12 310,-60.12 277.44,-60.12 251,-58.66 251,-56.85 251,-56.85 251,-27.4 251,-27.4 251,-25.59 277.44,-24.12 310,-24.12 342.56,-24.12 369,-25.59 369,-27.4 369,-27.4 369,-56.85 369,-56.85"/>
<path fill="none" stroke="black" d="M369,-56.85C369,-55.05 342.56,-53.58 310,-53.58 277.44,-53.58 251,-55.05 251,-56.85"/>
<text text-anchor="middle" x="310" y="-38.42" font-family="Helvetica,sans-Serif" font-size="14.00">Knowledge Base</text>
</g>
<!-- RAG&#45;&gt;KnowledgeBase -->
<g id="edge9" class="edge">
<title>RAG&#45;&gt;KnowledgeBase</title>
<path fill="none" stroke="black" d="M407.62,-115.19C398.04,-110.44 387.95,-104.99 379,-99.25 364.18,-89.74 348.87,-77.57 336.45,-66.99"/>
<polygon fill="black" stroke="black" points="338.59,-64.22 328.74,-60.32 334.01,-69.51 338.59,-64.22"/>
</g>
<!-- NLP -->
<g id="node9" class="node">
<title>NLP</title>
<path fill="#ffffff" stroke="black" d="M621.5,-312.25C621.5,-312.25 532.5,-312.25 532.5,-312.25 526.5,-312.25 520.5,-306.25 520.5,-300.25 520.5,-300.25 520.5,-288.25 520.5,-288.25 520.5,-282.25 526.5,-276.25 532.5,-276.25 532.5,-276.25 621.5,-276.25 621.5,-276.25 627.5,-276.25 633.5,-282.25 633.5,-288.25 633.5,-288.25 633.5,-300.25 633.5,-300.25 633.5,-306.25 627.5,-312.25 621.5,-312.25"/>
<text text-anchor="middle" x="577" y="-290.55" font-family="Helvetica,sans-Serif" font-size="14.00">NLP Processing</text>
</g>
<!-- NLP&#45;&gt;LM -->
<g id="edge10" class="edge">
<title>NLP&#45;&gt;LM</title>
<path fill="none" stroke="black" d="M576.57,-276.22C576.37,-268.7 576.14,-259.56 575.91,-250.65"/>
<polygon fill="black" stroke="black" points="579.41,-250.31 575.65,-240.41 572.41,-250.49 579.41,-250.31"/>
</g>
<!-- Encryption -->
<g id="node15" class="node">
<title>Encryption</title>
<path fill="#ffffff" stroke="black" d="M371,-467.25C371,-467.25 243,-467.25 243,-467.25 237,-467.25 231,-461.25 231,-455.25 231,-455.25 231,-443.25 231,-443.25 231,-437.25 237,-431.25 243,-431.25 243,-431.25 371,-431.25 371,-431.25 377,-431.25 383,-437.25 383,-443.25 383,-443.25 383,-455.25 383,-455.25 383,-461.25 377,-467.25 371,-467.25"/>
<text text-anchor="middle" x="307" y="-445.55" font-family="Helvetica,sans-Serif" font-size="14.00">End&#45;to&#45;End Encryption</text>
</g>
<!-- Encryption&#45;&gt;Flask -->
<g id="edge15" class="edge">
<title>Encryption&#45;&gt;Flask</title>
<path fill="none" stroke="black" stroke-dasharray="5,2" d="M362.66,-467.26C394.09,-476.71 434.13,-488.49 470,-498.25 479.88,-500.94 490.34,-503.67 500.62,-506.3"/>
<polygon fill="black" stroke="black" points="499.85,-509.72 510.41,-508.78 501.57,-502.93 499.85,-509.72"/>
</g>
<!-- VoiceVerif&#45;&gt;Auth -->
<g id="edge16" class="edge">
<title>VoiceVerif&#45;&gt;Auth</title>
<path fill="none" stroke="black" stroke-dasharray="5,2" d="M87.41,-505.97C102.43,-482.75 132.56,-442.2 170,-423.25 221.2,-397.33 374.31,-386.02 472.19,-381.32"/>
<polygon fill="black" stroke="black" points="472.54,-384.81 482.37,-380.85 472.21,-377.82 472.54,-384.81"/>
</g>
<!-- Anomaly -->
<g id="node17" class="node">
<title>Anomaly</title>
<path fill="#ffffff" stroke="black" d="M445.5,-542.25C445.5,-542.25 338.5,-542.25 338.5,-542.25 332.5,-542.25 326.5,-536.25 326.5,-530.25 326.5,-530.25 326.5,-518.25 326.5,-518.25 326.5,-512.25 332.5,-506.25 338.5,-506.25 338.5,-506.25 445.5,-506.25 445.5,-506.25 451.5,-506.25 457.5,-512.25 457.5,-518.25 457.5,-518.25 457.5,-530.25 457.5,-530.25 457.5,-536.25 451.5,-542.25 445.5,-542.25"/>
<text text-anchor="middle" x="392" y="-520.55" font-family="Helvetica,sans-Serif" font-size="14.00">Anomaly Detection</text>
</g>
<!-- Anomaly&#45;&gt;Routes -->
<g id="edge17" class="edge">
<title>Anomaly&#45;&gt;Routes</title>
<path fill="none" stroke="black" stroke-dasharray="5,2" d="M449.07,-506.21C456.19,-503.72 463.31,-501.04 470,-498.25 487.93,-490.76 507.08,-481.07 523.24,-472.35"/>
<polygon fill="black" stroke="black" points="525.28,-475.23 532.37,-467.36 521.92,-469.08 525.28,-475.23"/>
</g>
<!-- IAFramework -->
<g id="node18" class="node">
<title>IAFramework</title>
<path fill="#ffffff" stroke="black" d="M296,-542.25C296,-542.25 168,-542.25 168,-542.25 162,-542.25 156,-536.25 156,-530.25 156,-530.25 156,-518.25 156,-518.25 156,-512.25 162,-506.25 168,-506.25 168,-506.25 296,-506.25 296,-506.25 302,-506.25 308,-512.25 308,-518.25 308,-518.25 308,-530.25 308,-530.25 308,-536.25 302,-542.25 296,-542.25"/>
<text text-anchor="middle" x="232" y="-520.55" font-family="Helvetica,sans-Serif" font-size="14.00">Information Assurance</text>
</g>
<!-- IAFramework&#45;&gt;Encryption -->
<g id="edge18" class="edge">
<title>IAFramework&#45;&gt;Encryption</title>
<path fill="none" stroke="black" stroke-dasharray="5,2" d="M249.77,-505.95C259.39,-496.59 271.44,-484.87 281.99,-474.59"/>
<polygon fill="black" stroke="black" points="284.63,-476.91 289.35,-467.43 279.75,-471.89 284.63,-476.91"/>
</g>
<!-- Ubuntu -->
<g id="node20" class="node">
<title>Ubuntu</title>
<path fill="#ffffff" stroke="black" d="M852,-395.25C852,-395.25 750,-395.25 750,-395.25 744,-395.25 738,-389.25 738,-383.25 738,-383.25 738,-371.25 738,-371.25 738,-365.25 744,-359.25 750,-359.25 750,-359.25 852,-359.25 852,-359.25 858,-359.25 864,-365.25 864,-371.25 864,-371.25 864,-383.25 864,-383.25 864,-389.25 858,-395.25 852,-395.25"/>
<text text-anchor="middle" x="801" y="-373.55" font-family="Helvetica,sans-Serif" font-size="14.00">Ubuntu 22.04 LTS</text>
</g>
<!-- Docker&#45;&gt;Ubuntu -->
<g id="edge20" class="edge">
<title>Docker&#45;&gt;Ubuntu</title>
<path fill="none" stroke="black" d="M797.24,-430.95C797.79,-423.23 798.45,-413.96 799.06,-405.36"/>
<polygon fill="black" stroke="black" points="802.56,-405.58 799.78,-395.35 795.57,-405.08 802.56,-405.58"/>
</g>
<!-- GPU -->
<g id="node21" class="node">
<title>GPU</title>
<path fill="#ffffff" stroke="black" d="M862,-312.25C862,-312.25 740,-312.25 740,-312.25 734,-312.25 728,-306.25 728,-300.25 728,-300.25 728,-288.25 728,-288.25 728,-282.25 734,-276.25 740,-276.25 740,-276.25 862,-276.25 862,-276.25 868,-276.25 874,-282.25 874,-288.25 874,-288.25 874,-300.25 874,-300.25 874,-306.25 868,-312.25 862,-312.25"/>
<text text-anchor="middle" x="801" y="-290.55" font-family="Helvetica,sans-Serif" font-size="14.00">NVIDIA GPU Support</text>
</g>
<!-- Ubuntu&#45;&gt;GPU -->
<g id="edge21" class="edge">
<title>Ubuntu&#45;&gt;GPU</title>
<path fill="none" stroke="black" d="M801,-359.07C801,-348.44 801,-334.56 801,-322.45"/>
<polygon fill="black" stroke="black" points="804.5,-322.4 801,-312.4 797.5,-322.4 804.5,-322.4"/>
</g>
<!-- Monitor -->
<g id="node22" class="node">
<title>Monitor</title>
<path fill="#ffffff" stroke="black" d="M1031.5,-312.25C1031.5,-312.25 904.5,-312.25 904.5,-312.25 898.5,-312.25 892.5,-306.25 892.5,-300.25 892.5,-300.25 892.5,-288.25 892.5,-288.25 892.5,-282.25 898.5,-276.25 904.5,-276.25 904.5,-276.25 1031.5,-276.25 1031.5,-276.25 1037.5,-276.25 1043.5,-282.25 1043.5,-288.25 1043.5,-288.25 1043.5,-300.25 1043.5,-300.25 1043.5,-306.25 1037.5,-312.25 1031.5,-312.25"/>
<text text-anchor="middle" x="968" y="-290.55" font-family="Helvetica,sans-Serif" font-size="14.00">Prometheus / Grafana</text>
</g>
<!-- Ubuntu&#45;&gt;Monitor -->
<g id="edge22" class="edge">
<title>Ubuntu&#45;&gt;Monitor</title>
<path fill="none" stroke="black" d="M846.58,-359.14C858.56,-354.31 871.38,-348.84 883,-343.25 899.06,-335.52 916.27,-326.04 930.98,-317.56"/>
<polygon fill="black" stroke="black" points="932.9,-320.49 939.78,-312.42 929.38,-314.44 932.9,-320.49"/>
</g>
</g>
</svg>
